<?xml version="1.0" encoding="iso-8859-1"?>
<!-- Generator: Adobe Illustrator 19.0.0, SVG Export Plug-In . SVG Version: 6.00 Build 0)  -->
<svg version="1.1" id="Layer_1" xmlns="http://www.w3.org/2000/svg" xmlns:xlink="http://www.w3.org/1999/xlink" x="0px" y="0px"
	 viewBox="0 0 512 512" style="enable-background:new 0 0 512 512;" xml:space="preserve">
<rect x="16.629" y="60.505" style="fill:#77757E;" width="327.274" height="451.494"/>
<polygon style="fill:#ACAAB1;" points="378.068,445.16 378.068,512 50.792,512 50.792,60.505 378.068,60.505 378.068,335.504 "/>
<rect x="50.793" y="317.404" style="fill:#57545C;" width="327.274" height="96.924"/>
<g>
	<rect x="258.867" style="fill:#3E3B43;" width="36.653" height="69.881"/>
	<rect x="81.266" style="fill:#3E3B43;" width="40.441" height="73.048"/>
</g>
<path style="fill:#DFDFE2;" d="M378.068,327.857c0,64.785,52.518,117.303,117.303,117.303H168.095
	c-64.785,0-117.303-52.518-117.303-117.303V60.505h327.276v237.609L378.068,327.857L378.068,327.857z"/>
<g>
	<path style="fill:#77757E;" d="M156.043,179.45c-3.082-3.081-8.079-3.081-11.16,0l-10.442,10.442L124,179.45
		c-3.082-3.081-8.079-3.081-11.16,0c-3.082,3.083-3.082,8.079,0,11.161l10.441,10.441l-10.441,10.441
		c-3.082,3.083-3.082,8.079,0,11.161c1.541,1.541,3.561,2.311,5.58,2.311c2.019,0,4.04-0.77,5.58-2.311l10.442-10.442l10.442,10.442
		c1.541,1.541,3.561,2.311,5.58,2.311c2.019,0,4.04-0.77,5.58-2.311c3.082-3.083,3.082-8.079,0-11.161l-10.441-10.441l10.441-10.441
		C159.125,187.529,159.125,182.533,156.043,179.45z"/>
	<path style="fill:#77757E;" d="M243.978,179.45c-3.082-3.081-8.079-3.081-11.16,0l-10.442,10.442l-10.442-10.442
		c-3.082-3.081-8.079-3.081-11.16,0c-3.082,3.083-3.082,8.079,0,11.161l10.441,10.441l-10.441,10.441
		c-3.082,3.083-3.082,8.079,0,11.161c1.541,1.541,3.561,2.311,5.58,2.311c2.019,0,4.04-0.77,5.58-2.311l10.442-10.442l10.442,10.442
		c1.541,1.541,3.561,2.311,5.58,2.311s4.04-0.77,5.58-2.311c3.082-3.083,3.082-8.079,0-11.161l-10.441-10.441l10.441-10.441
		C247.062,187.529,247.062,182.533,243.978,179.45z"/>
	<path style="fill:#77757E;" d="M288.711,222.655c1.54,1.541,3.561,2.311,5.58,2.311c2.019,0,4.04-0.77,5.58-2.311l10.442-10.442
		l10.442,10.442c1.54,1.541,3.561,2.311,5.58,2.311c2.019,0,4.04-0.77,5.58-2.311c3.082-3.083,3.082-8.079,0-11.161l-10.441-10.441
		l10.441-10.441c3.082-3.083,3.082-8.079,0-11.161c-3.082-3.081-8.079-3.081-11.16,0l-10.442,10.442l-10.442-10.442
		c-3.082-3.081-8.079-3.081-11.16,0c-3.082,3.083-3.082,8.079,0,11.161l10.441,10.441l-10.441,10.441
		C285.628,214.576,285.628,219.572,288.711,222.655z"/>
	<path style="fill:#77757E;" d="M156.043,249.582c-3.082-3.081-8.079-3.081-11.16,0l-10.442,10.441L124,249.582
		c-3.082-3.081-8.079-3.081-11.16,0c-3.082,3.083-3.082,8.079,0,11.161l10.441,10.441l-10.441,10.441
		c-3.082,3.083-3.082,8.079,0,11.161c1.541,1.54,3.561,2.311,5.58,2.311c2.019,0,4.04-0.77,5.58-2.311l10.442-10.441l10.442,10.441
		c1.541,1.54,3.561,2.311,5.58,2.311c2.019,0,4.04-0.77,5.58-2.311c3.082-3.083,3.082-8.079,0-11.161l-10.441-10.441l10.441-10.441
		C159.125,257.661,159.125,252.665,156.043,249.582z"/>
	<path style="fill:#77757E;" d="M243.978,249.583c-3.082-3.083-8.079-3.082-11.16-0.001l-10.442,10.442l-10.442-10.442
		c-3.082-3.081-8.079-3.082-11.16,0.001c-3.082,3.082-3.082,8.078,0,11.16l10.441,10.441l-10.441,10.441
		c-3.082,3.083-3.082,8.079,0,11.16c1.541,1.542,3.561,2.312,5.58,2.312c2.019,0,4.04-0.77,5.58-2.311l10.442-10.442l10.442,10.442
		c1.541,1.54,3.561,2.311,5.58,2.311s4.04-0.77,5.58-2.312c3.082-3.082,3.082-8.078,0-11.16l-10.441-10.441l10.441-10.441
		C247.062,257.661,247.062,252.665,243.978,249.583z"/>
	<path style="fill:#77757E;" d="M288.711,292.787c1.54,1.54,3.561,2.311,5.58,2.311c2.019,0,4.04-0.77,5.58-2.311l10.442-10.441
		l10.442,10.441c1.54,1.54,3.561,2.311,5.58,2.311c2.019,0,4.04-0.77,5.58-2.311c3.082-3.083,3.082-8.079,0-11.161l-10.441-10.441
		l10.441-10.441c3.082-3.083,3.082-8.079,0-11.161c-3.082-3.081-8.079-3.081-11.16,0l-10.442,10.441l-10.442-10.441
		c-3.082-3.081-8.079-3.081-11.16,0c-3.082,3.083-3.082,8.079,0,11.161l10.441,10.441l-10.441,10.441
		C285.628,284.707,285.628,289.703,288.711,292.787z"/>
	<path style="fill:#77757E;" d="M156.043,319.714c-3.082-3.081-8.079-3.081-11.16,0l-10.442,10.442L124,319.714
		c-3.082-3.081-8.079-3.081-11.16,0c-3.082,3.083-3.082,8.079,0,11.161l10.441,10.441l-10.441,10.441
		c-3.082,3.083-3.082,8.079,0,11.161c1.541,1.54,3.561,2.311,5.58,2.311c2.019,0,4.04-0.77,5.58-2.311l10.442-10.442l10.442,10.442
		c1.541,1.54,3.561,2.311,5.58,2.311c2.019,0,4.04-0.77,5.58-2.311c3.082-3.083,3.082-8.079,0-11.161l-10.441-10.441l10.441-10.441
		C159.125,327.793,159.125,322.797,156.043,319.714z"/>
	<path style="fill:#77757E;" d="M243.978,319.714c-3.082-3.081-8.079-3.081-11.16,0l-10.442,10.442l-10.442-10.442
		c-3.082-3.081-8.079-3.081-11.16,0c-3.082,3.083-3.082,8.079,0,11.161l10.441,10.441l-10.441,10.441
		c-3.082,3.083-3.082,8.079,0,11.161c1.541,1.54,3.561,2.311,5.58,2.311c2.019,0,4.04-0.77,5.58-2.311l10.442-10.442l10.442,10.442
		c1.541,1.54,3.561,2.311,5.58,2.311s4.04-0.77,5.58-2.311c3.082-3.083,3.082-8.079,0-11.161l-10.441-10.441l10.441-10.441
		C247.062,327.793,247.062,322.797,243.978,319.714z"/>
	<path style="fill:#77757E;" d="M328.663,317.403h-36.702c-4.358,0-7.892,3.532-7.892,7.892v36.702c0,4.359,3.534,7.892,7.892,7.892
		h36.702c4.358,0,7.892-3.532,7.892-7.892v-36.702C336.555,320.936,333.022,317.403,328.663,317.403z M320.771,354.105h-20.918
		v-20.918h20.918V354.105z"/>
</g>
<rect x="18.993" y="60.505" style="fill:#FF3F62;" width="359.074" height="69.266"/>
<g>
	<path style="fill:#77757E;" d="M135.254,95.139h-1.626c-11.43,0-20.695-9.265-20.695-20.695V0h43.014v74.444
		C155.947,85.874,146.682,95.139,135.254,95.139z"/>
	<path style="fill:#77757E;" d="M311.125,95.139H309.5c-11.43,0-20.695-9.265-20.695-20.695V0h43.014v74.444
		C331.82,85.874,322.555,95.139,311.125,95.139z"/>
</g>
<rect x="18.993" y="60.505" style="fill:#C70024;" width="31.799" height="69.266"/>
<g>
</g>
<g>
</g>
<g>
</g>
<g>
</g>
<g>
</g>
<g>
</g>
<g>
</g>
<g>
</g>
<g>
</g>
<g>
</g>
<g>
</g>
<g>
</g>
<g>
</g>
<g>
</g>
<g>
</g>
</svg>
