<?xml version="1.0" encoding="utf-8"?>
<!-- Generator: Adobe Illustrator 16.0.0, SVG Export Plug-In . SVG Version: 6.00 Build 0)  -->
<!DOCTYPE svg PUBLIC "-//W3C//DTD SVG 1.1//EN" "http://www.w3.org/Graphics/SVG/1.1/DTD/svg11.dtd">
<svg version="1.1" id="Layer_1" xmlns="http://www.w3.org/2000/svg" xmlns:xlink="http://www.w3.org/1999/xlink" x="0px" y="0px"
	 width="792px" height="792px" viewBox="-90 0 792 792" enable-background="new -90 0 792 792" xml:space="preserve">
<rect x="19.877" y="162.322" fill="#77757E" width="391.194" height="539.677"/>
<polygon fill="#ACAAB1" points="451.909,622.105 451.909,702 60.712,702 60.712,162.322 451.909,162.322 451.909,491.032 "/>
<rect x="60.713" y="469.396" fill="#57545C" width="391.195" height="115.854"/>
<g>
	<rect x="309.427" y="90" fill="#3E3B43" width="43.812" height="83.53"/>
	<rect x="97.138" y="90" fill="#3E3B43" width="48.34" height="87.315"/>
</g>
<path fill="#DFDFE2" d="M451.909,481.892c0,77.438,62.775,140.214,140.214,140.214H200.926
	c-77.438,0-140.214-62.775-140.214-140.214V162.322h391.197V446.34V481.892L451.909,481.892z"/>
<g>
	<path fill="#77757E" d="M186.52,304.499c-3.684-3.683-9.657-3.683-13.339,0l-12.481,12.481l-12.48-12.481
		c-3.684-3.683-9.657-3.683-13.34,0c-3.684,3.685-3.684,9.657,0,13.341l12.48,12.48l-12.48,12.48c-3.684,3.685-3.684,9.657,0,13.341
		c1.842,1.842,4.257,2.762,6.67,2.762c2.414,0,4.829-0.92,6.67-2.762L160.7,343.66l12.481,12.481
		c1.842,1.842,4.256,2.762,6.67,2.762c2.413,0,4.829-0.92,6.67-2.762c3.684-3.685,3.684-9.657,0-13.341l-12.48-12.48l12.48-12.48
		C190.204,314.156,190.204,308.184,186.52,304.499z"/>
	<path fill="#77757E" d="M291.63,304.499c-3.684-3.683-9.657-3.683-13.34,0l-12.481,12.481l-12.481-12.481
		c-3.684-3.683-9.657-3.683-13.339,0c-3.684,3.685-3.684,9.657,0,13.341l12.48,12.48l-12.48,12.48
		c-3.684,3.685-3.684,9.657,0,13.341c1.842,1.842,4.256,2.762,6.67,2.762c2.413,0,4.829-0.92,6.669-2.762l12.481-12.481
		l12.481,12.481c1.842,1.842,4.257,2.762,6.67,2.762c2.414,0,4.829-0.92,6.67-2.762c3.684-3.685,3.684-9.657,0-13.341l-12.48-12.48
		l12.48-12.48C295.316,314.156,295.316,308.184,291.63,304.499z"/>
	<path fill="#77757E" d="M345.1,356.142c1.841,1.842,4.257,2.763,6.67,2.763s4.829-0.92,6.67-2.763l12.481-12.481l12.481,12.481
		c1.841,1.842,4.257,2.763,6.67,2.763s4.829-0.92,6.67-2.763c3.684-3.685,3.684-9.657,0-13.341l-12.48-12.48l12.48-12.48
		c3.684-3.685,3.684-9.657,0-13.341c-3.684-3.683-9.657-3.683-13.34,0l-12.481,12.481L358.439,304.5
		c-3.684-3.683-9.657-3.683-13.34,0c-3.684,3.685-3.684,9.657,0,13.341l12.48,12.48l-12.48,12.48
		C341.415,346.485,341.415,352.457,345.1,356.142z"/>
	<path fill="#77757E" d="M186.52,388.329c-3.684-3.683-9.657-3.683-13.339,0l-12.481,12.48l-12.48-12.48
		c-3.684-3.683-9.657-3.683-13.34,0c-3.684,3.685-3.684,9.657,0,13.34l12.48,12.48l-12.48,12.48c-3.684,3.686-3.684,9.657,0,13.341
		c1.842,1.841,4.257,2.763,6.67,2.763c2.414,0,4.829-0.921,6.67-2.763l12.481-12.48l12.481,12.48
		c1.842,1.841,4.256,2.763,6.67,2.763c2.413,0,4.829-0.921,6.67-2.763c3.684-3.686,3.684-9.657,0-13.341l-12.48-12.48l12.48-12.48
		C190.204,397.985,190.204,392.014,186.52,388.329z"/>
	<path fill="#77757E" d="M291.63,388.33c-3.684-3.685-9.657-3.684-13.34-0.001l-12.481,12.481l-12.481-12.481
		c-3.684-3.683-9.657-3.684-13.339,0.001c-3.684,3.684-3.684,9.656,0,13.339l12.48,12.48l-12.48,12.48
		c-3.684,3.686-3.684,9.657,0,13.34c1.842,1.843,4.256,2.764,6.67,2.764c2.413,0,4.829-0.921,6.669-2.763l12.481-12.481
		l12.481,12.481c1.842,1.841,4.257,2.763,6.67,2.763c2.414,0,4.829-0.921,6.67-2.764c3.684-3.685,3.684-9.656,0-13.34l-12.48-12.48
		l12.48-12.48C295.316,397.985,295.316,392.014,291.63,388.33z"/>
	<path fill="#77757E" d="M345.1,439.972c1.841,1.841,4.257,2.763,6.67,2.763s4.829-0.921,6.67-2.763l12.481-12.48l12.481,12.48
		c1.841,1.841,4.257,2.763,6.67,2.763s4.829-0.921,6.67-2.763c3.684-3.685,3.684-9.656,0-13.341l-12.48-12.48l12.48-12.479
		c3.684-3.686,3.684-9.657,0-13.341c-3.684-3.683-9.657-3.683-13.34,0l-12.481,12.48l-12.481-12.48
		c-3.684-3.683-9.657-3.683-13.34,0c-3.684,3.685-3.684,9.657,0,13.341l12.48,12.479l-12.48,12.48
		C341.415,430.313,341.415,436.285,345.1,439.972z"/>
	<path fill="#77757E" d="M186.52,472.158c-3.684-3.683-9.657-3.683-13.339,0l-12.481,12.481l-12.48-12.481
		c-3.684-3.683-9.657-3.683-13.34,0c-3.684,3.686-3.684,9.657,0,13.341l12.48,12.48l-12.48,12.48c-3.684,3.685-3.684,9.656,0,13.341
		c1.842,1.841,4.257,2.762,6.67,2.762c2.414,0,4.829-0.92,6.67-2.762l12.481-12.481l12.481,12.481
		c1.842,1.841,4.256,2.762,6.67,2.762c2.413,0,4.829-0.92,6.67-2.762c3.684-3.686,3.684-9.657,0-13.341l-12.48-12.48l12.48-12.48
		C190.204,481.815,190.204,475.844,186.52,472.158z"/>
	<path fill="#77757E" d="M291.63,472.158c-3.684-3.683-9.657-3.683-13.34,0l-12.481,12.481l-12.481-12.481
		c-3.684-3.683-9.657-3.683-13.339,0c-3.684,3.686-3.684,9.657,0,13.341l12.48,12.48l-12.48,12.48
		c-3.684,3.685-3.684,9.656,0,13.341c1.842,1.841,4.256,2.762,6.67,2.762c2.413,0,4.829-0.92,6.669-2.762l12.481-12.481
		l12.481,12.481c1.842,1.841,4.257,2.762,6.67,2.762c2.414,0,4.829-0.92,6.67-2.762c3.684-3.686,3.684-9.657,0-13.341l-12.48-12.48
		l12.48-12.48C295.316,481.815,295.316,475.844,291.63,472.158z"/>
	<path fill="#77757E" d="M392.855,469.396h-43.871c-5.209,0-9.434,4.222-9.434,9.434v43.87c0,5.211,4.225,9.434,9.434,9.434h43.871
		c5.209,0,9.433-4.222,9.433-9.434v-43.87C402.288,473.619,398.065,469.396,392.855,469.396z M383.422,513.267h-25.004v-25.004
		h25.004V513.267z"/>
</g>
<rect x="22.703" y="162.322" fill="#FF3F62" width="429.206" height="82.794"/>
<g>
	<path fill="#77757E" d="M161.671,203.721h-1.944c-13.662,0-24.737-11.074-24.737-24.737V90h51.415v88.984
		C186.405,192.646,175.331,203.721,161.671,203.721z"/>
	<path fill="#77757E" d="M371.892,203.721h-1.942c-13.662,0-24.737-11.074-24.737-24.737V90h51.415v88.984
		C396.629,192.646,385.554,203.721,371.892,203.721z"/>
</g>
<rect x="22.703" y="162.322" fill="#C70024" width="38.01" height="82.794"/>
</svg>
