<?xml version="1.0" encoding="utf-8"?>
<!-- Generator: Adobe Illustrator 16.0.0, SVG Export Plug-In . SVG Version: 6.00 Build 0)  -->
<!DOCTYPE svg PUBLIC "-//W3C//DTD SVG 1.1//EN" "http://www.w3.org/Graphics/SVG/1.1/DTD/svg11.dtd">
<svg version="1.1" id="Layer_1" xmlns="http://www.w3.org/2000/svg" xmlns:xlink="http://www.w3.org/1999/xlink" x="0px" y="0px"
	 width="792px" height="792px" viewBox="-90 0 792 792" enable-background="new -90 0 792 792" xml:space="preserve">
<path fill="#F7A872" d="M319.573,209.677c-5.503,0-10.248-4.124-10.898-9.719l0,0c-1.714-14.625-10.298-46.686-24.638-46.686
	c-6.067,0-10.986-4.918-10.986-10.986s4.918-10.986,10.986-10.986c37.765,0,45.686,59.364,46.465,66.133
	c0.694,6.028-3.632,11.476-9.658,12.169C320.417,209.654,319.992,209.677,319.573,209.677z"/>
<g>
	<path fill="#4EB79B" d="M380.229,112.77V90h-22.77c-28.472,0-51.553,23.082-51.553,51.554v22.77h22.769
		C357.147,164.323,380.229,141.242,380.229,112.77z"/>
	<path fill="#4EB79B" d="M363.903,365.761c34.876-16.587,58.986-52.141,58.986-93.332c0-57.051-46.25-110.691-103.302-73.739
		c-57.051-36.952-103.301,16.688-103.301,73.739c0,41.19,24.109,76.745,58.986,93.332
		C281.797,368.865,357.379,368.865,363.903,365.761z"/>
</g>
<path fill="#D37250" d="M548.969,702H115.52c-26.009,0-49.575-10.554-66.626-27.604c-17.033-17.051-27.588-40.6-27.588-66.627
	c0-52.034,42.179-94.232,94.213-94.232l231.497-48.298l201.952,48.298"/>
<rect x="298.08" y="551.914" fill="#E6E6E6" width="264.054" height="118.641"/>
<path fill="#E88158" d="M590.692,567.383h-240.84c-22.257,0-40.368,18.128-40.368,40.385c0,22.274,18.11,40.385,40.368,40.385
	h240.841v53.847H349.853c-26.009,0-49.576-10.554-66.627-27.604c-17.033-17.052-27.588-40.601-27.588-66.627
	c0-52.034,42.179-94.232,94.214-94.232l87.979-45.368l117.706,45.368h35.155V567.383L590.692,567.383L590.692,567.383z"/>
<path fill="#F4BD64" d="M555.538,368.385H298.486v0.083c-0.727-0.048-1.457-0.083-2.197-0.083H39.238v43.943h24.166v57.272H39.238
	v43.942h257.052c0.74,0,1.47-0.033,2.197-0.082v0.082h257.052c17.959,0,32.533-14.574,32.533-32.532v-80.108
	C588.071,382.943,573.496,368.385,555.538,368.385z"/>
<rect x="63.409" y="395.917" fill="#CCCCCC" width="234.669" height="90.083"/>
<path fill="#DDA758" d="M39.238,469.599H284.88v-57.271H39.238v-43.944h257.052c17.958,0,32.533,14.56,32.533,32.517v80.109
	c0,17.958-14.574,32.532-32.533,32.532H39.238V469.599z"/>
<path fill="#40A084" d="M320.3,365.766c2.021,0.967,10.648,1.626,21.811,1.993c-24.887,0.82-62.34,0.147-66.837-1.993
	c-34.876-16.596-58.986-52.146-58.986-93.334c0-52.307,38.875-101.743,89.292-81.119c-26.762,12.216-44.265,46.023-44.265,81.119
	C261.313,313.62,285.424,349.17,320.3,365.766z"/>
</svg>
