<?xml version="1.0" encoding="iso-8859-1"?>
<!-- Generator: Adobe Illustrator 19.0.0, SVG Export Plug-In . SVG Version: 6.00 Build 0)  -->
<svg version="1.1" id="Layer_1" xmlns="http://www.w3.org/2000/svg" xmlns:xlink="http://www.w3.org/1999/xlink" x="0px" y="0px"
	 viewBox="0 0 512 512" style="enable-background:new 0 0 512 512;" xml:space="preserve">
<path style="fill:#F7A872;" d="M267.355,100.122c-4.603,0-8.573-3.45-9.117-8.131l0,0c-1.434-12.235-8.616-39.057-20.612-39.057
	c-5.076,0-9.191-4.115-9.191-9.191s4.115-9.191,9.191-9.191c31.594,0,38.22,49.664,38.872,55.327
	c0.581,5.043-3.038,9.601-8.08,10.181C268.061,100.103,267.706,100.122,267.355,100.122z"/>
<g>
	<path style="fill:#4EB79B;" d="M318.1,19.049V0h-19.049c-23.82,0-43.13,19.31-43.13,43.13v19.049h19.049
		C298.79,62.179,318.1,42.869,318.1,19.049z"/>
	<path style="fill:#4EB79B;" d="M304.442,230.702c29.177-13.877,49.348-43.621,49.348-78.082c0-47.729-38.693-92.604-86.422-61.69
		c-47.729-30.914-86.422,13.961-86.422,61.69c0,34.46,20.17,64.205,49.348,78.082C235.752,233.299,298.984,233.299,304.442,230.702z
		"/>
</g>
<path style="fill:#D37250;" d="M459.268,512H96.644c-21.759,0-41.475-8.829-55.74-23.094c-14.25-14.265-23.08-33.966-23.08-55.74
	c0-43.532,35.287-78.835,78.819-78.835l193.671-40.406l168.953,40.406"/>
<rect x="249.374" y="386.438" style="fill:#E6E6E6;" width="220.908" height="99.255"/>
<path style="fill:#E88158;" d="M494.174,399.379H292.687c-18.62,0-33.772,15.166-33.772,33.786
	c0,18.635,15.151,33.786,33.772,33.786h201.488v45.048H292.687c-21.759,0-41.475-8.829-55.74-23.094
	c-14.25-14.265-23.08-33.966-23.08-55.74c0-43.532,35.287-78.835,78.819-78.835l73.604-37.955l98.473,37.955h29.411v45.049H494.174z
	"/>
<path style="fill:#F4BD64;" d="M464.764,232.897h-215.05v0.069c-0.608-0.04-1.219-0.069-1.838-0.069H32.827v36.763h20.217v47.914
	H32.827v36.763h215.05c0.619,0,1.23-0.028,1.838-0.069v0.069h215.05c15.024,0,27.217-12.193,27.217-27.217v-67.019
	C491.981,245.077,479.788,232.897,464.764,232.897z"/>
<rect x="53.048" y="255.93" style="fill:#CCCCCC;" width="196.325" height="75.364"/>
<path style="fill:#DDA758;" d="M32.827,317.573h205.504v-47.914H32.827v-36.763h215.05c15.024,0,27.217,12.181,27.217,27.204v67.019
	c0,15.024-12.193,27.217-27.217,27.217H32.827V317.573z"/>
<path style="fill:#40A084;" d="M267.963,230.706c1.691,0.809,8.909,1.36,18.247,1.667c-20.82,0.686-52.154,0.123-55.916-1.667
	c-29.177-13.884-49.348-43.625-49.348-78.084c0-43.76,32.523-85.118,74.702-67.864c-22.389,10.22-37.032,38.503-37.032,67.864
	C218.615,187.081,238.786,216.822,267.963,230.706z"/>
<g>
</g>
<g>
</g>
<g>
</g>
<g>
</g>
<g>
</g>
<g>
</g>
<g>
</g>
<g>
</g>
<g>
</g>
<g>
</g>
<g>
</g>
<g>
</g>
<g>
</g>
<g>
</g>
<g>
</g>
</svg>
