<?xml version="1.0" encoding="utf-8"?>
<!-- Generator: Adobe Illustrator 16.0.0, SVG Export Plug-In . SVG Version: 6.00 Build 0)  -->
<!DOCTYPE svg PUBLIC "-//W3C//DTD SVG 1.1//EN" "http://www.w3.org/Graphics/SVG/1.1/DTD/svg11.dtd">
<svg version="1.1" id="Layer_1" xmlns="http://www.w3.org/2000/svg" xmlns:xlink="http://www.w3.org/1999/xlink" x="0px" y="0px"
	 width="600px" height="600px" viewBox="96 96 600 600" enable-background="new 96 96 600 600" xml:space="preserve">
<path fill="#1E4405" d="M258.588,312.01c-2.949,4.184-4.705,9.247-4.705,14.748c0,9.594,5.318,17.864,13.115,22.279
	c1.848,11.044,9.188,20.208,19.155,24.566c-1.168,1.873-1.897,4.085-1.897,6.463c0,6.702,5.443,12.146,12.163,12.146
	c2.072,0,4.003-0.563,5.717-1.491c4.044,4.856,9.461,8.493,15.651,10.374c1.615,12.635,12.294,22.445,25.369,22.445
	c4.433,0,8.524-1.228,12.155-3.19c4.482,2.327,9.579,3.653,14.972,3.653c7.597,0,14.565-2.601,20.117-6.959
	c5.552,4.35,12.526,6.959,20.115,6.959c5.395,0,10.488-1.325,14.973-3.653c3.628,1.955,7.738,3.19,12.146,3.19
	c13.074,0,23.763-9.809,25.379-22.445c6.197-1.881,11.607-5.519,15.65-10.374c1.731,0.919,3.646,1.491,5.717,1.491
	c6.728,0,12.163-5.442,12.163-12.146c0-2.378-0.712-4.6-1.897-6.463c9.967-4.35,17.334-13.521,19.172-24.566
	c7.788-4.415,13.107-12.686,13.107-22.279c0-5.501-1.756-10.564-4.698-14.748c3.63-2.113,6.107-5.991,6.107-10.489
	c0-6.719-5.435-12.163-12.154-12.163c-0.273,0-0.522,0.075-0.786,0.083c-1.559-12.362-11.808-21.973-24.483-22.429
	c-2.153-3.413-5.933-5.7-10.266-5.7c-1.931,0-3.745,0.498-5.36,1.309c-4.647-4.565-10.987-7.39-18.012-7.39
	c-11.841,0-21.715,8.053-24.69,18.949c-0.812-0.083-1.591-0.248-2.428-0.248c-3.398,0-6.621,0.696-9.568,1.889
	c-4.186-2.94-9.248-4.689-14.74-4.689c-5.818,0-11.129,2.003-15.429,5.261c-4.309-3.257-9.61-5.261-15.436-5.261
	c-5.477,0-10.556,1.749-14.723,4.689c-2.966-1.192-6.18-1.889-9.578-1.889c-0.83,0-1.607,0.173-2.411,0.249
	c-2.992-10.895-12.851-18.949-24.699-18.949c-7.019,0-13.356,2.825-18.013,7.39c-1.616-0.821-3.429-1.309-5.361-1.309
	c-4.341,0-8.111,2.286-10.273,5.7c-12.668,0.455-22.925,10.066-24.483,22.429c-0.257-0.009-0.513-0.083-0.778-0.083
	c-6.711,0-12.153,5.443-12.153,12.162C252.481,306.019,254.951,309.896,258.588,312.01z"/>
<path fill="#2A6602" d="M420.384,408.301c0,15.328-12.428,18.387-27.756,18.387c-15.329,0-27.756-3.058-27.756-18.368
	c0-15.328,12.428-91.065,27.756-91.082C407.956,317.229,420.384,392.982,420.384,408.301z"/>
<path fill="#51B224" d="M457.445,622.378c0,37.01-30.02,44.368-67.045,44.368c-37.027,0-67.045-7.366-67.045-44.368
	c0-37.027,30.018-220.017,67.045-220.017C427.426,402.361,457.445,585.351,457.445,622.378z"/>
<path fill="#3E9311" d="M390.4,402.361c37.025,0,67.045,182.988,67.045,220.017c0,37.01-30.02,44.368-67.045,44.368"/>
<path fill="#51B224" d="M394.385,431.533c13.38,13.398,5.202,26.928-8.194,40.308c-13.39,13.38-26.911,21.582-40.291,8.203
	c-13.398-13.398-68.736-90.443-55.355-103.833C303.942,362.814,380.986,418.153,394.385,431.533z"/>
<path fill="#3E9311" d="M290.544,376.221c13.397-13.398,90.441,41.939,103.84,55.322c13.38,13.396,5.202,26.926-8.194,40.307"/>
<path fill="#51B224" d="M386.414,431.533c-13.389,13.398-5.195,26.928,8.194,40.308c13.388,13.38,26.911,21.582,40.291,8.203
	c13.396-13.398,68.727-90.443,55.347-103.833C476.856,362.814,399.803,418.153,386.414,431.533z"/>
<path fill="#3E9311" d="M490.246,376.221c-13.389-13.398-90.443,41.939-103.832,55.322c-13.39,13.396-5.196,26.926,8.192,40.307"/>
<path fill="#2F7005" d="M600.955,315.406c4.706-6.679,7.514-14.766,7.514-23.573c0-15.327-8.492-28.534-20.937-35.593
	c-2.958-17.639-14.698-32.279-30.631-39.223c1.896-2.992,3.032-6.52,3.032-10.324c0-10.722-8.691-19.414-19.413-19.414
	c-3.314,0-6.396,0.903-9.146,2.378c-6.454-7.739-15.098-13.58-25.006-16.571c-2.586-20.191-19.652-35.843-40.558-35.843
	c-7.051,0-13.588,1.938-19.379,5.071c-7.165-3.703-15.285-5.832-23.902-5.832c-12.13,0-23.266,4.168-32.13,11.102
	c-8.873-6.934-20-11.102-32.13-11.102c-8.617,0-16.745,2.129-23.912,5.832c-5.8-3.131-12.337-5.071-19.396-5.071
	c-20.887,0-37.955,15.659-40.548,35.843c-9.894,2.991-18.551,8.832-25.005,16.571c-2.751-1.475-5.824-2.378-9.147-2.378
	c-10.73,0-19.422,8.691-19.422,19.414c0,3.804,1.144,7.332,3.042,10.324c-15.932,6.951-27.673,21.583-30.631,39.223
	c-12.428,7.06-20.921,20.266-20.921,35.593c0,8.799,2.809,16.894,7.506,23.573c-5.8,3.363-9.751,9.569-9.751,16.752
	c0,10.722,8.692,19.413,19.413,19.413c0.423,0,0.83-0.107,1.244-0.124c2.494,19.76,18.857,35.097,39.115,35.817
	c3.447,5.46,9.479,9.114,16.396,9.114c3.099,0,5.991-0.787,8.567-2.079c7.424,7.283,17.565,11.799,28.776,11.799
	c18.915,0,34.691-12.858,39.454-30.266c1.293,0.125,2.552,0.397,3.878,0.397c5.411,0,10.547-1.111,15.287-3.007
	c6.67,4.689,14.765,7.49,23.546,7.49c9.296,0,17.772-3.197,24.649-8.409c6.878,5.212,15.344,8.409,24.649,8.409
	c8.774,0,16.877-2.8,23.546-7.49c4.724,1.897,9.868,3.007,15.296,3.007c1.31,0,2.584-0.272,3.869-0.397
	c4.756,17.415,20.541,30.266,39.456,30.266c11.21,0,21.343-4.516,28.767-11.799c2.592,1.292,5.477,2.079,8.575,2.079
	c6.935,0,12.951-3.646,16.396-9.114c20.24-0.722,36.622-16.056,39.106-35.817c0.423,0.017,0.829,0.124,1.251,0.124
	c10.721,0,19.412-8.691,19.412-19.413C610.715,324.976,606.764,318.77,600.955,315.406z"/>
<path fill="#3A8708" d="M190.74,272.29c2.494,19.76,18.858,35.105,39.115,35.818c3.448,5.46,9.479,9.114,16.397,9.114
	c3.1,0,5.99-0.787,8.567-2.08c7.423,7.283,17.564,11.798,28.775,11.798c18.916,0,34.691-12.858,39.455-30.266
	c1.293,0.132,2.552,0.398,3.877,0.398c5.411,0,10.546-1.111,15.287-3.008c6.67,4.689,14.765,7.491,23.546,7.491
	c9.296,0,17.772-3.197,24.649-8.401c6.877,5.203,15.344,8.401,24.648,8.401c8.774,0,16.877-2.799,23.547-7.491
	c4.723,1.898,9.867,3.008,15.295,3.008c1.31,0,2.584-0.266,3.869-0.398c4.755,17.416,20.541,30.266,39.456,30.266
	c11.21,0,21.342-4.515,28.767-11.798c2.592,1.293,5.477,2.08,8.575,2.08c6.935,0,12.95-3.646,16.396-9.114
	c20.24-0.712,36.622-16.057,39.107-35.818c0.422,0.017,0.829,0.125,1.25,0.125c3.786,0,7.308-1.126,10.29-3.007
	c-3.595-5.395-8.393-9.934-14.061-13.158c-2.958-17.64-14.698-32.279-30.632-39.223c1.898-2.992,3.033-6.52,3.033-10.324
	c0-10.722-8.691-19.413-19.412-19.413c-3.314,0-6.397,0.904-9.148,2.378c-6.454-7.738-15.096-13.58-25.006-16.57
	c-2.584-20.191-19.652-35.843-40.557-35.843c-7.05,0-13.588,1.938-19.379,5.071c-7.183-3.712-15.303-5.841-23.92-5.841
	c-12.13,0-23.266,4.168-32.13,11.102c-8.873-6.934-20-11.102-32.13-11.102c-8.617,0-16.745,2.129-23.912,5.832
	c-5.8-3.131-12.337-5.071-19.396-5.071c-20.887,0-37.955,15.659-40.548,35.843c-9.894,2.991-18.551,8.832-25.005,16.571
	c-2.751-1.475-5.824-2.378-9.147-2.378c-10.73,0-19.422,8.691-19.422,19.414c0,3.804,1.144,7.332,3.042,10.324
	c-15.932,6.951-27.673,21.583-30.631,39.223c-5.677,3.223-10.473,7.763-14.061,13.158c2.974,1.889,6.503,3.007,10.29,3.007
	C189.919,272.405,190.326,272.306,190.74,272.29z"/>
<g>
	<path fill="#4A9B16" d="M355.692,190.172c1.805,5.974-9.206,5.933-21.649,9.653c-12.445,3.719-21.633,9.801-23.431,3.827
		c-1.774-5.973,6.869-13.828,19.321-17.548C342.37,182.385,353.903,184.208,355.692,190.172z"/>
	<path fill="#4A9B16" d="M252.879,233.514c1.284,4.268-6.537,4.234-15.394,6.869c-8.856,2.659-15.41,6.984-16.669,2.733
		c-1.277-4.259,4.888-9.843,13.745-12.503C243.417,227.971,251.619,229.264,252.879,233.514z"/>
	<path fill="#4A9B16" d="M293.966,196.793c2.004,3.968-5.7,5.319-13.953,9.478c-8.261,4.177-13.936,9.579-15.941,5.618
		c-2.005-3.968,3.073-10.538,11.334-14.714C283.659,193.006,291.96,192.841,293.966,196.793z"/>
	<path fill="#4A9B16" d="M376.819,165.865c0.173,4.44-7.399,2.468-16.62,2.834c-9.239,0.389-16.661,2.949-16.836-1.492
		c-0.173-4.433,7.175-8.318,16.413-8.7C369.006,158.142,376.646,161.431,376.819,165.865z"/>
	<path fill="#4A9B16" d="M329.179,151.556c1.914,4.009-5.825,5.202-14.134,9.188c-8.352,4.009-14.126,9.313-16.057,5.303
		c-1.906-4.002,3.297-10.48,11.615-14.491C318.946,147.569,327.266,147.562,329.179,151.556z"/>
	<circle fill="#4A9B16" cx="294.754" cy="183.918" r="4.855"/>
	<circle fill="#4A9B16" cx="247.319" cy="206.694" r="3.729"/>
	<circle fill="#4A9B16" cx="227.535" cy="263.822" r="6.346"/>
	<circle fill="#4A9B16" cx="289.525" cy="227.971" r="4.847"/>
	<circle fill="#4A9B16" cx="372.089" cy="148.439" r="2.246"/>
	<circle fill="#4A9B16" cx="328.343" cy="171.962" r="4.109"/>
	<circle fill="#4A9B16" cx="378.385" cy="194.374" r="3.356"/>
	<path fill="#4A9B16" d="M425.106,190.172c-1.814,5.974,9.204,5.933,21.649,9.653c12.443,3.719,21.633,9.801,23.423,3.827
		c1.781-5.973-6.86-13.828-19.313-17.548C438.43,182.385,426.897,184.208,425.106,190.172z"/>
	<path fill="#4A9B16" d="M527.911,233.514c-1.267,4.268,6.546,4.234,15.401,6.869c8.857,2.659,15.401,6.984,16.663,2.733
		c1.282-4.259-4.88-9.843-13.738-12.503C537.381,227.971,529.17,229.264,527.911,233.514z"/>
	<path fill="#4A9B16" d="M486.833,196.793c-2.015,3.968,5.7,5.319,13.952,9.478c8.269,4.177,13.936,9.579,15.934,5.618
		c2.012-3.968-3.065-10.538-11.326-14.714C497.14,193.006,488.83,192.841,486.833,196.793z"/>
	<path fill="#4A9B16" d="M403.987,165.865c-0.189,4.44,7.391,2.468,16.612,2.834c9.237,0.389,16.661,2.949,16.837-1.492
		c0.174-4.433-7.176-8.318-16.413-8.7C411.792,158.142,404.152,161.431,403.987,165.865z"/>
	<path fill="#4A9B16" d="M451.637,151.556c-1.922,4.009,5.809,5.202,14.118,9.188c8.352,4.009,14.117,9.313,16.056,5.303
		c1.923-4.002-3.289-10.48-11.615-14.491C461.852,147.569,453.525,147.562,451.637,151.556z"/>
	<circle fill="#4A9B16" cx="486.013" cy="183.918" r="4.855"/>
	<path fill="#4A9B16" d="M529.759,206.695c0,2.062,1.65,3.735,3.703,3.735c2.08,0,3.737-1.674,3.737-3.735
		c0-2.063-1.656-3.729-3.737-3.729C531.416,202.959,529.759,204.632,529.759,206.695z"/>
	<circle fill="#4A9B16" cx="553.289" cy="263.822" r="6.346"/>
	<circle fill="#4A9B16" cx="491.273" cy="227.971" r="4.847"/>
	<circle fill="#4A9B16" cx="408.743" cy="148.439" r="2.246"/>
	<circle fill="#4A9B16" cx="452.448" cy="171.962" r="4.109"/>
	<circle fill="#4A9B16" cx="402.404" cy="194.374" r="3.356"/>
</g>
<circle fill="#3E9311" cx="390.4" cy="472.869" r="8.932"/>
</svg>
