<?xml version="1.0" encoding="utf-8"?>
<!-- Generator: Adobe Illustrator 16.0.0, SVG Export Plug-In . SVG Version: 6.00 Build 0)  -->
<!DOCTYPE svg PUBLIC "-//W3C//DTD SVG 1.1//EN" "http://www.w3.org/Graphics/SVG/1.1/DTD/svg11.dtd">
<svg version="1.1" id="Capa_1" xmlns="http://www.w3.org/2000/svg" xmlns:xlink="http://www.w3.org/1999/xlink" x="0px" y="0px"
	 width="792px" height="792px" viewBox="-90 0 792 792" enable-background="new -90 0 792 792" xml:space="preserve">
<g>
	<g>
		<path fill="#EFC9B3" d="M306.005,606.779c0,81.031,93.102,118.331,102.897,47.384c4.353-31.497,33.297-15.732,47.445-45.141
			c7.666-15.938,3.591-28.853,19.025-36.766c28.462-14.611,48.701-56.191,46.716-88.954c-1.07-17.76,28.729-46.91,38.268-61.738
			c17.574-27.35,17.574-65.257,0-92.607c-9.528-14.828-14.107-43.978-13.027-61.738c1.986-32.762-15.239-67.706-43.7-82.317l0,0
			c-15.435-7.923-27.937-4.641-35.603-20.58c-14.148-29.397-27.391-32.917-59.114-30.869c-17.193,1.111-24.87-30.632-51.448-30.632
			c-0.144,0-0.206-0.237-0.35-0.237c-27.525,0-51.099,14.869-51.099,30.869v473.326H306.005z"/>
		<path fill="#CF8C6D" d="M372.888,702c-1.132,0-2.253-0.041-3.375-0.113c-35.644-2.449-73.808-41.262-73.808-95.118V133.443
			c0-22.308,28.111-41.159,61.389-41.159l5.196,0.515c16.145,1.862,26.342,12.749,33.966,20.909
			c4.435,4.733,8.736,10.074,11.967,9.466c34.471-2.233,52.632,2.542,69.055,36.673c3.117,6.472,6.523,7.46,14.766,9.837
			c4.784,1.378,10.218,2.942,16.268,6.05c31.322,16.083,51.582,53.949,49.277,92.092c-0.987,16.34,3.457,43.166,11.422,55.544
			c19.622,30.54,19.622,73.201,0,103.741c-3.035,4.712-7.48,10.196-12.626,16.556c-9.178,11.339-24.551,30.303-24.026,38.987
			c2.336,38.442-21.124,82.74-52.292,98.74c-5.607,2.881-6.555,5.793-8.674,14.611c-1.173,4.877-2.635,10.938-5.772,17.462
			c-8.469,17.605-21.753,22.647-31.456,26.352c-9.631,3.653-13.613,5.176-15.074,15.733C414.346,689.931,392.717,702,372.888,702z
			 M352.628,113.018c-21.331,1.41-36.333,12.667-36.333,20.425v473.326c0,45.614,32.31,73.058,54.639,74.591
			c15.084,0.751,25.086-9.117,27.771-28.605c3.128-22.638,17.585-28.143,28.143-32.155c8.551-3.252,15.311-5.824,20.219-16.042
			c2.182-4.538,3.262-9.034,4.312-13.377c2.346-9.724,5.011-20.765,19.283-28.08c23.738-12.183,42.959-49.185,41.148-79.18
			c-1.009-16.669,14.704-36.075,28.574-53.197c4.568-5.639,8.88-10.959,11.298-14.734c15.425-23.986,15.425-57.489,0-81.474
			c-10.732-16.69-15.877-47.642-14.642-67.933c1.8-29.768-14.231-60.267-38.134-72.542c-4.271-2.191-8.5-3.406-12.574-4.589
			c-9.61-2.778-20.497-5.917-27.597-20.683c-11.885-24.685-20.467-26.876-49.185-25.065c-12.533,0.597-20.981-8.098-28.328-15.949
			c-8.53-9.127-14.385-14.663-23.779-14.663L352.628,113.018z"/>
	</g>
	<g>
		<path fill="#EFC9B3" d="M306.005,606.779c0,81.031-93.101,118.331-102.896,47.384c-4.353-31.497-33.298-15.732-47.446-45.141
			c-7.666-15.938-3.591-28.853-19.026-36.766c-28.461-14.611-48.701-56.191-46.715-88.954c1.07-17.76-28.729-46.91-38.267-61.738
			c-17.575-27.35-17.575-65.257,0-92.607c9.528-14.828,14.107-43.978,13.027-61.738c-1.986-32.762,15.239-67.706,43.7-82.317l0,0
			c15.435-7.923,27.937-4.641,35.603-20.58c14.148-29.397,27.391-32.917,59.114-30.869c17.194,1.111,24.87-26.578,51.448-30.632
			c0.134-0.021,0.227-0.154,0.35-0.237c14.91-10.104,51.099,14.869,51.099,30.869v473.326H306.005z"/>
		<path fill="#CF8C6D" d="M239.112,702c-19.828,0-41.457-12.069-46.201-46.438c-1.461-10.557-5.443-12.08-15.074-15.732
			c-9.693-3.684-22.977-8.746-31.445-26.353c-3.139-6.523-4.6-12.595-5.783-17.461c-2.13-8.809-3.066-11.73-8.674-14.611
			c-31.157-16.001-54.618-60.288-52.292-98.74c0.525-8.685-14.848-27.659-24.026-38.987c-5.145-6.359-9.59-11.844-12.625-16.557
			c-19.623-30.54-19.623-73.201,0-103.741c7.964-12.378,12.41-39.214,11.422-55.543c-2.315-38.144,17.955-76.021,49.277-92.093
			c6.04-3.107,11.473-4.672,16.268-6.05c8.242-2.377,11.648-3.365,14.756-9.837c16.433-34.11,34.573-38.885,69.054-36.673
			c3.427,0.412,7.183-3.365,13.181-9.302c7.594-7.511,17.863-17.688,33.895-20.847c9.127-5.001,21.865-3.756,35.468,3.457
			c14.931,7.923,29.994,22.421,29.994,36.971v473.325c0,53.856-38.164,92.67-73.808,95.118C241.365,701.959,240.244,702,239.112,702
			z M189.752,143.218c-18.954,0-26.579,4.949-36.498,25.56c-7.09,14.766-17.987,17.904-27.597,20.682
			c-4.075,1.184-8.304,2.397-12.574,4.589c-23.893,12.265-39.934,42.774-38.133,72.542c1.235,20.291-3.91,51.232-14.642,67.933
			c-15.424,23.985-15.424,57.488,0,81.474c2.418,3.766,6.729,9.096,11.298,14.734c13.871,17.122,29.583,36.529,28.575,53.198
			c-1.811,29.994,17.41,67.007,41.148,79.179c14.271,7.326,16.937,18.357,19.283,28.081c1.049,4.342,2.13,8.828,4.322,13.376
			c4.908,10.208,11.668,12.78,20.219,16.042c10.557,4.013,25.024,9.519,28.142,32.155c2.686,19.499,12.574,29.388,27.772,28.605
			c22.329-1.533,54.638-28.976,54.638-74.59V133.453c0-3.066-7.233-12.522-19.057-18.789c-8.098-4.291-13.634-4.609-15.609-3.755
			l-1.605,1.481l-3.385,0.628c-10.619,1.615-17.431,8.365-24.644,15.496c-7.594,7.522-16.196,16.021-28.986,15.218
			C197.696,143.403,193.498,143.218,189.752,143.218z"/>
	</g>
	<path fill="#CF8C6D" d="M460.351,596.489c-5.68,0-10.29-4.6-10.29-10.289c0-28.369-23.079-51.449-51.448-51.449
		c-5.68,0-10.29-4.599-10.29-10.289s4.61-10.29,10.29-10.29c39.718,0,72.028,32.32,72.028,72.028
		C470.641,591.88,466.03,596.489,460.351,596.489z"/>
	<path fill="#CF8C6D" d="M151.66,596.489c-5.68,0-10.29-4.6-10.29-10.289c0-39.708,32.31-72.028,72.028-72.028
		c5.68,0,10.29,4.6,10.29,10.29s-4.61,10.289-10.29,10.289c-28.369,0-51.449,23.08-51.449,51.449
		C161.949,591.88,157.34,596.489,151.66,596.489z"/>
	<path fill="#CF8C6D" d="M429.481,226.061c-5.68,0-10.29-4.6-10.29-10.29c0-28.369,23.08-51.449,51.449-51.449
		c5.68,0,10.289,4.6,10.289,10.29c0,5.69-4.609,10.29-10.289,10.29c-17.02,0-30.869,13.85-30.869,30.869
		C439.771,221.451,435.161,226.061,429.481,226.061z"/>
	<path fill="#CF8C6D" d="M192.818,236.35c-5.68,0-10.29-4.599-10.29-10.29c0-22.699-18.459-41.159-41.159-41.159
		c-5.68,0-10.29-4.6-10.29-10.29c0-5.69,4.609-10.29,10.29-10.29c34.048,0,61.738,27.69,61.738,61.738
		C203.108,231.74,198.499,236.35,192.818,236.35z"/>
	<path fill="#CF8C6D" d="M522.089,483.303c-5.68,0-10.29-4.6-10.29-10.289c0-34.049-27.689-61.738-61.738-61.738
		c-45.388,0-82.317-36.93-82.317-82.318c0-5.69,4.61-10.29,10.29-10.29s10.289,4.6,10.289,10.29
		c0,34.048,27.69,61.738,61.738,61.738c45.388,0,82.317,36.929,82.317,82.318C532.378,478.693,527.769,483.303,522.089,483.303z"/>
	<g>
		<path fill="#F7E1D5" d="M306.005,215.771c-45.388,0-82.317,36.93-82.317,82.317c0,34.049-27.689,61.738-61.738,61.738
			c-5.68,0-10.29,4.6-10.29,10.29c0,5.69,4.61,10.29,10.29,10.29c45.388,0,82.318-36.93,82.318-82.317
			c0-34.048,27.689-61.738,61.738-61.738c5.681,0,10.29-4.599,10.29-10.29S311.686,215.771,306.005,215.771z"/>
		<path fill="#F7E1D5" d="M270.372,376.661c-4.023-4.023-10.526-4.023-14.55,0c-14.086,14.076-21.845,32.803-21.845,52.694
			c0,16.658,5.505,32.443,15.537,45.418c-10.032,12.976-15.537,28.771-15.537,45.419c0,19.9,7.758,38.617,21.845,52.693
			c2.006,2.007,4.641,3.015,7.275,3.015s5.268-1.008,7.275-3.015c4.023-4.023,4.023-10.526,0-14.55
			c-10.197-10.196-15.815-23.748-15.815-38.144s5.618-27.947,15.815-38.144c4.023-4.023,4.023-10.526,0-14.55
			c-10.197-10.197-15.815-23.749-15.815-38.145c0-14.395,5.618-27.946,15.815-38.144
			C274.385,387.197,274.385,380.684,270.372,376.661z"/>
		<path fill="#F7E1D5" d="M370.059,411.059c-4.023-4.022-10.526-4.022-14.55,0c-4.023,4.023-4.023,10.526,0,14.55
			c19.118,19.129,19.118,50.255,0,69.384c-13.16,13.16-20.415,30.652-20.415,49.236c0,18.583,7.255,36.075,20.415,49.236
			c2.007,2.006,4.641,3.015,7.274,3.015c2.635,0,5.269-1.009,7.275-3.015c4.023-4.023,4.023-10.527,0-14.55
			c-9.271-9.271-14.385-21.599-14.385-34.687c0-13.089,5.113-25.416,14.385-34.687C397.203,482.397,397.203,438.214,370.059,411.059
			z"/>
		<path fill="#F7E1D5" d="M489.316,313.204c-26.579,4.661-52.128-13.191-56.81-39.832c-3.221-18.326-13.377-34.306-28.596-44.976
			c-15.218-10.67-33.709-14.776-52.034-11.566c-5.598,0.988-9.344,6.318-8.355,11.916c0.987,5.598,6.308,9.281,11.915,8.366
			c12.944-2.326,25.94,0.627,36.662,8.129c10.723,7.521,17.874,18.779,20.147,31.692c5.938,33.761,35.396,57.612,68.57,57.612
			c3.982,0,8.016-0.35,12.07-1.06c5.598-0.988,9.343-6.318,8.355-11.916C500.254,315.972,494.955,312.237,489.316,313.204z"/>
		<path fill="#F7E1D5" d="M140.032,324.564c16.927,0,32.876-10.414,39.07-27.196c1.965-5.34-0.751-11.257-6.082-13.222
			c-5.32-1.955-11.257,0.761-13.222,6.091c-4.023,10.887-16.145,16.464-27,12.44c-21.505-7.902-45.48,3.118-53.424,24.623
			c-1.965,5.34,0.762,11.257,6.092,13.222c1.173,0.432,2.377,0.638,3.56,0.638c4.188,0,8.119-2.572,9.652-6.719
			c4.013-10.876,16.093-16.484,27-12.44C130.412,323.73,135.258,324.564,140.032,324.564z"/>
		<path fill="#F7E1D5" d="M172.805,482.037c-10.866-4.003-16.453-16.113-12.451-26.979v-0.011
			c7.944-21.516-3.107-45.479-24.623-53.434c-5.31-1.945-11.257,0.761-13.222,6.091c-1.965,5.341,0.751,11.257,6.081,13.223
			c10.876,4.013,16.463,16.124,12.451,26.99c0,0.01,0,0.021,0,0.021c-7.923,21.495,3.118,45.46,24.623,53.413
			c1.173,0.433,2.377,0.639,3.57,0.639c4.188,0,8.119-2.572,9.652-6.72C180.862,489.93,178.135,484.023,172.805,482.037z"/>
	</g>
</g>
</svg>
