<?xml version="1.0" encoding="utf-8"?>
<!-- Generator: Adobe Illustrator 16.0.0, SVG Export Plug-In . SVG Version: 6.00 Build 0)  -->
<!DOCTYPE svg PUBLIC "-//W3C//DTD SVG 1.1//EN" "http://www.w3.org/Graphics/SVG/1.1/DTD/svg11.dtd">
<svg version="1.1" id="Capa_1" xmlns="http://www.w3.org/2000/svg" xmlns:xlink="http://www.w3.org/1999/xlink" x="0px" y="0px"
	 width="792px" height="792px" viewBox="-90 0 792 792" enable-background="new -90 0 792 792" xml:space="preserve">
<g>
	<circle fill="#FBD971" cx="306" cy="396" r="306"/>
	<path fill="#F29C1F" d="M116.571,373.924c-3.73,0-7.46-1.428-10.302-4.27c-5.698-5.697-5.698-14.907,0-20.604l123.639-123.639
		c5.697-5.697,14.906-5.697,20.604,0c5.697,5.698,5.697,14.907,0,20.604L126.874,369.655
		C124.032,372.511,120.302,373.924,116.571,373.924z"/>
	<path fill="#F29C1F" d="M240.21,373.924c-3.73,0-7.46-1.428-10.302-4.27L106.27,246.016c-5.697-5.697-5.697-14.906,0-20.604
		c5.697-5.697,14.906-5.697,20.604,0l123.639,123.639c5.697,5.697,5.697,14.907,0,20.604
		C247.67,372.511,243.94,373.924,240.21,373.924z"/>
	<path fill="#F29C1F" d="M371.79,373.924c-3.73,0-7.461-1.428-10.302-4.27c-5.697-5.697-5.697-14.907,0-20.604l123.639-123.639
		c5.697-5.697,14.906-5.697,20.604,0c5.697,5.698,5.697,14.907,0,20.604L382.092,369.655
		C379.236,372.511,375.521,373.924,371.79,373.924z"/>
	<path fill="#F29C1F" d="M495.429,373.924c-3.73,0-7.461-1.428-10.302-4.27L361.488,246.016c-5.697-5.697-5.697-14.906,0-20.604
		c5.697-5.697,14.906-5.697,20.604,0L505.73,349.051c5.697,5.697,5.697,14.907,0,20.604
		C502.889,372.511,499.159,373.924,495.429,373.924z"/>
	<g>
		<path fill="#FB7B76" d="M306,468.857v113.672c0,32.057,26.229,58.285,58.286,58.285h14.571c32.057,0,58.285-26.229,58.285-58.285
			V468.857C412.255,469.163,332.403,468.857,306,468.857z"/>
	</g>
	<path fill="#E64C3C" d="M372.053,565.188c-8.059,0-14.572-6.513-14.572-14.571v-2.404c0.015-37.332-1.034-60.398-3.133-68.704
		c-2.841-2.638-4.634-6.44-4.634-10.651c0-8.059,6.514-14.571,14.572-14.571c18.812,0,20.225,24.349,21.361,43.903
		c0.991,17.092,0.977,36.924,0.977,50.053v2.39C386.624,558.676,380.11,565.188,372.053,565.188z"/>
	<path fill="#F0C419" d="M451.714,483.429H131.143c-8.058,0-14.572-6.514-14.572-14.571c0-8.059,6.514-14.571,14.572-14.571h320.571
		c8.059,0,14.572,6.513,14.572,14.571C466.286,476.915,459.772,483.429,451.714,483.429z"/>
</g>
</svg>
