<?xml version="1.0" encoding="utf-8"?>
<!-- Generator: Adobe Illustrator 16.0.0, SVG Export Plug-In . SVG Version: 6.00 Build 0)  -->
<!DOCTYPE svg PUBLIC "-//W3C//DTD SVG 1.1//EN" "http://www.w3.org/Graphics/SVG/1.1/DTD/svg11.dtd">
<svg version="1.1" id="Layer_1" xmlns="http://www.w3.org/2000/svg" xmlns:xlink="http://www.w3.org/1999/xlink" x="0px" y="0px"
	 width="600px" height="600px" viewBox="96 96 600 600" enable-background="new 96 96 600 600" xml:space="preserve">
<path fill="#E2574C" d="M337.855,503.826v-35.902l-100.012,28.211c0,0,7.265-42.742,59.41-57.699
	c15.814-4.275,29.49-4.275,40.603-2.139V288.415h50.007c-5.557-16.668-10.686-29.918-14.96-38.894
	c-7.266-14.96-14.959-5.129-31.628,9.403c-11.968,9.831-42.313,31.629-88.045,43.595c-45.733,12.395-82.489,8.976-97.876,6.411
	c-21.797-3.847-33.337-8.549-32.055,8.121c0.856,14.532,4.274,37.185,12.396,67.531c17.096,64.966,73.94,190.195,181.647,161.13
	c28.208-7.693,48.297-22.652,61.974-41.885L337.855,503.826L337.855,503.826z M176.724,385.436l76.505-20.088
	c0,0-2.137,29.49-30.774,37.184C193.82,409.797,176.724,385.436,176.724,385.436z"/>
<path fill="#EFC75E" d="M627.209,291.407c-20.516,3.419-69.24,8.121-129.504-8.121s-100.44-44.45-116.255-57.7
	c-22.652-18.806-32.482-31.629-41.885-11.968c-8.548,17.524-19.661,45.733-30.346,85.48
	c-23.081,85.909-40.177,267.128,102.149,305.167c142.755,38.039,218.404-127.367,241.483-213.274
	c10.685-39.75,15.386-69.667,16.67-88.901C671.231,279.866,656.273,286.278,627.209,291.407z M340.848,362.783
	c0,0,22.652-35.474,61.119-24.361c38.466,11.112,41.458,53.426,41.458,53.426L340.848,362.783z M434.022,518.785
	c-67.103-19.66-77.359-73.086-77.359-73.086L536.6,495.705C536.6,496.133,500.27,538.018,434.022,518.785z M498.987,409.797
	c0,0,21.797-35.046,58.555-24.361c36.758,11.111,39.749,53.426,39.749,53.426L498.987,409.797z"/>
<path fill="#DCB757" d="M439.151,520.068l-5.129-1.283c-67.103-19.66-77.359-73.086-77.359-73.086l94.885,26.498l48.722-188.485
	c-0.854-0.427-1.709-0.427-2.563-0.427c-60.264-16.241-100.44-44.451-116.255-57.7c-22.652-18.806-32.482-31.628-41.885-11.968
	c-8.548,17.525-19.661,45.733-30.346,85.481c-22.226,82.489-38.893,252.596,86.336,300.037l21.37,6.412L439.151,520.068
	L439.151,520.068z M340.848,362.783c0,0,22.652-35.474,61.119-24.361c38.466,11.112,41.458,53.426,41.458,53.426L340.848,362.783z"
	/>
<path fill="#D05046" d="M302.381,478.182l-64.539,18.379c0,0,6.839-40.178,54.28-55.99L255.365,302.52
	c-0.855,0.427-1.71,0.427-2.992,0.856c-45.733,12.395-82.488,8.976-97.875,6.411c-21.798-3.847-33.338-8.549-32.056,8.121
	c0.856,14.532,4.274,37.185,12.395,67.531c17.952,64.11,74.796,189.341,182.502,160.276l2.565-0.855
	C319.906,544.857,302.381,478.182,302.381,478.182z M176.724,385.436l76.505-20.088c0,0-2.137,29.49-30.774,37.184
	C193.82,409.797,176.724,385.436,176.724,385.436z"/>
</svg>
