<?xml version="1.0" encoding="utf-8"?>
<!-- Generator: Adobe Illustrator 16.0.0, SVG Export Plug-In . SVG Version: 6.00 Build 0)  -->
<!DOCTYPE svg PUBLIC "-//W3C//DTD SVG 1.1//EN" "http://www.w3.org/Graphics/SVG/1.1/DTD/svg11.dtd">
<svg version="1.1" id="Layer_1" xmlns="http://www.w3.org/2000/svg" xmlns:xlink="http://www.w3.org/1999/xlink" x="0px" y="0px"
	 width="792px" height="792px" viewBox="-90 0 792 792" enable-background="new -90 0 792 792" xml:space="preserve">
<path fill="#E2574C" d="M240.983,504.478v-40.146l-111.834,31.544c0,0,8.124-47.793,66.432-64.52
	c17.683-4.779,32.976-4.779,45.402-2.39V263.603H296.9c-6.213-18.639-11.948-33.455-16.728-43.491
	c-8.125-16.728-16.728-5.735-35.367,10.515c-13.382,10.992-47.315,35.367-98.452,48.748c-51.139,13.86-92.239,10.037-109.445,7.169
	c-24.374-4.302-37.278-9.559-35.844,9.081c0.957,16.25,4.779,41.58,13.861,75.513c19.117,72.645,82.68,212.677,203.118,180.177
	c31.543-8.603,54.006-25.33,69.3-46.836L240.983,504.478L240.983,504.478z M60.805,372.092l85.548-22.462
	c0,0-2.389,32.976-34.411,41.58C79.922,399.333,60.805,372.092,60.805,372.092z"/>
<path fill="#EFC75E" d="M564.538,266.949c-22.94,3.824-77.424,9.081-144.811-9.081s-112.313-49.704-129.996-64.52
	c-25.33-21.028-36.322-35.367-46.836-13.382c-9.559,19.595-21.985,51.139-33.933,95.584
	c-25.809,96.063-44.926,298.703,114.224,341.238c159.628,42.535,244.22-142.421,270.027-238.484
	c11.948-44.448,17.205-77.902,18.64-99.409C613.765,254.044,597.038,261.214,564.538,266.949z M244.329,346.762
	c0,0,25.33-39.667,68.343-27.241c43.013,12.426,46.358,59.741,46.358,59.741L244.329,346.762z M348.517,521.205
	c-75.034-21.985-86.504-81.726-86.504-81.726l201.206,55.917C463.219,495.874,422.595,542.711,348.517,521.205z M421.16,399.333
	c0,0,24.374-39.189,65.477-27.241c41.102,12.426,44.447,59.741,44.447,59.741L421.16,399.333z"/>
<path fill="#DCB757" d="M354.252,522.639l-5.735-1.434c-75.034-21.985-86.504-81.726-86.504-81.726l106.1,29.63l54.482-210.764
	c-0.956-0.478-1.911-0.478-2.867-0.478c-67.387-18.161-112.313-49.705-129.996-64.52c-25.33-21.029-36.322-35.367-46.836-13.383
	c-9.559,19.596-21.985,51.139-33.933,95.585c-24.853,92.239-43.491,282.454,96.541,335.503l23.896,7.17L354.252,522.639
	L354.252,522.639z M244.329,346.762c0,0,25.33-39.667,68.343-27.241c43.013,12.426,46.358,59.741,46.358,59.741L244.329,346.762z"/>
<path fill="#D05046" d="M201.315,475.802l-72.167,20.551c0,0,7.647-44.926,60.696-62.608l-41.102-154.37
	c-0.957,0.478-1.912,0.478-3.346,0.957c-51.139,13.86-92.239,10.037-109.445,7.169c-24.374-4.302-37.278-9.559-35.844,9.081
	c0.957,16.25,4.779,41.58,13.86,75.513c20.074,71.689,83.637,211.721,204.074,179.221l2.868-0.956
	C220.911,550.358,201.315,475.802,201.315,475.802z M60.805,372.092l85.548-22.462c0,0-2.389,32.976-34.411,41.58
	C79.922,399.333,60.805,372.092,60.805,372.092z"/>
</svg>
