<?xml version="1.0" encoding="iso-8859-1"?>
<!-- Generator: Adobe Illustrator 19.0.0, SVG Export Plug-In . SVG Version: 6.00 Build 0)  -->
<svg version="1.1" id="Layer_1" xmlns="http://www.w3.org/2000/svg" xmlns:xlink="http://www.w3.org/1999/xlink" x="0px" y="0px"
	 viewBox="0 0 504.137 504.137" style="enable-background:new 0 0 504.137 504.137;" xml:space="preserve">
<circle style="fill:#FFB133;" cx="252.064" cy="166.335" r="117.784"/>
<path style="fill:#F49C00;" d="M369.848,166.335c0,65.048-52.736,117.768-117.784,117.768s-117.784-52.72-117.784-117.768
	c0-65.063,52.736-95.279,117.784-95.279S369.848,101.272,369.848,166.335z"/>
<g>
	<path style="fill:#F28A00;" d="M369.848,166.335c0,65.048-52.736,117.768-117.784,117.768s-117.784-52.72-117.784-117.768"/>
	<path style="fill:#F28A00;" d="M344.327,78.46c-0.827-0.819-1.339-1.953-1.339-3.214c0-6.845,2.678-13.296,7.522-18.141
		s11.296-7.522,18.156-7.522c2.489,0.016,4.521,2.032,4.521,4.521c0,2.521-2.032,4.537-4.521,4.537
		c-4.443,0-8.617,1.725-11.737,4.86c-3.135,3.135-4.876,7.294-4.876,11.737c0,2.505-2.017,4.537-4.521,4.537
		C346.28,79.783,345.138,79.271,344.327,78.46z"/>
	<path style="fill:#F28A00;" d="M159.802,254.21c0.819,0.827,1.339,1.953,1.339,3.198c0,6.845-2.678,13.32-7.507,18.141
		c-4.86,4.86-11.311,7.522-18.156,7.522c-2.521,0-4.553-2.016-4.553-4.537c0-2.473,2.032-4.521,4.553-4.521
		c4.427,0,8.602-1.725,11.737-4.86c3.111-3.119,4.844-7.294,4.844-11.737c0-2.505,2.032-4.521,4.537-4.521
		C157.849,252.895,158.991,253.399,159.802,254.21z"/>
	<path style="fill:#F28A00;" d="M255.16,38.965c-1.15,0-2.324-0.449-3.198-1.339c-4.86-4.844-7.522-11.296-7.522-18.141
		c0-6.861,2.662-13.32,7.522-18.156c1.772-1.772,4.632-1.772,6.396,0c1.757,1.772,1.757,4.632,0,6.396
		c-3.119,3.151-4.86,7.326-4.86,11.752s1.741,8.586,4.86,11.737c1.757,1.772,1.757,4.632,0,6.396
		C257.484,38.524,256.326,38.965,255.16,38.965z"/>
	<path style="fill:#F28A00;" d="M248.953,293.705c1.166,0,2.324,0.449,3.214,1.323c4.844,4.844,7.507,11.296,7.507,18.156
		c0,6.861-2.662,13.296-7.507,18.141c-1.772,1.788-4.632,1.788-6.396,0c-1.788-1.757-1.788-4.632,0-6.388
		c3.119-3.151,4.844-7.326,4.844-11.752c0-4.427-1.725-8.617-4.844-11.752c-1.788-1.772-1.788-4.632,0-6.396
		C246.645,294.154,247.803,293.705,248.953,293.705z"/>
	<path style="fill:#F28A00;" d="M379.434,169.415c0-1.142,0.449-2.292,1.323-3.182c4.844-4.844,11.311-7.522,18.141-7.522
		c6.877,0,13.32,2.678,18.156,7.522c1.772,1.772,1.788,4.647,0,6.396c-1.757,1.772-4.616,1.772-6.396,0
		c-3.135-3.135-7.31-4.844-11.752-4.844c-4.419,0-8.602,1.709-11.721,4.844c-1.772,1.772-4.647,1.772-6.412,0
		C379.883,171.754,379.45,170.596,379.434,169.415z"/>
	<path style="fill:#F28A00;" d="M124.663,163.247c0,1.15-0.433,2.324-1.308,3.198c-4.829,4.86-11.28,7.522-18.141,7.522
		s-13.304-2.662-18.156-7.522c-1.772-1.788-1.772-4.647,0-6.396c1.772-1.788,4.632-1.788,6.396,0c3.151,3.119,7.31,4.86,11.752,4.86
		c4.419,0,8.602-1.741,11.721-4.86c1.772-1.788,4.647-1.788,6.412,0C124.23,160.924,124.663,162.089,124.663,163.247z"/>
	<path style="fill:#F28A00;" d="M339.939,258.582c0.819-0.819,1.938-1.308,3.182-1.308c6.861-0.016,13.32,2.662,18.172,7.491
		c4.844,4.876,7.507,11.327,7.507,18.172c0,2.473-2.032,4.521-4.521,4.521c-2.505,0-4.521-2.017-4.521-4.521
		c0-4.443-1.741-8.602-4.876-11.752c-3.135-3.119-7.31-4.86-11.752-4.86c-2.489,0-4.521-2.017-4.521-4.521
		C338.616,260.551,339.128,259.417,339.939,258.582z"/>
	<path style="fill:#F28A00;" d="M164.158,74.073c-0.803,0.819-1.938,1.323-3.182,1.323c-6.845,0.032-13.304-2.662-18.141-7.491
		c-4.86-4.86-7.538-11.296-7.538-18.172c0-2.505,2.032-4.521,4.553-4.521c2.473,0,4.521,2.016,4.521,4.521
		c0,4.443,1.741,8.602,4.86,11.768c3.135,3.119,7.294,4.844,11.737,4.829c2.505,0,4.537,2.048,4.537,4.521
		C165.513,72.119,164.985,73.261,164.158,74.073z"/>
	<path style="fill:#F28A00;" d="M191.066,54.491c-1,0.567-2.229,0.756-3.458,0.449c-6.617-1.788-12.154-6.034-15.573-11.957
		c-3.434-5.939-4.356-12.863-2.568-19.48c0.63-2.434,3.119-3.86,5.553-3.214c2.418,0.646,3.844,3.135,3.198,5.537
		c-1.166,4.309-0.551,8.799,1.646,12.635c2.213,3.828,5.797,6.569,10.09,7.719c2.418,0.63,3.828,3.135,3.214,5.537
		C192.83,52.939,192.05,53.908,191.066,54.491z"/>
	<path style="fill:#F28A00;" d="M313.063,278.195c1-0.583,2.229-0.788,3.45-0.449c6.601,1.757,12.154,6.018,15.573,11.941
		c3.434,5.955,4.356,12.879,2.584,19.495c-0.662,2.418-3.167,3.844-5.569,3.198c-2.402-0.662-3.844-3.135-3.198-5.553
		c1.15-4.293,0.536-8.767-1.662-12.603c-2.213-3.844-5.782-6.585-10.075-7.735c-2.418-0.63-3.86-3.119-3.214-5.537
		C311.283,279.739,312.063,278.77,313.063,278.195z"/>
	<path style="fill:#F28A00;" d="M363.909,105.32c-0.567-0.985-0.772-2.213-0.449-3.434c1.772-6.617,6.034-12.154,11.957-15.588
		c5.955-3.434,12.847-4.34,19.48-2.552c2.418,0.662,3.844,3.119,3.214,5.537c-0.662,2.434-3.135,3.86-5.569,3.198
		c-4.277-1.142-8.751-0.551-12.572,1.662c-3.875,2.213-6.632,5.797-7.767,10.09c-0.63,2.434-3.119,3.86-5.537,3.198
		C365.453,107.124,364.508,106.336,363.909,105.32z"/>
	<path style="fill:#F28A00;" d="M140.189,227.35c0.614,1,0.772,2.229,0.465,3.434c-1.772,6.617-6.034,12.17-11.926,15.588
		c-5.986,3.434-12.879,4.34-19.527,2.552c-2.418-0.63-3.844-3.119-3.167-5.537c0.63-2.418,3.096-3.86,5.537-3.198
		c4.277,1.15,8.751,0.567,12.603-1.662c3.828-2.213,6.569-5.782,7.719-10.075c0.646-2.418,3.119-3.86,5.553-3.214
		C138.668,225.569,139.606,226.349,140.189,227.35z"/>
	<path style="fill:#F28A00;" d="M374.283,202.309c0.291-1.111,1.032-2.135,2.127-2.757c5.923-3.434,12.847-4.34,19.48-2.568
		c6.617,1.788,12.17,6.034,15.573,11.957c1.245,2.166,0.536,4.939-1.646,6.199c-2.166,1.26-4.923,0.504-6.183-1.662
		c-2.213-3.844-5.782-6.585-10.09-7.751c-4.277-1.142-8.751-0.567-12.603,1.678c-2.182,1.245-4.939,0.504-6.183-1.662
		C374.125,204.648,373.991,203.412,374.283,202.309z"/>
	<path style="fill:#F28A00;" d="M129.815,130.369c-0.291,1.126-1.032,2.135-2.111,2.773c-5.923,3.45-12.879,4.34-19.448,2.568
		c-6.664-1.772-12.186-6.018-15.612-11.973c-1.26-2.166-0.504-4.939,1.662-6.183c2.166-1.245,4.923-0.52,6.199,1.662
		c2.213,3.828,5.766,6.585,10.09,7.735c4.261,1.15,8.736,0.567,12.572-1.678c2.166-1.245,4.939-0.504,6.183,1.678
		C129.972,128.03,130.114,129.258,129.815,130.369z"/>
</g>
<path id="SVGCleanerId_0" style="fill:#F28A00;" d="M143.276,99.98c-0.567,1-1.536,1.772-2.757,2.111
	c-6.617,1.772-13.525,0.859-19.464-2.568c-5.939-3.426-10.185-8.972-11.957-15.588c-0.662-2.418,0.788-4.907,3.182-5.553
	c2.45-0.646,4.907,0.803,5.553,3.198c1.15,4.293,3.907,7.877,7.751,10.09c3.812,2.213,8.31,2.796,12.603,1.662
	c2.402-0.646,4.892,0.803,5.553,3.198C144.08,97.735,143.867,98.964,143.276,99.98z"/>
<path id="SVGCleanerId_1" style="fill:#F28A00;" d="M360.805,232.706c0.583-0.985,1.552-1.804,2.773-2.095
	c6.617-1.812,13.54-0.874,19.448,2.552c5.971,3.434,10.216,8.972,11.981,15.588c0.662,2.418-0.788,4.923-3.214,5.537
	c-2.418,0.63-4.892-0.772-5.537-3.198c-1.166-4.293-3.923-7.861-7.751-10.09c-3.812-2.213-8.31-2.796-12.603-1.662
	c-2.402,0.662-4.876-0.772-5.537-3.182C360.033,234.935,360.23,233.706,360.805,232.706z"/>
<path id="SVGCleanerId_2" style="fill:#F28A00;" d="M318.404,57.586c-0.985-0.567-1.772-1.536-2.079-2.757
	c-1.788-6.617-0.874-13.54,2.568-19.48c3.434-5.939,8.956-10.169,15.557-11.957c2.434-0.646,4.923,0.788,5.569,3.198
	c0.614,2.434-0.803,4.907-3.214,5.537c-4.277,1.142-7.861,3.907-10.075,7.735c-2.229,3.844-2.828,8.326-1.662,12.619
	c0.646,2.434-0.788,4.907-3.198,5.553C320.649,58.366,319.436,58.153,318.404,57.586z"/>
<path id="SVGCleanerId_3" style="fill:#F28A00;" d="M185.694,275.107c1,0.567,1.772,1.552,2.095,2.757
	c1.804,6.617,0.874,13.556-2.552,19.448c-3.45,5.971-8.956,10.216-15.588,11.981c-2.434,0.646-4.907-0.772-5.553-3.214
	c-0.646-2.402,0.788-4.892,3.214-5.522c4.277-1.15,7.877-3.891,10.106-7.767c2.182-3.812,2.788-8.294,1.615-12.587
	c-0.63-2.418,0.788-4.876,3.23-5.553C183.464,274.336,184.677,274.54,185.694,275.107z"/>
<path id="SVGCleanerId_4" style="fill:#F28A00;" d="M375.898,136.371c-0.307-1.111-0.181-2.355,0.449-3.434
	c3.419-5.923,8.972-10.185,15.588-11.981c6.632-1.741,13.54-0.827,19.48,2.584c2.15,1.26,2.922,4.033,1.646,6.199
	c-1.245,2.166-4.001,2.891-6.183,1.646c-3.828-2.229-8.294-2.788-12.587-1.662c-4.293,1.15-7.877,3.875-10.106,7.751
	c-1.245,2.15-4.001,2.891-6.183,1.646C376.914,138.506,376.189,137.474,375.898,136.371z"/>
<path id="SVGCleanerId_5" style="fill:#F28A00;" d="M128.216,196.322c0.291,1.111,0.158,2.355-0.465,3.45
	c-3.419,5.939-8.972,10.201-15.557,11.941c-6.648,1.804-13.556,0.874-19.511-2.552c-2.166-1.26-2.907-4.001-1.631-6.183
	c1.229-2.166,4.001-2.922,6.183-1.662c3.812,2.229,8.279,2.812,12.603,1.646c4.261-1.126,7.861-3.86,10.043-7.719
	c1.26-2.15,4.049-2.907,6.199-1.662C127.2,194.196,127.893,195.212,128.216,196.322z"/>
<g>
	<path id="SVGCleanerId_0_1_" style="fill:#F28A00;" d="M143.276,99.98c-0.567,1-1.536,1.772-2.757,2.111
		c-6.617,1.772-13.525,0.859-19.464-2.568c-5.939-3.426-10.185-8.972-11.957-15.588c-0.662-2.418,0.788-4.907,3.182-5.553
		c2.45-0.646,4.907,0.803,5.553,3.198c1.15,4.293,3.907,7.877,7.751,10.09c3.812,2.213,8.31,2.796,12.603,1.662
		c2.402-0.646,4.892,0.803,5.553,3.198C144.08,97.735,143.867,98.964,143.276,99.98z"/>
</g>
<g>
	<path id="SVGCleanerId_1_1_" style="fill:#F28A00;" d="M360.805,232.706c0.583-0.985,1.552-1.804,2.773-2.095
		c6.617-1.812,13.54-0.874,19.448,2.552c5.971,3.434,10.216,8.972,11.981,15.588c0.662,2.418-0.788,4.923-3.214,5.537
		c-2.418,0.63-4.892-0.772-5.537-3.198c-1.166-4.293-3.923-7.861-7.751-10.09c-3.812-2.213-8.31-2.796-12.603-1.662
		c-2.402,0.662-4.876-0.772-5.537-3.182C360.033,234.935,360.23,233.706,360.805,232.706z"/>
</g>
<g>
	<path id="SVGCleanerId_2_1_" style="fill:#F28A00;" d="M318.404,57.586c-0.985-0.567-1.772-1.536-2.079-2.757
		c-1.788-6.617-0.874-13.54,2.568-19.48c3.434-5.939,8.956-10.169,15.557-11.957c2.434-0.646,4.923,0.788,5.569,3.198
		c0.614,2.434-0.803,4.907-3.214,5.537c-4.277,1.142-7.861,3.907-10.075,7.735c-2.229,3.844-2.828,8.326-1.662,12.619
		c0.646,2.434-0.788,4.907-3.198,5.553C320.649,58.366,319.436,58.153,318.404,57.586z"/>
</g>
<g>
	<path id="SVGCleanerId_3_1_" style="fill:#F28A00;" d="M185.694,275.107c1,0.567,1.772,1.552,2.095,2.757
		c1.804,6.617,0.874,13.556-2.552,19.448c-3.45,5.971-8.956,10.216-15.588,11.981c-2.434,0.646-4.907-0.772-5.553-3.214
		c-0.646-2.402,0.788-4.892,3.214-5.522c4.277-1.15,7.877-3.891,10.106-7.767c2.182-3.812,2.788-8.294,1.615-12.587
		c-0.63-2.418,0.788-4.876,3.23-5.553C183.464,274.336,184.677,274.54,185.694,275.107z"/>
</g>
<g>
	<path id="SVGCleanerId_4_1_" style="fill:#F28A00;" d="M375.898,136.371c-0.307-1.111-0.181-2.355,0.449-3.434
		c3.419-5.923,8.972-10.185,15.588-11.981c6.632-1.741,13.54-0.827,19.48,2.584c2.15,1.26,2.922,4.033,1.646,6.199
		c-1.245,2.166-4.001,2.891-6.183,1.646c-3.828-2.229-8.294-2.788-12.587-1.662c-4.293,1.15-7.877,3.875-10.106,7.751
		c-1.245,2.15-4.001,2.891-6.183,1.646C376.914,138.506,376.189,137.474,375.898,136.371z"/>
</g>
<g>
	<path id="SVGCleanerId_5_1_" style="fill:#F28A00;" d="M128.216,196.322c0.291,1.111,0.158,2.355-0.465,3.45
		c-3.419,5.939-8.972,10.201-15.557,11.941c-6.648,1.804-13.556,0.874-19.511-2.552c-2.166-1.26-2.907-4.001-1.631-6.183
		c1.229-2.166,4.001-2.922,6.183-1.662c3.812,2.229,8.279,2.812,12.603,1.646c4.261-1.126,7.861-3.86,10.043-7.719
		c1.26-2.15,4.049-2.907,6.199-1.662C127.2,194.196,127.893,195.212,128.216,196.322z"/>
</g>
<g>
	<path style="fill:#F28A00;" d="M140.22,227.365c0.583,1,0.74,2.229,0.433,3.45c-1.772,6.617-6.034,12.154-11.957,15.573
		c-5.955,3.434-12.847,4.34-19.495,2.584c-2.418-0.662-3.844-3.151-3.182-5.553c0.646-2.45,3.111-3.844,5.522-3.214
		c4.309,1.15,8.783,0.551,12.635-1.662c3.828-2.213,6.569-5.782,7.719-10.09c0.646-2.402,3.135-3.812,5.553-3.214
		C138.668,225.569,139.637,226.349,140.22,227.365z"/>
	<path style="fill:#F28A00;" d="M363.909,105.352c-0.567-1-0.788-2.245-0.417-3.45c1.741-6.632,6.002-12.154,11.91-15.573
		c5.955-3.434,12.863-4.34,19.495-2.568c2.418,0.646,3.844,3.135,3.198,5.553c-0.646,2.402-3.119,3.844-5.553,3.167
		c-4.309-1.111-8.751-0.52-12.587,1.678c-3.86,2.213-6.617,5.813-7.751,10.075c-0.614,2.418-3.119,3.844-5.537,3.23
		C365.453,107.14,364.508,106.336,363.909,105.352z"/>
	<path style="fill:#F28A00;" d="M191.05,54.506c-0.985,0.567-2.213,0.772-3.434,0.433c-6.632-1.757-12.17-6.018-15.588-11.957
		c-3.434-5.955-4.356-12.847-2.584-19.48c0.677-2.402,3.135-3.828,5.569-3.214c2.418,0.693,3.844,3.151,3.198,5.569
		c-1.166,4.277-0.551,8.767,1.662,12.603c2.198,3.844,5.782,6.601,10.075,7.735c2.434,0.646,3.86,3.119,3.214,5.553
		C192.83,52.97,192.05,53.908,191.05,54.506z"/>
	<path style="fill:#F28A00;" d="M313.063,278.211c1-0.583,2.229-0.772,3.45-0.449c6.617,1.757,12.17,6.002,15.573,11.941
		c3.434,5.955,4.356,12.863,2.552,19.48c-0.63,2.418-3.111,3.875-5.537,3.198c-2.402-0.63-3.844-3.111-3.198-5.522
		c1.166-4.293,0.583-8.783-1.646-12.642c-2.213-3.812-5.797-6.554-10.09-7.696c-2.402-0.662-3.86-3.111-3.198-5.569
		C311.283,279.755,312.079,278.802,313.063,278.211z"/>
	<path style="fill:#F28A00;" d="M288.015,44.109c-1.142-0.276-2.135-1.016-2.741-2.095c-3.45-5.939-4.34-12.863-2.584-19.495
		c1.788-6.601,6.034-12.154,11.981-15.573c2.15-1.229,4.923-0.52,6.183,1.678c1.245,2.15,0.488,4.907-1.662,6.152
		c-3.86,2.229-6.601,5.797-7.751,10.09c-1.142,4.293-0.567,8.767,1.678,12.619c1.229,2.182,0.504,4.923-1.678,6.183
		C290.37,44.29,289.11,44.416,288.015,44.109z"/>
	<path style="fill:#F28A00;" d="M216.114,288.585c1.111,0.307,2.111,1.048,2.773,2.111c3.419,5.955,4.309,12.879,2.536,19.464
		c-1.788,6.664-6.018,12.186-11.981,15.596c-2.15,1.26-4.907,0.52-6.152-1.662c-1.276-2.15-0.52-4.923,1.646-6.199
		c3.828-2.198,6.617-5.742,7.735-10.075c1.15-4.261,0.567-8.751-1.678-12.572c-1.229-2.166-0.488-4.955,1.678-6.199
		C213.743,288.427,214.988,288.293,216.114,288.585z"/>
	<path style="fill:#F28A00;" d="M185.725,275.107c0.985,0.583,1.741,1.552,2.064,2.788c1.804,6.617,0.874,13.525-2.552,19.464
		c-3.45,5.939-8.956,10.169-15.573,11.957c-2.45,0.646-4.907-0.803-5.569-3.182c-0.646-2.45,0.803-4.923,3.198-5.553
		c4.309-1.15,7.893-3.907,10.09-7.751c2.213-3.828,2.812-8.31,1.646-12.603c-0.63-2.387,0.819-4.876,3.23-5.569
		C183.464,274.336,184.709,274.54,185.725,275.107z"/>
	<path style="fill:#F28A00;" d="M318.42,57.602c-0.985-0.583-1.788-1.552-2.079-2.773c-1.804-6.617-0.859-13.54,2.521-19.448
		c3.45-5.939,8.988-10.201,15.588-11.973c2.434-0.662,4.923,0.788,5.537,3.198c0.646,2.418-0.772,4.907-3.182,5.522
		c-4.293,1.182-7.845,3.97-10.075,7.751c-2.229,3.844-2.796,8.342-1.662,12.603c0.677,2.402-0.788,4.892-3.198,5.585
		C320.665,58.366,319.436,58.153,318.42,57.602z"/>
	<path style="fill:#F28A00;" d="M143.276,100.011c-0.551,0.969-1.536,1.757-2.741,2.08c-6.601,1.788-13.525,0.874-19.48-2.568
		c-5.939-3.434-10.185-8.956-11.957-15.573c-0.646-2.418,0.803-4.907,3.182-5.569c2.45-0.599,4.907,0.819,5.553,3.23
		c1.15,4.261,3.907,7.845,7.767,10.059c3.812,2.245,8.294,2.844,12.587,1.678c2.418-0.662,4.923,0.772,5.553,3.198
		C144.096,97.766,143.867,98.979,143.276,100.011z"/>
	<path style="fill:#F28A00;" d="M360.837,232.722c0.551-0.985,1.52-1.772,2.757-2.079c6.601-1.812,13.525-0.906,19.432,2.536
		c5.971,3.434,10.216,8.956,11.981,15.588c0.662,2.418-0.788,4.907-3.214,5.522c-2.387,0.662-4.892-0.756-5.537-3.182
		c-1.142-4.309-3.86-7.877-7.719-10.122c-3.828-2.182-8.342-2.773-12.619-1.615c-2.387,0.63-4.876-0.756-5.537-3.214
		C360.049,234.951,360.262,233.722,360.837,232.722z"/>
	<path style="fill:#F28A00;" d="M222.109,42.51c-1.126,0.323-2.402,0.181-3.434-0.433c-5.955-3.434-10.201-8.972-11.997-15.596
		c-1.757-6.617-0.859-13.54,2.584-19.48c1.276-2.135,4.017-2.907,6.183-1.646c2.182,1.245,2.891,4.017,1.662,6.183
		c-2.245,3.844-2.812,8.294-1.694,12.619c1.205,4.269,3.915,7.853,7.775,10.059c2.166,1.276,2.875,4.017,1.646,6.199
		C224.204,41.494,223.188,42.226,222.109,42.51z"/>
	<path style="fill:#F28A00;" d="M282.036,290.184c1.111-0.291,2.371-0.158,3.458,0.465c5.923,3.434,10.185,9.003,11.926,15.557
		c1.812,6.664,0.874,13.572-2.552,19.511c-1.229,2.182-4.017,2.922-6.183,1.631c-2.15-1.213-2.922-3.986-1.678-6.183
		c2.261-3.812,2.844-8.279,1.678-12.587c-1.126-4.277-3.891-7.845-7.735-10.059c-2.135-1.26-2.891-4.049-1.662-6.199
		C279.909,291.232,280.941,290.507,282.036,290.184z"/>
</g>
<path style="fill:#09516D;" d="M213.664,109.448c0,8.94-7.247,8.09-16.171,8.09c-8.925,0-16.156,0.843-16.156-8.09
	c0-8.925,7.231-16.156,16.156-16.156C206.418,93.292,213.664,100.523,213.664,109.448z"/>
<path style="fill:#082130;" d="M213.664,109.448c0,8.94-7.247,8.09-16.171,8.09c-8.925,0-16.156,0.843-16.156-8.09
	c0-8.925,7.231-9.618,16.156-9.618C206.418,99.83,213.664,100.523,213.664,109.448z"/>
<path style="fill:#09516D;" d="M322.791,109.448c0,8.94-7.247,8.09-16.171,8.09c-8.925,0-16.156,0.843-16.156-8.09
	c0-8.925,7.231-16.156,16.156-16.156C315.545,93.292,322.791,100.523,322.791,109.448z"/>
<path style="fill:#082130;" d="M322.791,109.448c0,8.94-7.247,8.09-16.171,8.09c-8.925,0-16.156,0.843-16.156-8.09
	c0-8.925,7.231-9.618,16.156-9.618C315.545,99.83,322.791,100.523,322.791,109.448z"/>
<path style="fill:#AF3A6A;" d="M258.988,135.552c0,3.828-3.111,6.924-6.924,6.924c-3.828,0-6.94-3.096-6.94-6.924
	c0-3.844,3.111-6.94,6.94-6.94C255.877,128.612,258.988,131.708,258.988,135.552z"/>
<path style="fill:#92A4A5;" d="M397.866,336.784c0,80.526-65.292,118.619-145.802,118.619c-80.526,0-145.802-38.093-145.802-118.619
	s65.276-120.139,145.802-120.139C332.575,216.645,397.866,256.258,397.866,336.784z"/>
<path style="fill:#C7D2D3;" d="M397.866,336.784c0,80.526-65.292,101.321-145.802,101.321c-80.526,0-145.802-20.803-145.802-101.321
	s65.276-145.802,145.802-145.802C332.575,190.982,397.866,256.258,397.866,336.784z"/>
<g>
	<path style="fill:#AEB9BA;" d="M397.866,336.784c0,80.526-65.292,101.321-145.802,101.321
		c-80.526,0-145.802-20.803-145.802-101.321s65.276-120.139,145.802-120.139C332.575,216.645,397.866,256.258,397.866,336.784z"/>
	<path style="fill:#AEB9BA;" d="M251.883,369.032c0,54.894-44.489,69.081-99.399,69.081c-54.894,0-99.383-14.186-99.383-69.081
		s44.489-99.391,99.375-99.391C207.387,269.641,251.883,314.138,251.883,369.032z"/>
	<path style="fill:#AEB9BA;" d="M451.036,369.032c0,54.894-44.505,69.081-99.399,69.081c-54.91,0-99.399-14.186-99.399-69.081
		s44.489-99.391,99.399-99.391C406.523,269.641,451.036,314.138,451.036,369.032z"/>
</g>
<path style="fill:#09516D;" d="M206.142,304.032c0,10.673-8.68,9.665-19.354,9.665c-10.673,0-19.322,1.016-19.322-9.665
	c0-10.681,8.649-19.338,19.322-19.338C197.462,284.694,206.142,293.35,206.142,304.032z"/>
<path style="fill:#082130;" d="M206.142,304.032c0,10.673-8.68,9.665-19.354,9.665c-10.673,0-19.322,1.016-19.322-9.665
	c0-10.681,8.649-11.524,19.322-11.524C197.462,292.508,206.142,293.35,206.142,304.032z"/>
<path style="fill:#09516D;" d="M336.663,304.032c0,10.673-8.665,9.665-19.338,9.665s-19.338,1.016-19.338-9.665
	c0-10.681,8.665-19.338,19.338-19.338S336.663,293.35,336.663,304.032z"/>
<path style="fill:#082130;" d="M336.663,304.032c0,10.673-8.665,9.665-19.338,9.665s-19.338,1.016-19.338-9.665
	c0-10.681,8.665-11.524,19.338-11.524S336.663,293.35,336.663,304.032z"/>
<path style="fill:#AF3A6A;" d="M287.203,328.151c0,8.799-15.738,15.951-35.139,15.951c-19.417,0-35.155-7.152-35.155-15.951
	c0-8.814,15.738,1.063,35.155,1.063C271.465,329.214,287.203,319.336,287.203,328.151z"/>
<path style="fill:#821647;" d="M252.064,329.214c-15.691,0-28.956-6.428-33.477-4.261c4.387,6.538,17.613,11.335,33.477,11.335
	s29.089-4.797,33.461-11.335C281.004,322.786,267.74,329.214,252.064,329.214z"/>
<g>
	<path style="fill:#C7D2D3;" d="M141.606,337.69c0,6.475-13.233-1.662-29.554-1.662c-16.337,0-29.586,8.137-29.586,1.662
		s13.249-11.705,29.586-11.705C128.373,325.984,141.606,331.215,141.606,337.69z"/>
	<path style="fill:#C7D2D3;" d="M421.647,337.69c0,6.475-13.249-1.662-29.586-1.662c-16.305,0-29.554,8.137-29.554,1.662
		s13.249-11.705,29.554-11.705C408.406,325.984,421.647,331.215,421.647,337.69z"/>
	<path style="fill:#C7D2D3;" d="M211.065,262.032c0,4.214-8.633-1.079-19.243-1.079c-10.634,0-19.259,5.293-19.259,1.079
		c0-4.214,8.633-7.633,19.259-7.633C202.432,254.399,211.065,257.818,211.065,262.032z"/>
	<path style="fill:#C7D2D3;" d="M331.558,262.032c0,4.214-8.633-1.079-19.259-1.079c-10.618,0-19.243,5.293-19.243,1.079
		c0-4.214,8.633-7.633,19.243-7.633C322.925,254.399,331.558,257.818,331.558,262.032z"/>
</g>
<path style="fill:#5BA9C1;" d="M138.062,494.401c0,5.372-4.356,9.736-9.736,9.736s-9.752-4.372-9.752-9.736
	c0-5.388,4.372-27.68,9.752-27.68S138.062,489.013,138.062,494.401z"/>
<path style="fill:#2D99B2;" d="M128.326,466.721c5.388,0,9.736,22.292,9.736,27.68c0,5.372-4.356,9.736-9.736,9.736"/>
<path style="fill:#5BA9C1;" d="M187.56,494.401c0,5.372-4.372,9.736-9.736,9.736c-5.388,0-9.736-4.372-9.736-9.736
	c0-5.388,4.356-27.68,9.736-27.68C183.189,466.721,187.56,489.013,187.56,494.401z"/>
<path style="fill:#2D99B2;" d="M177.817,466.721c5.372,0,9.736,22.292,9.736,27.68c0,5.372-4.372,9.736-9.736,9.736"/>
<path style="fill:#5BA9C1;" d="M237.051,494.401c0,5.372-4.356,9.736-9.736,9.736c-5.372,0-9.752-4.372-9.752-9.736
	c0-5.388,4.387-27.68,9.752-27.68C232.695,466.721,237.051,489.013,237.051,494.401z"/>
<path style="fill:#2D99B2;" d="M227.307,466.721c5.388,0,9.736,22.292,9.736,27.68c0,5.372-4.356,9.736-9.736,9.736"/>
<path style="fill:#5BA9C1;" d="M286.558,494.401c0,5.372-4.372,9.736-9.752,9.736c-5.38,0-9.72-4.372-9.72-9.736
	c0-5.388,4.34-27.68,9.72-27.68C282.186,466.721,286.558,489.013,286.558,494.401z"/>
<path style="fill:#2D99B2;" d="M276.806,466.721c5.388,0,9.752,22.292,9.752,27.68c0,5.372-4.372,9.736-9.752,9.736"/>
<path style="fill:#5BA9C1;" d="M336.033,494.401c0,5.372-4.356,9.736-9.72,9.736c-5.388,0-9.752-4.372-9.752-9.736
	c0-5.388,4.372-27.68,9.752-27.68C331.677,466.721,336.033,489.013,336.033,494.401z"/>
<path style="fill:#2D99B2;" d="M326.312,466.721c5.372,0,9.72,22.292,9.72,27.68c0,5.372-4.356,9.736-9.72,9.736"/>
<path style="fill:#5BA9C1;" d="M385.555,494.401c0,5.372-4.372,9.736-9.752,9.736c-5.38,0-9.736-4.372-9.736-9.736
	c0-5.388,4.356-27.68,9.736-27.68C381.183,466.721,385.555,489.013,385.555,494.401z"/>
<path style="fill:#2D99B2;" d="M375.803,466.721c5.388,0,9.752,22.292,9.752,27.68c0,5.372-4.372,9.736-9.752,9.736"/>
<g>
</g>
<g>
</g>
<g>
</g>
<g>
</g>
<g>
</g>
<g>
</g>
<g>
</g>
<g>
</g>
<g>
</g>
<g>
</g>
<g>
</g>
<g>
</g>
<g>
</g>
<g>
</g>
<g>
</g>
</svg>
