<?xml version="1.0" encoding="utf-8"?>
<!-- Generator: Adobe Illustrator 16.0.0, SVG Export Plug-In . SVG Version: 6.00 Build 0)  -->
<!DOCTYPE svg PUBLIC "-//W3C//DTD SVG 1.1//EN" "http://www.w3.org/Graphics/SVG/1.1/DTD/svg11.dtd">
<svg version="1.1" id="Layer_1" xmlns="http://www.w3.org/2000/svg" xmlns:xlink="http://www.w3.org/1999/xlink" x="0px" y="0px"
	 width="792px" height="792px" viewBox="-90 0 792 792" enable-background="new -90 0 792 792" xml:space="preserve">
<circle fill="#FFB133" cx="305.995" cy="291.924" r="142.985"/>
<path fill="#F49C00" d="M448.979,291.923c0,78.965-64.02,142.965-142.985,142.965s-142.985-64-142.985-142.965
	c0-78.984,64.02-115.665,142.985-115.665S448.979,212.939,448.979,291.923z"/>
<g>
	<path fill="#F28A00" d="M448.979,291.923c0,78.965-64.02,142.965-142.985,142.965s-142.985-64-142.985-142.965"/>
	<path fill="#F28A00" d="M417.998,185.247c-1.004-0.994-1.626-2.371-1.626-3.902c0-8.31,3.251-16.141,9.132-22.022
		c5.88-5.881,13.713-9.131,22.04-9.131c3.021,0.02,5.488,2.467,5.488,5.488c0,3.061-2.467,5.508-5.488,5.508
		c-5.394,0-10.46,2.094-14.248,5.9c-3.806,3.806-5.919,8.854-5.919,14.248c0,3.041-2.449,5.508-5.488,5.508
		C420.368,186.853,418.982,186.231,417.998,185.247z"/>
	<path fill="#F28A00" d="M193.993,398.6c0.994,1.004,1.625,2.371,1.625,3.883c0,8.309-3.251,16.17-9.113,22.021
		c-5.9,5.9-13.731,9.132-22.041,9.132c-3.061,0-5.527-2.447-5.527-5.508c0-3.002,2.467-5.488,5.527-5.488
		c5.374,0,10.442-2.094,14.248-5.899c3.777-3.787,5.88-8.854,5.88-14.248c0-3.041,2.467-5.489,5.508-5.489
		C191.622,397.003,193.008,397.615,193.993,398.6z"/>
	<path fill="#F28A00" d="M309.753,137.302c-1.396,0-2.821-0.545-3.882-1.625c-5.9-5.88-9.131-13.713-9.131-22.022
		c0-8.329,3.231-16.17,9.131-22.041c2.151-2.151,5.624-2.151,7.764,0c2.134,2.151,2.134,5.623,0,7.765
		c-3.786,3.825-5.899,8.894-5.899,14.266c0,5.373,2.113,10.423,5.899,14.249c2.134,2.151,2.134,5.623,0,7.764
		C312.574,136.767,311.168,137.302,309.753,137.302z"/>
	<path fill="#F28A00" d="M302.218,446.545c1.416,0,2.821,0.545,3.901,1.606c5.881,5.88,9.113,13.712,9.113,22.04
		c0,8.329-3.231,16.141-9.113,22.022c-2.151,2.171-5.623,2.171-7.764,0c-2.17-2.133-2.17-5.623,0-7.755
		c3.787-3.825,5.88-8.894,5.88-14.267c0-5.374-2.094-10.46-5.88-14.267c-2.17-2.15-2.17-5.622,0-7.764
		C299.416,447.09,300.822,446.545,302.218,446.545z"/>
	<path fill="#F28A00" d="M460.616,295.662c0-1.386,0.545-2.782,1.605-3.863c5.881-5.88,13.731-9.131,22.022-9.131
		c8.349,0,16.17,3.251,22.041,9.131c2.151,2.151,2.171,5.642,0,7.765c-2.133,2.151-5.604,2.151-7.765,0
		c-3.806-3.806-8.874-5.88-14.267-5.88c-5.364,0-10.442,2.075-14.229,5.88c-2.151,2.151-5.642,2.151-7.784,0
		C461.161,298.502,460.636,297.096,460.616,295.662z"/>
	<path fill="#F28A00" d="M151.335,288.175c0,1.396-0.526,2.821-1.588,3.882c-5.862,5.9-13.693,9.132-22.022,9.132
		s-16.15-3.232-22.041-9.132c-2.151-2.17-2.151-5.641,0-7.764c2.151-2.17,5.623-2.17,7.765,0c3.825,3.786,8.874,5.9,14.266,5.9
		c5.365,0,10.442-2.114,14.229-5.9c2.151-2.17,5.641-2.17,7.784,0C150.81,285.354,151.335,286.769,151.335,288.175z"/>
	<path fill="#F28A00" d="M412.671,403.907c0.994-0.994,2.353-1.588,3.863-1.588c8.328-0.02,16.169,3.231,22.06,9.094
		c5.881,5.919,9.113,13.75,9.113,22.06c0,3.002-2.467,5.488-5.488,5.488c-3.041,0-5.488-2.448-5.488-5.488
		c0-5.394-2.113-10.442-5.92-14.266c-3.806-3.787-8.873-5.9-14.266-5.9c-3.021,0-5.488-2.448-5.488-5.488
		C411.064,406.298,411.687,404.921,412.671,403.907z"/>
	<path fill="#F28A00" d="M199.281,179.921c-0.975,0.994-2.353,1.606-3.863,1.606c-8.31,0.039-16.151-3.231-22.022-9.094
		c-5.9-5.9-9.151-13.713-9.151-22.06c0-3.041,2.467-5.488,5.527-5.488c3.002,0,5.488,2.447,5.488,5.488
		c0,5.394,2.114,10.442,5.9,14.286c3.806,3.786,8.855,5.88,14.249,5.862c3.041,0,5.507,2.486,5.507,5.488
		C200.925,177.549,200.285,178.936,199.281,179.921z"/>
	<path fill="#F28A00" d="M231.946,156.149c-1.214,0.688-2.706,0.918-4.198,0.545c-8.033-2.17-14.755-7.325-18.905-14.515
		c-4.168-7.21-5.288-15.615-3.117-23.648c0.765-2.955,3.786-4.686,6.741-3.902c2.936,0.784,4.667,3.806,3.882,6.722
		c-1.416,5.231-0.669,10.682,1.999,15.338c2.686,4.647,7.037,7.975,12.249,9.371c2.936,0.765,4.647,3.806,3.902,6.722
		C234.087,154.266,233.14,155.442,231.946,156.149z"/>
	<path fill="#F28A00" d="M380.045,427.717c1.214-0.708,2.706-0.957,4.188-0.546c8.014,2.134,14.755,7.306,18.905,14.496
		c4.169,7.229,5.288,15.635,3.137,23.666c-0.804,2.936-3.845,4.667-6.761,3.883c-2.916-0.804-4.666-3.806-3.882-6.741
		c1.396-5.212,0.65-10.643-2.018-15.3c-2.687-4.666-7.02-7.994-12.23-9.39c-2.936-0.765-4.686-3.786-3.901-6.722
		C377.884,429.591,378.831,428.414,380.045,427.717z"/>
	<path fill="#F28A00" d="M441.77,217.854c-0.688-1.196-0.938-2.687-0.545-4.169c2.15-8.033,7.325-14.754,14.515-18.923
		c7.229-4.168,15.596-5.269,23.648-3.098c2.936,0.804,4.666,3.786,3.901,6.722c-0.804,2.955-3.806,4.686-6.761,3.882
		c-5.191-1.386-10.623-0.668-15.262,2.018c-4.704,2.686-8.051,7.037-9.429,12.249c-0.765,2.955-3.786,4.686-6.722,3.882
		C443.644,220.044,442.496,219.087,441.77,217.854z"/>
	<path fill="#F28A00" d="M170.183,365.993c0.746,1.214,0.938,2.706,0.564,4.169c-2.151,8.033-7.325,14.774-14.478,18.923
		c-7.267,4.168-15.634,5.269-23.705,3.098c-2.936-0.765-4.667-3.786-3.845-6.722c0.765-2.935,3.758-4.686,6.722-3.882
		c5.192,1.396,10.623,0.688,15.299-2.018c4.647-2.686,7.975-7.019,9.371-12.23c0.784-2.935,3.786-4.686,6.741-3.901
		C168.337,363.831,169.476,364.778,170.183,365.993z"/>
	<path fill="#F28A00" d="M454.363,335.594c0.353-1.349,1.253-2.592,2.582-3.347c7.19-4.168,15.596-5.269,23.647-3.117
		c8.033,2.17,14.774,7.325,18.905,14.515c1.512,2.629,0.65,5.996-1.998,7.525c-2.63,1.53-5.977,0.612-7.506-2.018
		c-2.687-4.667-7.02-7.994-12.249-9.409c-5.192-1.387-10.623-0.688-15.3,2.037c-2.648,1.512-5.995,0.612-7.506-2.018
		C454.171,338.434,454.009,336.933,454.363,335.594z"/>
	<path fill="#F28A00" d="M157.59,248.262c-0.354,1.367-1.253,2.592-2.563,3.366c-7.19,4.188-15.634,5.269-23.609,3.118
		c-8.09-2.151-14.793-7.306-18.952-14.535c-1.53-2.629-0.612-5.996,2.018-7.506c2.629-1.511,5.976-0.631,7.525,2.018
		c2.687,4.647,7,7.994,12.249,9.39c5.173,1.396,10.605,0.688,15.262-2.037c2.629-1.511,5.996-0.612,7.506,2.037
		C157.78,245.423,157.953,246.914,157.59,248.262z"/>
</g>
<path id="SVGCleanerId_0" fill="#F28A00" d="M173.931,211.371c-0.688,1.214-1.865,2.151-3.347,2.563
	c-8.033,2.151-16.419,1.042-23.628-3.118c-7.21-4.159-12.364-10.892-14.516-18.923c-0.803-2.936,0.957-5.957,3.863-6.741
	c2.975-0.784,5.957,0.975,6.741,3.882c1.396,5.211,4.743,9.562,9.41,12.249c4.627,2.687,10.088,3.395,15.299,2.018
	c2.916-0.784,5.938,0.975,6.741,3.882C174.907,208.646,174.648,210.138,173.931,211.371z"/>
<path id="SVGCleanerId_1" fill="#F28A00" d="M438.001,372.495c0.708-1.196,1.885-2.19,3.366-2.543
	c8.033-2.2,16.438-1.061,23.609,3.098c7.249,4.168,12.401,10.892,14.545,18.923c0.803,2.936-0.957,5.977-3.902,6.722
	c-2.936,0.765-5.938-0.938-6.722-3.882c-1.415-5.211-4.762-9.543-9.409-12.249c-4.628-2.687-10.088-3.395-15.3-2.018
	c-2.916,0.804-5.919-0.938-6.722-3.863C437.064,375.201,437.304,373.709,438.001,372.495z"/>
<path id="SVGCleanerId_2" fill="#F28A00" d="M386.528,159.907c-1.195-0.688-2.151-1.865-2.523-3.347
	c-2.171-8.033-1.062-16.437,3.117-23.648c4.169-7.209,10.872-12.345,18.886-14.515c2.954-0.784,5.976,0.957,6.76,3.882
	c0.746,2.955-0.975,5.957-3.901,6.722c-5.192,1.386-9.543,4.743-12.23,9.39c-2.706,4.667-3.433,10.107-2.018,15.319
	c0.784,2.955-0.957,5.957-3.882,6.741C389.254,160.854,387.781,160.595,386.528,159.907z"/>
<path id="SVGCleanerId_3" fill="#F28A00" d="M225.424,423.968c1.214,0.688,2.151,1.884,2.543,3.347
	c2.19,8.033,1.061,16.456-3.098,23.609c-4.188,7.248-10.872,12.401-18.923,14.544c-2.955,0.784-5.957-0.937-6.741-3.901
	c-0.784-2.916,0.957-5.938,3.902-6.703c5.192-1.396,9.563-4.724,12.268-9.43c2.649-4.627,3.385-10.068,1.961-15.279
	c-0.765-2.936,0.957-5.92,3.921-6.741C222.717,423.032,224.19,423.279,225.424,423.968z"/>
<path id="SVGCleanerId_4" fill="#F28A00" d="M456.323,255.548c-0.372-1.349-0.22-2.859,0.545-4.168
	c4.151-7.19,10.892-12.364,18.924-14.545c8.051-2.113,16.437-1.004,23.647,3.137c2.61,1.53,3.547,4.896,1.998,7.525
	c-1.511,2.629-4.856,3.509-7.506,1.998c-4.646-2.706-10.068-3.384-15.279-2.018c-5.212,1.396-9.563,4.704-12.269,9.409
	c-1.512,2.61-4.857,3.51-7.506,1.999C457.557,258.14,456.677,256.887,456.323,255.548z"/>
<path id="SVGCleanerId_5" fill="#F28A00" d="M155.648,328.326c0.354,1.349,0.192,2.859-0.564,4.188
	c-4.15,7.21-10.892,12.384-18.885,14.496c-8.071,2.19-16.457,1.061-23.686-3.098c-2.629-1.529-3.529-4.857-1.98-7.506
	c1.492-2.629,4.857-3.547,7.506-2.018c4.627,2.706,10.05,3.414,15.299,1.998c5.173-1.367,9.543-4.686,12.192-9.37
	c1.53-2.61,4.915-3.529,7.525-2.018C154.415,325.745,155.256,326.979,155.648,328.326z"/>
<g>
	<path id="SVGCleanerId_0_1_" fill="#F28A00" d="M173.931,211.371c-0.688,1.214-1.865,2.151-3.347,2.563
		c-8.033,2.151-16.419,1.042-23.628-3.118c-7.21-4.159-12.364-10.892-14.516-18.923c-0.803-2.936,0.957-5.957,3.863-6.741
		c2.975-0.784,5.957,0.975,6.741,3.882c1.396,5.211,4.743,9.562,9.41,12.249c4.627,2.687,10.088,3.395,15.299,2.018
		c2.916-0.784,5.938,0.975,6.741,3.882C174.907,208.646,174.648,210.138,173.931,211.371z"/>
</g>
<g>
	<path id="SVGCleanerId_1_1_" fill="#F28A00" d="M438.001,372.495c0.708-1.196,1.885-2.19,3.366-2.543
		c8.033-2.2,16.438-1.061,23.609,3.098c7.249,4.168,12.401,10.892,14.545,18.923c0.803,2.936-0.957,5.977-3.902,6.722
		c-2.936,0.765-5.938-0.938-6.722-3.882c-1.415-5.211-4.762-9.543-9.409-12.249c-4.628-2.687-10.088-3.395-15.3-2.018
		c-2.916,0.804-5.919-0.938-6.722-3.863C437.064,375.201,437.304,373.709,438.001,372.495z"/>
</g>
<g>
	<path id="SVGCleanerId_2_1_" fill="#F28A00" d="M386.528,159.907c-1.195-0.688-2.151-1.865-2.523-3.347
		c-2.171-8.033-1.062-16.437,3.117-23.648c4.169-7.209,10.872-12.345,18.886-14.515c2.954-0.784,5.976,0.957,6.76,3.882
		c0.746,2.955-0.975,5.957-3.901,6.722c-5.192,1.386-9.543,4.743-12.23,9.39c-2.706,4.667-3.433,10.107-2.018,15.319
		c0.784,2.955-0.957,5.957-3.882,6.741C389.254,160.854,387.781,160.595,386.528,159.907z"/>
</g>
<g>
	<path id="SVGCleanerId_3_1_" fill="#F28A00" d="M225.424,423.968c1.214,0.688,2.151,1.884,2.543,3.347
		c2.19,8.033,1.061,16.456-3.098,23.609c-4.188,7.248-10.872,12.401-18.923,14.544c-2.955,0.784-5.957-0.937-6.741-3.901
		c-0.784-2.916,0.957-5.938,3.902-6.703c5.192-1.396,9.563-4.724,12.268-9.43c2.649-4.627,3.385-10.068,1.961-15.279
		c-0.765-2.936,0.957-5.92,3.921-6.741C222.717,423.032,224.19,423.279,225.424,423.968z"/>
</g>
<g>
	<path id="SVGCleanerId_4_1_" fill="#F28A00" d="M456.323,255.548c-0.372-1.349-0.22-2.859,0.545-4.168
		c4.151-7.19,10.892-12.364,18.924-14.545c8.051-2.113,16.437-1.004,23.647,3.137c2.61,1.53,3.547,4.896,1.998,7.525
		c-1.511,2.629-4.856,3.509-7.506,1.998c-4.646-2.706-10.068-3.384-15.279-2.018c-5.212,1.396-9.563,4.704-12.269,9.409
		c-1.512,2.61-4.857,3.51-7.506,1.999C457.557,258.14,456.677,256.887,456.323,255.548z"/>
</g>
<g>
	<path id="SVGCleanerId_5_1_" fill="#F28A00" d="M155.648,328.326c0.354,1.349,0.192,2.859-0.564,4.188
		c-4.15,7.21-10.892,12.384-18.885,14.496c-8.071,2.19-16.457,1.061-23.686-3.098c-2.629-1.529-3.529-4.857-1.98-7.506
		c1.492-2.629,4.857-3.547,7.506-2.018c4.627,2.706,10.05,3.414,15.299,1.998c5.173-1.367,9.543-4.686,12.192-9.37
		c1.53-2.61,4.915-3.529,7.525-2.018C154.415,325.745,155.256,326.979,155.648,328.326z"/>
</g>
<g>
	<path fill="#F28A00" d="M170.221,366.011c0.708,1.214,0.898,2.706,0.526,4.188c-2.151,8.033-7.325,14.754-14.515,18.905
		c-7.229,4.169-15.596,5.269-23.666,3.137c-2.936-0.804-4.667-3.825-3.863-6.741c0.785-2.974,3.777-4.667,6.704-3.902
		c5.231,1.396,10.662,0.669,15.338-2.018c4.647-2.687,7.975-7.019,9.371-12.249c0.784-2.916,3.806-4.628,6.741-3.902
		C168.337,363.831,169.513,364.778,170.221,366.011z"/>
	<path fill="#F28A00" d="M441.77,217.893c-0.688-1.214-0.957-2.725-0.506-4.188c2.113-8.051,7.286-14.754,14.458-18.905
		c7.229-4.169,15.615-5.269,23.666-3.118c2.936,0.784,4.666,3.806,3.882,6.741c-0.784,2.916-3.786,4.667-6.741,3.844
		c-5.23-1.349-10.623-0.631-15.28,2.037c-4.686,2.687-8.032,7.057-9.409,12.231c-0.745,2.935-3.786,4.667-6.722,3.921
		C443.644,220.063,442.496,219.087,441.77,217.893z"/>
	<path fill="#F28A00" d="M231.926,156.168c-1.196,0.688-2.687,0.937-4.169,0.525c-8.051-2.133-14.773-7.306-18.923-14.515
		c-4.169-7.229-5.288-15.596-3.137-23.648c0.822-2.916,3.806-4.647,6.76-3.901c2.936,0.841,4.667,3.825,3.882,6.76
		c-1.416,5.192-0.669,10.643,2.018,15.299c2.668,4.667,7.019,8.014,12.23,9.39c2.955,0.784,4.686,3.787,3.902,6.741
		C234.087,154.303,233.14,155.442,231.926,156.168z"/>
	<path fill="#F28A00" d="M380.045,427.736c1.214-0.708,2.706-0.938,4.188-0.546c8.033,2.133,14.774,7.286,18.905,14.496
		c4.169,7.229,5.288,15.615,3.098,23.648c-0.765,2.935-3.776,4.704-6.722,3.882c-2.916-0.765-4.666-3.776-3.882-6.703
		c1.415-5.212,0.708-10.662-1.998-15.348c-2.687-4.627-7.037-7.956-12.249-9.342c-2.916-0.804-4.686-3.777-3.882-6.761
		C377.884,429.61,378.85,428.453,380.045,427.736z"/>
	<path fill="#F28A00" d="M349.638,143.546c-1.387-0.335-2.592-1.233-3.328-2.543c-4.188-7.209-5.269-15.615-3.137-23.666
		c2.171-8.013,7.325-14.754,14.545-18.905c2.609-1.492,5.976-0.631,7.506,2.037c1.511,2.61,0.592,5.957-2.018,7.468
		c-4.687,2.706-8.014,7.037-9.409,12.249c-1.387,5.211-0.688,10.643,2.037,15.319c1.491,2.649,0.611,5.977-2.037,7.506
		C352.496,143.766,350.967,143.919,349.638,143.546z"/>
	<path fill="#F28A00" d="M262.353,440.329c1.349,0.373,2.563,1.272,3.366,2.563c4.15,7.229,5.231,15.635,3.079,23.629
		c-2.171,8.09-7.306,14.793-14.544,18.933c-2.61,1.53-5.957,0.632-7.468-2.018c-1.549-2.609-0.631-5.977,1.998-7.525
		c4.647-2.668,8.033-6.971,9.39-12.23c1.396-5.173,0.688-10.623-2.037-15.262c-1.492-2.629-0.592-6.015,2.037-7.525
		C259.475,440.138,260.986,439.975,262.353,440.329z"/>
	<path fill="#F28A00" d="M225.462,423.968c1.196,0.708,2.113,1.884,2.506,3.385c2.19,8.032,1.061,16.418-3.098,23.628
		c-4.188,7.21-10.872,12.345-18.905,14.516c-2.974,0.784-5.957-0.975-6.76-3.863c-0.784-2.974,0.975-5.976,3.882-6.741
		c5.231-1.396,9.582-4.742,12.249-9.409c2.687-4.646,3.414-10.088,1.999-15.299c-0.765-2.898,0.994-5.92,3.921-6.761
		C222.717,423.032,224.229,423.279,225.462,423.968z"/>
	<path fill="#F28A00" d="M386.548,159.926c-1.195-0.708-2.171-1.884-2.523-3.366c-2.19-8.033-1.043-16.437,3.06-23.609
		c4.188-7.21,10.911-12.384,18.924-14.535c2.954-0.803,5.976,0.957,6.722,3.882c0.784,2.936-0.938,5.957-3.863,6.704
		c-5.211,1.435-9.523,4.819-12.23,9.409c-2.706,4.667-3.395,10.127-2.018,15.3c0.822,2.916-0.957,5.938-3.882,6.78
		C389.273,160.854,387.781,160.595,386.548,159.926z"/>
	<path fill="#F28A00" d="M173.931,211.409c-0.669,1.176-1.865,2.133-3.327,2.525c-8.014,2.17-16.419,1.061-23.648-3.118
		c-7.21-4.168-12.364-10.872-14.516-18.905c-0.784-2.936,0.975-5.957,3.863-6.761c2.975-0.727,5.957,0.995,6.741,3.921
		c1.396,5.172,4.743,9.523,9.429,12.211c4.628,2.726,10.069,3.453,15.28,2.037c2.936-0.804,5.976,0.937,6.741,3.882
		C174.926,208.684,174.648,210.156,173.931,211.409z"/>
	<path fill="#F28A00" d="M438.04,372.514c0.669-1.196,1.846-2.151,3.347-2.524c8.014-2.2,16.419-1.1,23.59,3.079
		c7.249,4.169,12.401,10.873,14.545,18.923c0.803,2.935-0.957,5.957-3.902,6.703c-2.897,0.804-5.938-0.917-6.722-3.862
		c-1.386-5.231-4.686-9.563-9.37-12.288c-4.647-2.648-10.127-3.366-15.319-1.96c-2.897,0.765-5.919-0.917-6.722-3.901
		C437.084,375.22,437.342,373.728,438.04,372.514z"/>
	<path fill="#F28A00" d="M269.63,141.605c-1.367,0.392-2.916,0.22-4.168-0.526c-7.229-4.168-12.384-10.892-14.564-18.933
		c-2.133-8.033-1.043-16.437,3.137-23.648c1.549-2.592,4.876-3.529,7.506-1.998c2.649,1.511,3.51,4.876,2.018,7.506
		c-2.725,4.666-3.414,10.068-2.056,15.319c1.463,5.182,4.752,9.533,9.438,12.211c2.629,1.549,3.49,4.876,1.998,7.525
		C272.174,140.372,270.94,141.261,269.63,141.605z"/>
	<path fill="#F28A00" d="M342.379,442.271c1.349-0.354,2.879-0.191,4.198,0.564c7.19,4.169,12.364,10.93,14.478,18.886
		c2.2,8.09,1.061,16.476-3.098,23.686c-1.492,2.648-4.877,3.547-7.506,1.979c-2.61-1.473-3.548-4.839-2.037-7.506
		c2.744-4.627,3.452-10.05,2.037-15.28c-1.367-5.191-4.724-9.523-9.391-12.211c-2.592-1.529-3.509-4.915-2.018-7.525
		C339.797,443.543,341.05,442.663,342.379,442.271z"/>
</g>
<path fill="#09516D" d="M259.378,222.865c0,10.853-8.797,9.821-19.631,9.821c-10.834,0-19.612,1.023-19.612-9.821
	c0-10.835,8.778-19.613,19.612-19.613C250.583,203.252,259.378,212.03,259.378,222.865z"/>
<path fill="#082130" d="M259.378,222.865c0,10.853-8.797,9.821-19.631,9.821c-10.834,0-19.612,1.023-19.612-9.821
	c0-10.835,8.778-11.676,19.612-11.676C250.583,211.189,259.378,212.03,259.378,222.865z"/>
<path fill="#09516D" d="M391.854,222.865c0,10.853-8.797,9.821-19.631,9.821s-19.612,1.023-19.612-9.821
	c0-10.835,8.778-19.613,19.612-19.613C383.058,203.252,391.854,212.03,391.854,222.865z"/>
<path fill="#082130" d="M391.854,222.865c0,10.853-8.797,9.821-19.631,9.821s-19.612,1.023-19.612-9.821
	c0-10.835,8.778-11.676,19.612-11.676C383.058,211.189,391.854,212.03,391.854,222.865z"/>
<path fill="#AF3A6A" d="M314.4,254.554c0,4.647-3.777,8.405-8.406,8.405c-4.647,0-8.425-3.758-8.425-8.405
	c0-4.667,3.776-8.425,8.425-8.425C310.623,246.129,314.4,249.888,314.4,254.554z"/>
<path fill="#92A4A5" d="M482.992,498.841c0,97.755-79.262,143.998-176.998,143.998c-97.755,0-176.997-46.243-176.997-143.998
	s79.242-145.843,176.997-145.843C403.731,352.998,482.992,401.086,482.992,498.841z"/>
<path fill="#C7D2D3" d="M482.992,498.841c0,97.755-79.262,122.999-176.998,122.999c-97.755,0-176.997-25.254-176.997-122.999
	s79.242-176.997,176.997-176.997C403.731,321.844,482.992,401.086,482.992,498.841z"/>
<g>
	<path fill="#AEB9BA" d="M482.992,498.841c0,97.755-79.262,122.999-176.998,122.999c-97.755,0-176.997-25.254-176.997-122.999
		s79.242-145.843,176.997-145.843C403.731,352.998,482.992,401.086,482.992,498.841z"/>
	<path fill="#AEB9BA" d="M305.775,537.988c0,66.639-54.008,83.861-120.666,83.861c-66.639,0-120.646-17.221-120.646-83.861
		c0-66.64,54.007-120.656,120.637-120.656C251.759,417.332,305.775,471.35,305.775,537.988z"/>
	<path fill="#AEB9BA" d="M547.538,537.988c0,66.639-54.027,83.861-120.666,83.861c-66.658,0-120.666-17.221-120.666-83.861
		c0-66.64,54.008-120.656,120.666-120.656C493.501,417.332,547.538,471.35,547.538,537.988z"/>
</g>
<path fill="#09516D" d="M250.247,459.081c0,12.957-10.537,11.733-23.495,11.733c-12.957,0-23.456,1.233-23.456-11.733
	c0-12.966,10.5-23.476,23.456-23.476C239.71,435.605,250.247,446.114,250.247,459.081z"/>
<path fill="#082130" d="M250.247,459.081c0,12.957-10.537,11.733-23.495,11.733c-12.957,0-23.456,1.233-23.456-11.733
	c0-12.966,10.5-13.989,23.456-13.989C239.71,445.092,250.247,446.114,250.247,459.081z"/>
<path fill="#09516D" d="M408.694,459.081c0,12.957-10.52,11.733-23.476,11.733c-12.957,0-23.476,1.233-23.476-11.733
	c0-12.966,10.519-23.476,23.476-23.476C398.175,435.605,408.694,446.114,408.694,459.081z"/>
<path fill="#082130" d="M408.694,459.081c0,12.957-10.52,11.733-23.476,11.733c-12.957,0-23.476,1.233-23.476-11.733
	c0-12.966,10.519-13.989,23.476-13.989C398.175,445.092,408.694,446.114,408.694,459.081z"/>
<path fill="#AF3A6A" d="M348.651,488.36c0,10.682-19.104,19.364-42.657,19.364c-23.571,0-42.677-8.683-42.677-19.364
	c0-10.699,19.105,1.291,42.677,1.291C329.547,489.651,348.651,477.66,348.651,488.36z"/>
<path fill="#821647" d="M305.995,489.651c-19.048,0-35.151-7.804-40.64-5.173c5.326,7.937,21.381,13.76,40.64,13.76
	s35.313-5.823,40.62-13.76C341.126,481.848,325.024,489.651,305.995,489.651z"/>
<g>
	<path fill="#C7D2D3" d="M171.903,499.94c0,7.86-16.064-2.018-35.877-2.018c-19.833,0-35.917,9.878-35.917,2.018
		s16.084-14.209,35.917-14.209C155.839,485.73,171.903,492.08,171.903,499.94z"/>
	<path fill="#C7D2D3" d="M511.86,499.94c0,7.86-16.083-2.018-35.916-2.018c-19.793,0-35.877,9.878-35.877,2.018
		s16.084-14.209,35.877-14.209C495.787,485.73,511.86,492.08,511.86,499.94z"/>
	<path fill="#C7D2D3" d="M256.224,408.096c0,5.115-10.48-1.311-23.36-1.311c-12.909,0-23.379,6.426-23.379,1.311
		c0-5.116,10.48-9.267,23.379-9.267C245.744,398.829,256.224,402.979,256.224,408.096z"/>
	<path fill="#C7D2D3" d="M402.497,408.096c0,5.115-10.48-1.311-23.38-1.311c-12.89,0-23.36,6.426-23.36,1.311
		c0-5.116,10.48-9.267,23.36-9.267C392.017,398.829,402.497,402.979,402.497,408.096z"/>
</g>
<path fill="#5BA9C1" d="M167.601,690.181c0,6.521-5.288,11.819-11.819,11.819c-6.531,0-11.839-5.308-11.839-11.819
	c0-6.54,5.308-33.602,11.839-33.602C162.313,656.579,167.601,683.641,167.601,690.181z"/>
<path fill="#2D99B2" d="M155.782,656.579c6.541,0,11.819,27.062,11.819,33.602c0,6.521-5.288,11.819-11.819,11.819"/>
<path fill="#5BA9C1" d="M227.689,690.181c0,6.521-5.307,11.819-11.819,11.819c-6.541,0-11.819-5.308-11.819-11.819
	c0-6.54,5.288-33.602,11.819-33.602C222.383,656.579,227.689,683.641,227.689,690.181z"/>
<path fill="#2D99B2" d="M215.862,656.579c6.521,0,11.819,27.062,11.819,33.602c0,6.521-5.308,11.819-11.819,11.819"/>
<path fill="#5BA9C1" d="M287.77,690.181c0,6.521-5.288,11.819-11.819,11.819c-6.521,0-11.838-5.308-11.838-11.819
	c0-6.54,5.326-33.602,11.838-33.602C282.481,656.579,287.77,683.641,287.77,690.181z"/>
<path fill="#2D99B2" d="M275.94,656.579c6.541,0,11.819,27.062,11.819,33.602c0,6.521-5.288,11.819-11.819,11.819"/>
<path fill="#5BA9C1" d="M347.869,690.181c0,6.521-5.308,11.819-11.839,11.819s-11.8-5.308-11.8-11.819
	c0-6.54,5.269-33.602,11.8-33.602S347.869,683.641,347.869,690.181z"/>
<path fill="#2D99B2" d="M336.03,656.579c6.541,0,11.839,27.062,11.839,33.602c0,6.521-5.308,11.819-11.839,11.819"/>
<path fill="#5BA9C1" d="M407.929,690.181c0,6.521-5.287,11.819-11.799,11.819c-6.541,0-11.839-5.308-11.839-11.819
	c0-6.54,5.308-33.602,11.839-33.602C402.642,656.579,407.929,683.641,407.929,690.181z"/>
<path fill="#2D99B2" d="M396.128,656.579c6.521,0,11.8,27.062,11.8,33.602c0,6.521-5.288,11.819-11.8,11.819"/>
<path fill="#5BA9C1" d="M468.047,690.181c0,6.521-5.308,11.819-11.839,11.819s-11.819-5.308-11.819-11.819
	c0-6.54,5.288-33.602,11.819-33.602S468.047,683.641,468.047,690.181z"/>
<path fill="#2D99B2" d="M456.208,656.579c6.541,0,11.839,27.062,11.839,33.602c0,6.521-5.308,11.819-11.839,11.819"/>
</svg>
