<?xml version="1.0" encoding="utf-8"?>
<!-- Generator: Adobe Illustrator 16.0.0, SVG Export Plug-In . SVG Version: 6.00 Build 0)  -->
<!DOCTYPE svg PUBLIC "-//W3C//DTD SVG 1.1//EN" "http://www.w3.org/Graphics/SVG/1.1/DTD/svg11.dtd">
<svg version="1.1" id="Layer_1" xmlns="http://www.w3.org/2000/svg" xmlns:xlink="http://www.w3.org/1999/xlink" x="0px" y="0px"
	 width="792px" height="792px" viewBox="-90 0 792 792" enable-background="new -90 0 792 792" xml:space="preserve">
<path fill="#1E4405" d="M153.861,292.582c-3.404,4.829-5.431,10.672-5.431,17.021c0,11.073,6.139,20.617,15.137,25.713
	c2.133,12.747,10.605,23.323,22.108,28.353c-1.349,2.161-2.19,4.714-2.19,7.459c0,7.735,6.282,14.019,14.037,14.019
	c2.391,0,4.62-0.65,6.598-1.721c4.667,5.604,10.92,9.802,18.064,11.972c1.864,14.582,14.19,25.905,29.28,25.905
	c5.116,0,9.839-1.415,14.028-3.682c5.173,2.687,11.055,4.217,17.28,4.217c8.769,0,16.812-3.002,23.218-8.032
	c6.408,5.02,14.458,8.032,23.217,8.032c6.226,0,12.106-1.529,17.28-4.217c4.188,2.257,8.931,3.682,14.019,3.682
	c15.09,0,27.426-11.321,29.29-25.905c7.153-2.17,13.397-6.369,18.064-11.972c1.998,1.061,4.208,1.721,6.598,1.721
	c7.765,0,14.038-6.282,14.038-14.019c0-2.745-0.822-5.308-2.19-7.459c11.504-5.02,20.006-15.605,22.128-28.353
	c8.988-5.096,15.127-14.641,15.127-25.713c0-6.349-2.027-12.192-5.422-17.021c4.188-2.439,7.048-6.914,7.048-12.106
	c0-7.755-6.273-14.037-14.028-14.037c-0.315,0-0.602,0.086-0.907,0.096c-1.799-14.267-13.628-25.36-28.257-25.886
	c-2.486-3.939-6.848-6.579-11.848-6.579c-2.228,0-4.322,0.574-6.187,1.511c-5.364-5.269-12.681-8.529-20.788-8.529
	c-13.665,0-25.063,9.294-28.496,21.87c-0.938-0.096-1.836-0.286-2.802-0.286c-3.922,0-7.642,0.804-11.045,2.18
	c-4.829-3.394-10.673-5.412-17.012-5.412c-6.714,0-12.843,2.313-17.806,6.072c-4.973-3.759-11.092-6.072-17.815-6.072
	c-6.321,0-12.183,2.018-16.992,5.412c-3.423-1.376-7.133-2.18-11.055-2.18c-0.957,0-1.855,0.2-2.782,0.287
	c-3.453-12.575-14.832-21.87-28.506-21.87c-8.1,0-15.415,3.261-20.789,8.529c-1.865-0.947-3.958-1.511-6.187-1.511
	c-5.011,0-9.362,2.639-11.857,6.579c-14.621,0.525-26.459,11.618-28.257,25.886c-0.296-0.01-0.592-0.096-0.898-0.096
	c-7.745,0-14.027,6.282-14.027,14.037C146.813,285.668,149.663,290.143,153.861,292.582z"/>
<path fill="#2A6602" d="M340.597,403.717c0,17.69-14.343,21.22-32.034,21.22c-17.692,0-32.035-3.529-32.035-21.2
	c0-17.69,14.343-105.102,32.035-105.121C326.254,298.606,340.597,386.036,340.597,403.717z"/>
<path fill="#51B224" d="M383.371,650.793c0,42.715-34.646,51.207-77.38,51.207s-77.379-8.502-77.379-51.207
	c0-42.735,34.645-253.933,77.379-253.933S383.371,608.058,383.371,650.793z"/>
<path fill="#3E9311" d="M305.991,396.86c42.735,0,77.38,211.197,77.38,253.933c0,42.715-34.646,51.207-77.38,51.207"/>
<path fill="#51B224" d="M310.59,430.53c15.442,15.463,6.005,31.078-9.458,46.521c-15.453,15.442-31.059,24.909-46.501,9.467
	c-15.463-15.463-79.331-104.384-63.888-119.838C206.206,351.219,295.127,415.087,310.59,430.53z"/>
<path fill="#3E9311" d="M190.743,366.691c15.463-15.463,104.384,48.405,119.847,63.849c15.442,15.462,6.005,31.078-9.458,46.521"/>
<path fill="#51B224" d="M301.391,430.53c-15.453,15.463-5.996,31.078,9.457,46.521c15.453,15.442,31.06,24.909,46.502,9.467
	c15.463-15.463,79.321-104.384,63.878-119.838C405.774,351.219,316.844,415.087,301.391,430.53z"/>
<path fill="#3E9311" d="M421.228,366.691c-15.453-15.463-104.384,48.405-119.838,63.849c-15.453,15.462-5.996,31.078,9.457,46.521"
	/>
<path fill="#2F7005" d="M549.003,296.502c5.431-7.708,8.672-17.041,8.672-27.206c0-17.69-9.802-32.933-24.164-41.08
	c-3.414-20.358-16.964-37.255-35.353-45.269c2.19-3.453,3.5-7.525,3.5-11.915c0-12.375-10.031-22.406-22.405-22.406
	c-3.825,0-7.383,1.043-10.557,2.745c-7.449-8.932-17.424-15.673-28.86-19.125c-2.984-23.304-22.683-41.368-46.81-41.368
	c-8.137,0-15.682,2.237-22.366,5.853C362.391,92.457,353.019,90,343.073,90c-14,0-26.851,4.81-37.083,12.813
	C295.75,94.81,282.907,90,268.907,90c-9.945,0-19.326,2.457-27.598,6.731c-6.694-3.614-14.239-5.853-22.386-5.853
	c-24.107,0-43.806,18.073-46.799,41.368c-11.418,3.452-21.41,10.193-28.86,19.125c-3.175-1.702-6.722-2.745-10.557-2.745
	c-12.384,0-22.415,10.031-22.415,22.406c0,4.39,1.32,8.462,3.51,11.915c-18.388,8.023-31.939,24.91-35.353,45.269
	c-14.343,8.147-24.145,23.39-24.145,41.08c0,10.155,3.241,19.498,8.663,27.206c-6.694,3.882-11.255,11.045-11.255,19.335
	c0,12.374,10.031,22.405,22.405,22.405c0.488,0,0.957-0.124,1.435-0.143c2.878,22.806,21.764,40.507,45.145,41.338
	c3.978,6.302,10.939,10.52,18.924,10.52c3.576,0,6.914-0.908,9.888-2.4c8.568,8.406,20.272,13.618,33.211,13.618
	c21.831,0,40.039-14.841,45.537-34.932c1.492,0.144,2.945,0.459,4.475,0.459c6.245,0,12.173-1.282,17.643-3.471
	c7.698,5.412,17.041,8.645,27.176,8.645c10.729,0,20.512-3.691,28.449-9.706c7.937,6.015,17.709,9.706,28.449,9.706
	c10.127,0,19.479-3.232,27.176-8.645c5.451,2.19,11.389,3.471,17.653,3.471c1.511,0,2.983-0.315,4.466-0.459
	c5.488,20.1,23.706,34.932,45.537,34.932c12.938,0,24.633-5.212,33.201-13.618c2.992,1.492,6.321,2.4,9.897,2.4
	c8.004,0,14.947-4.208,18.924-10.52c23.361-0.832,42.267-18.531,45.135-41.338c0.488,0.019,0.957,0.143,1.443,0.143
	c12.374,0,22.405-10.031,22.405-22.405C560.268,307.547,555.706,300.384,549.003,296.502z"/>
<path fill="#3A8708" d="M75.554,246.739c2.878,22.806,21.765,40.517,45.145,41.339c3.979,6.302,10.939,10.519,18.924,10.519
	c3.577,0,6.914-0.908,9.888-2.4c8.568,8.406,20.272,13.617,33.211,13.617c21.831,0,40.039-14.841,45.537-34.931
	c1.492,0.153,2.945,0.459,4.475,0.459c6.245,0,12.172-1.282,17.643-3.471c7.698,5.412,17.041,8.645,27.176,8.645
	c10.729,0,20.512-3.69,28.449-9.696c7.937,6.005,17.709,9.696,28.448,9.696c10.127,0,19.479-3.231,27.177-8.645
	c5.45,2.19,11.388,3.471,17.652,3.471c1.512,0,2.983-0.306,4.466-0.459c5.488,20.1,23.706,34.931,45.537,34.931
	c12.938,0,24.633-5.211,33.201-13.617c2.992,1.492,6.321,2.4,9.897,2.4c8.004,0,14.947-4.208,18.924-10.519
	c23.361-0.822,42.267-18.531,45.135-41.339c0.488,0.02,0.957,0.144,1.444,0.144c4.37,0,8.433-1.3,11.876-3.471
	c-4.15-6.226-9.687-11.465-16.228-15.186c-3.414-20.359-16.964-37.255-35.353-45.269c2.19-3.453,3.5-7.525,3.5-11.915
	c0-12.375-10.031-22.406-22.405-22.406c-3.825,0-7.383,1.043-10.557,2.745c-7.449-8.932-17.424-15.673-28.86-19.125
	c-2.984-23.304-22.683-41.368-46.81-41.368c-8.137,0-15.682,2.237-22.366,5.853C362.391,92.457,353.019,90,343.073,90
	c-14,0-26.851,4.81-37.083,12.813C295.75,94.81,282.907,90,268.907,90c-9.945,0-19.326,2.457-27.598,6.731
	c-6.694-3.614-14.239-5.853-22.386-5.853c-24.107,0-43.806,18.073-46.799,41.368c-11.418,3.452-21.41,10.193-28.86,19.125
	c-3.175-1.702-6.722-2.745-10.557-2.745c-12.384,0-22.415,10.031-22.415,22.406c0,4.39,1.32,8.462,3.51,11.915
	c-18.388,8.023-31.939,24.91-35.353,45.269c-6.551,3.72-12.086,8.96-16.228,15.186c3.433,2.18,7.506,3.471,11.876,3.471
	C74.607,246.873,75.076,246.758,75.554,246.739z"/>
<g>
	<path fill="#4A9B16" d="M265.933,151.964c2.084,6.895-10.624,6.847-24.986,11.141c-14.363,4.293-24.968,11.312-27.043,4.417
		c-2.047-6.894,7.927-15.96,22.3-20.253C250.557,142.976,263.868,145.08,265.933,151.964z"/>
	<path fill="#4A9B16" d="M147.272,201.987c1.482,4.925-7.545,4.886-17.767,7.927c-10.222,3.069-17.786,8.061-19.239,3.155
		c-1.473-4.916,5.642-11.36,15.864-14.43C136.352,195.589,145.818,197.081,147.272,201.987z"/>
	<path fill="#4A9B16" d="M194.692,159.605c2.314,4.58-6.579,6.139-16.104,10.939c-9.534,4.82-16.084,11.055-18.398,6.484
		c-2.314-4.58,3.547-12.163,13.082-16.982C182.796,155.235,192.378,155.044,194.692,159.605z"/>
	<path fill="#4A9B16" d="M290.317,123.909c0.201,5.125-8.539,2.849-19.182,3.271c-10.663,0.449-19.229,3.404-19.431-1.722
		c-0.2-5.116,8.281-9.6,18.943-10.041C281.3,114.996,290.117,118.792,290.317,123.909z"/>
	<path fill="#4A9B16" d="M235.333,107.394c2.209,4.628-6.722,6.005-16.313,10.605c-9.639,4.627-16.304,10.749-18.532,6.12
		c-2.2-4.619,3.806-12.096,13.406-16.725C223.523,102.794,233.125,102.785,235.333,107.394z"/>
	<circle fill="#4A9B16" cx="195.601" cy="144.745" r="5.604"/>
	<circle fill="#4A9B16" cx="140.855" cy="171.032" r="4.303"/>
	<circle fill="#4A9B16" cx="118.021" cy="236.966" r="7.325"/>
	<circle fill="#4A9B16" cx="189.567" cy="195.589" r="5.594"/>
	<circle fill="#4A9B16" cx="284.858" cy="103.798" r="2.592"/>
	<circle fill="#4A9B16" cx="234.368" cy="130.947" r="4.743"/>
	<circle fill="#4A9B16" cx="292.125" cy="156.813" r="3.873"/>
	<path fill="#4A9B16" d="M346.048,151.964c-2.095,6.895,10.623,6.847,24.986,11.141c14.362,4.293,24.968,11.312,27.033,4.417
		c2.057-6.894-7.918-15.96-22.29-20.253C361.424,142.976,348.114,145.08,346.048,151.964z"/>
	<path fill="#4A9B16" d="M464.699,201.987c-1.463,4.925,7.555,4.886,17.776,7.927c10.222,3.069,17.776,8.061,19.231,3.155
		c1.481-4.916-5.633-11.36-15.855-14.43C475.629,195.589,466.152,197.081,464.699,201.987z"/>
	<path fill="#4A9B16" d="M417.288,159.605c-2.323,4.58,6.579,6.139,16.104,10.939c9.543,4.82,16.084,11.055,18.389,6.484
		c2.323-4.58-3.538-12.163-13.072-16.982C429.185,155.235,419.594,155.044,417.288,159.605z"/>
	<path fill="#4A9B16" d="M321.673,123.909c-0.22,5.125,8.53,2.849,19.173,3.271c10.662,0.449,19.23,3.404,19.432-1.722
		c0.2-5.116-8.281-9.6-18.943-10.041C330.681,114.996,321.864,118.792,321.673,123.909z"/>
	<path fill="#4A9B16" d="M376.667,107.394c-2.218,4.628,6.704,6.005,16.294,10.605c9.64,4.627,16.294,10.749,18.531,6.12
		c2.219-4.619-3.796-12.096-13.405-16.725C388.457,102.794,378.848,102.785,376.667,107.394z"/>
	<circle fill="#4A9B16" cx="416.342" cy="144.745" r="5.604"/>
	<path fill="#4A9B16" d="M466.832,171.033c0,2.38,1.904,4.312,4.274,4.312c2.4,0,4.313-1.932,4.313-4.312
		c0-2.381-1.912-4.304-4.313-4.304C468.744,166.721,466.832,168.652,466.832,171.033z"/>
	<circle fill="#4A9B16" cx="493.989" cy="236.966" r="7.325"/>
	<circle fill="#4A9B16" cx="422.414" cy="195.589" r="5.594"/>
	<circle fill="#4A9B16" cx="327.162" cy="103.798" r="2.592"/>
	<circle fill="#4A9B16" cx="377.604" cy="130.947" r="4.743"/>
	<circle fill="#4A9B16" cx="319.846" cy="156.813" r="3.873"/>
</g>
<circle fill="#3E9311" cx="305.991" cy="478.238" r="10.308"/>
</svg>
