<?xml version="1.0" encoding="iso-8859-1"?>
<!-- Generator: Adobe Illustrator 19.0.0, SVG Export Plug-In . SVG Version: 6.00 Build 0)  -->
<svg version="1.1" id="Layer_1" xmlns="http://www.w3.org/2000/svg" xmlns:xlink="http://www.w3.org/1999/xlink" x="0px" y="0px"
	 viewBox="0 0 504.123 504.123" style="enable-background:new 0 0 504.123 504.123;" xml:space="preserve">
<path style="fill:#1E4405;" d="M126.74,166.873c-2.804,3.978-4.474,8.791-4.474,14.021c0,9.121,5.057,16.983,12.469,21.181
	c1.757,10.5,8.736,19.212,18.211,23.355c-1.111,1.78-1.804,3.883-1.804,6.144c0,6.372,5.175,11.548,11.563,11.548
	c1.969,0,3.805-0.536,5.435-1.418c3.844,4.616,8.995,8.074,14.88,9.862c1.536,12.012,11.689,21.339,24.119,21.339
	c4.214,0,8.105-1.166,11.555-3.033c4.261,2.213,9.106,3.474,14.234,3.474c7.223,0,13.848-2.473,19.125-6.617
	c5.278,4.135,11.91,6.617,19.125,6.617c5.128,0,9.972-1.26,14.234-3.474c3.45,1.859,7.357,3.033,11.548,3.033
	c12.43,0,22.591-9.326,24.127-21.339c5.892-1.788,11.036-5.246,14.88-9.862c1.646,0.874,3.466,1.418,5.435,1.418
	c6.396,0,11.563-5.175,11.563-11.548c0-2.261-0.677-4.372-1.804-6.144c9.476-4.135,16.479-12.855,18.227-23.355
	c7.404-4.198,12.461-12.06,12.461-21.181c0-5.23-1.67-10.043-4.466-14.021c3.45-2.009,5.805-5.695,5.805-9.972
	c0-6.388-5.167-11.563-11.555-11.563c-0.26,0-0.496,0.071-0.748,0.079c-1.481-11.752-11.225-20.89-23.276-21.323
	c-2.048-3.245-5.64-5.419-9.759-5.419c-1.835,0-3.56,0.473-5.096,1.245c-4.419-4.34-10.445-7.026-17.124-7.026
	c-11.256,0-20.645,7.656-23.473,18.015c-0.772-0.079-1.512-0.236-2.308-0.236c-3.23,0-6.294,0.662-9.098,1.796
	c-3.978-2.796-8.791-4.458-14.013-4.458c-5.53,0-10.579,1.906-14.667,5.002c-4.096-3.096-9.137-5.002-14.675-5.002
	c-5.207,0-10.035,1.662-13.997,4.458c-2.82-1.134-5.876-1.796-9.106-1.796c-0.788,0-1.528,0.165-2.292,0.236
	c-2.844-10.358-12.217-18.015-23.481-18.015c-6.672,0-12.698,2.686-17.124,7.026c-1.536-0.78-3.261-1.245-5.096-1.245
	c-4.128,0-7.712,2.174-9.767,5.419c-12.044,0.433-21.795,9.57-23.276,21.323c-0.244-0.008-0.488-0.079-0.74-0.079
	c-6.38,0-11.555,5.175-11.555,11.563C120.934,161.178,123.282,164.864,126.74,166.873z"/>
<path style="fill:#2A6602;" d="M280.56,258.418c0,14.572-11.815,17.479-26.388,17.479s-26.388-2.907-26.388-17.463
	c0-14.572,11.815-86.575,26.388-86.591C268.745,171.835,280.56,243.854,280.56,258.418z"/>
<path style="fill:#51B224;" d="M315.794,461.942c0,35.186-28.538,42.181-63.74,42.181s-63.74-7.003-63.74-42.181
	c0-35.202,28.538-209.172,63.74-209.172S315.794,426.74,315.794,461.942z"/>
<path style="fill:#3E9311;" d="M252.054,252.77c35.202,0,63.74,173.97,63.74,209.172c0,35.186-28.538,42.181-63.74,42.181"/>
<path style="fill:#51B224;" d="M255.842,280.505c12.721,12.737,4.947,25.6-7.79,38.321c-12.729,12.721-25.584,20.519-38.305,7.798
	c-12.737-12.737-65.347-85.984-52.626-98.714C169.858,215.174,243.105,267.784,255.842,280.505z"/>
<path style="fill:#3E9311;" d="M157.121,227.919c12.737-12.737,85.984,39.873,98.721,52.594c12.721,12.737,4.947,25.6-7.79,38.321"
	/>
<path style="fill:#51B224;" d="M248.265,280.505c-12.729,12.737-4.939,25.6,7.79,38.321c12.729,12.721,25.584,20.519,38.305,7.798
	c12.737-12.737,65.339-85.984,52.618-98.714C334.249,215.174,260.994,267.784,248.265,280.505z"/>
<path style="fill:#3E9311;" d="M346.978,227.919c-12.729-12.737-85.984,39.873-98.714,52.594c-12.729,12.737-4.939,25.6,7.79,38.321
	"/>
<path style="fill:#2F7005;" d="M452.23,170.102c4.474-6.349,7.144-14.037,7.144-22.41c0-14.572-8.074-27.128-19.905-33.839
	c-2.812-16.77-13.974-30.688-29.121-37.289c1.804-2.844,2.883-6.199,2.883-9.815c0-10.193-8.263-18.456-18.456-18.456
	c-3.151,0-6.081,0.859-8.696,2.261c-6.136-7.357-14.352-12.91-23.773-15.754c-2.458-19.196-18.684-34.076-38.558-34.076
	c-6.703,0-12.918,1.843-18.424,4.821C298.512,2.024,290.792,0,282.6,0c-11.532,0-22.118,3.962-30.547,10.555
	C243.618,3.962,233.039,0,221.507,0c-8.192,0-15.919,2.024-22.733,5.545c-5.514-2.977-11.729-4.821-18.44-4.821
	c-19.858,0-36.084,14.887-38.55,34.076c-9.405,2.844-17.636,8.397-23.773,15.754c-2.615-1.402-5.537-2.261-8.696-2.261
	c-10.201,0-18.464,8.263-18.464,18.456c0,3.616,1.087,6.971,2.891,9.815c-15.147,6.609-26.309,20.519-29.121,37.289
	c-11.815,6.711-19.889,19.267-19.889,33.839c0,8.365,2.67,16.061,7.136,22.41c-5.514,3.198-9.271,9.098-9.271,15.927
	c0,10.193,8.263,18.456,18.456,18.456c0.402,0,0.788-0.102,1.182-0.118c2.371,18.786,17.928,33.367,37.187,34.052
	c3.277,5.191,9.011,8.665,15.588,8.665c2.946,0,5.695-0.748,8.145-1.977c7.058,6.924,16.699,11.217,27.357,11.217
	c17.983,0,32.981-12.225,37.51-28.774c1.229,0.118,2.426,0.378,3.686,0.378c5.144,0,10.027-1.056,14.533-2.859
	c6.341,4.458,14.037,7.121,22.386,7.121c8.838,0,16.896-3.04,23.434-7.995c6.538,4.955,14.588,7.995,23.434,7.995
	c8.342,0,16.045-2.662,22.386-7.121c4.49,1.804,9.381,2.859,14.541,2.859c1.245,0,2.458-0.26,3.679-0.378
	c4.521,16.557,19.527,28.774,37.51,28.774c10.657,0,20.291-4.293,27.349-11.217c2.465,1.229,5.207,1.977,8.153,1.977
	c6.593,0,12.312-3.466,15.588-8.665c19.243-0.685,34.816-15.265,37.179-34.052c0.402,0.016,0.788,0.118,1.189,0.118
	c10.193,0,18.456-8.263,18.456-18.456C461.509,179.2,457.752,173.3,452.23,170.102z"/>
<path style="fill:#3A8708;" d="M62.236,129.111c2.371,18.786,17.928,33.375,37.187,34.052c3.277,5.191,9.011,8.665,15.588,8.665
	c2.946,0,5.695-0.748,8.145-1.977c7.058,6.924,16.699,11.217,27.357,11.217c17.983,0,32.981-12.225,37.51-28.774
	c1.229,0.126,2.426,0.378,3.686,0.378c5.144,0,10.027-1.056,14.533-2.859c6.341,4.458,14.037,7.121,22.386,7.121
	c8.838,0,16.896-3.04,23.434-7.987c6.538,4.947,14.588,7.987,23.434,7.987c8.342,0,16.045-2.662,22.386-7.121
	c4.49,1.804,9.381,2.859,14.541,2.859c1.245,0,2.458-0.252,3.679-0.378c4.521,16.557,19.527,28.774,37.51,28.774
	c10.657,0,20.291-4.293,27.349-11.217c2.465,1.229,5.207,1.977,8.153,1.977c6.593,0,12.312-3.466,15.588-8.665
	c19.243-0.677,34.816-15.265,37.179-34.052c0.402,0.016,0.788,0.118,1.189,0.118c3.6,0,6.947-1.071,9.783-2.859
	c-3.419-5.128-7.979-9.444-13.367-12.509c-2.812-16.77-13.974-30.688-29.121-37.289c1.804-2.844,2.883-6.199,2.883-9.815
	c0-10.193-8.263-18.456-18.456-18.456c-3.151,0-6.081,0.859-8.696,2.261c-6.136-7.357-14.352-12.91-23.773-15.754
	c-2.458-19.196-18.684-34.076-38.558-34.076c-6.703,0-12.918,1.843-18.424,4.821C298.512,2.024,290.792,0,282.6,0
	c-11.532,0-22.118,3.962-30.547,10.555C243.618,3.962,233.039,0,221.507,0c-8.192,0-15.919,2.024-22.733,5.545
	c-5.514-2.977-11.729-4.821-18.44-4.821c-19.858,0-36.084,14.887-38.55,34.076c-9.405,2.844-17.636,8.397-23.773,15.754
	c-2.615-1.402-5.537-2.261-8.696-2.261c-10.201,0-18.464,8.263-18.464,18.456c0,3.616,1.087,6.971,2.891,9.815
	c-15.147,6.609-26.309,20.519-29.121,37.289c-5.396,3.064-9.956,7.381-13.367,12.509c2.828,1.796,6.183,2.859,9.783,2.859
	C61.456,129.221,61.842,129.126,62.236,129.111z"/>
<g>
	<path style="fill:#4A9B16;" d="M219.057,51.042c1.717,5.679-8.751,5.64-20.582,9.177c-11.831,3.537-20.567,9.318-22.276,3.639
		c-1.686-5.679,6.53-13.147,18.369-16.683C206.391,43.638,217.356,45.371,219.057,51.042z"/>
	<path style="fill:#4A9B16;" d="M121.313,92.247c1.221,4.057-6.215,4.025-14.635,6.53c-8.42,2.528-14.651,6.64-15.848,2.599
		c-1.213-4.049,4.647-9.358,13.068-11.886C112.317,86.977,120.115,88.206,121.313,92.247z"/>
	<path style="fill:#4A9B16;" d="M160.374,57.336c1.906,3.773-5.419,5.057-13.265,9.011c-7.853,3.97-13.249,9.106-15.155,5.341
		c-1.906-3.773,2.922-10.019,10.776-13.989C150.575,53.736,158.468,53.579,160.374,57.336z"/>
	<path style="fill:#4A9B16;" d="M239.143,27.932c0.165,4.222-7.034,2.347-15.801,2.694c-8.783,0.37-15.84,2.804-16.006-1.418
		c-0.165-4.214,6.821-7.908,15.604-8.271C231.715,20.59,238.978,23.717,239.143,27.932z"/>
	<path style="fill:#4A9B16;" d="M193.851,14.328c1.82,3.812-5.537,4.947-13.438,8.736c-7.94,3.812-13.43,8.854-15.265,5.041
		c-1.812-3.805,3.135-9.964,11.043-13.777C184.123,10.539,192.032,10.531,193.851,14.328z"/>
	<circle style="fill:#4A9B16;" cx="161.122" cy="45.095" r="4.616"/>
	<circle style="fill:#4A9B16;" cx="116.027" cy="66.749" r="3.545"/>
	<circle style="fill:#4A9B16;" cx="97.217" cy="121.06" r="6.034"/>
	<circle style="fill:#4A9B16;" cx="156.152" cy="86.977" r="4.608"/>
	<circle style="fill:#4A9B16;" cx="234.646" cy="11.366" r="2.135"/>
	<circle style="fill:#4A9B16;" cx="193.056" cy="33.729" r="3.907"/>
	<circle style="fill:#4A9B16;" cx="240.632" cy="55.036" r="3.19"/>
	<path style="fill:#4A9B16;" d="M285.05,51.042c-1.725,5.679,8.751,5.64,20.582,9.177c11.831,3.537,20.567,9.318,22.268,3.639
		c1.694-5.679-6.522-13.147-18.361-16.683C297.716,43.638,286.752,45.371,285.05,51.042z"/>
	<path style="fill:#4A9B16;" d="M382.787,92.247c-1.205,4.057,6.223,4.025,14.643,6.53c8.42,2.528,14.643,6.64,15.841,2.599
		c1.221-4.049-4.64-9.358-13.06-11.886C391.79,86.977,383.984,88.206,382.787,92.247z"/>
	<path style="fill:#4A9B16;" d="M343.733,57.336c-1.914,3.773,5.419,5.057,13.265,9.011c7.861,3.97,13.249,9.106,15.147,5.341
		c1.914-3.773-2.914-10.019-10.768-13.989C353.532,53.736,345.632,53.579,343.733,57.336z"/>
	<path style="fill:#4A9B16;" d="M264.972,27.932c-0.181,4.222,7.026,2.347,15.793,2.694c8.783,0.37,15.841,2.804,16.006-1.418
		c0.165-4.214-6.821-7.908-15.604-8.271C272.392,20.59,265.129,23.717,264.972,27.932z"/>
	<path style="fill:#4A9B16;" d="M310.272,14.328c-1.827,3.812,5.522,4.947,13.422,8.736c7.94,3.812,13.422,8.854,15.265,5.041
		c1.827-3.805-3.127-9.964-11.043-13.777C319.984,10.539,312.068,10.531,310.272,14.328z"/>
	<circle style="fill:#4A9B16;" cx="342.953" cy="45.095" r="4.616"/>
	<path style="fill:#4A9B16;" d="M384.544,66.749c0,1.961,1.568,3.552,3.521,3.552c1.977,0,3.552-1.591,3.552-3.552
		s-1.575-3.545-3.552-3.545C386.119,63.197,384.544,64.788,384.544,66.749z"/>
	<circle style="fill:#4A9B16;" cx="406.914" cy="121.06" r="6.034"/>
	<circle style="fill:#4A9B16;" cx="347.955" cy="86.977" r="4.608"/>
	<circle style="fill:#4A9B16;" cx="269.493" cy="11.366" r="2.135"/>
	<circle style="fill:#4A9B16;" cx="311.044" cy="33.729" r="3.907"/>
	<circle style="fill:#4A9B16;" cx="263.467" cy="55.036" r="3.19"/>
</g>
<circle style="fill:#3E9311;" cx="252.054" cy="319.803" r="8.491"/>
<g>
</g>
<g>
</g>
<g>
</g>
<g>
</g>
<g>
</g>
<g>
</g>
<g>
</g>
<g>
</g>
<g>
</g>
<g>
</g>
<g>
</g>
<g>
</g>
<g>
</g>
<g>
</g>
<g>
</g>
</svg>
