<?xml version="1.0" encoding="utf-8"?>
<!-- Generator: Adobe Illustrator 16.0.0, SVG Export Plug-In . SVG Version: 6.00 Build 0)  -->
<!DOCTYPE svg PUBLIC "-//W3C//DTD SVG 1.1//EN" "http://www.w3.org/Graphics/SVG/1.1/DTD/svg11.dtd">
<svg version="1.1" id="Capa_1" xmlns="http://www.w3.org/2000/svg" xmlns:xlink="http://www.w3.org/1999/xlink" x="0px" y="0px"
	 width="792px" height="792px" viewBox="-90 0 792 792" enable-background="new -90 0 792 792" xml:space="preserve">
<polygon fill="#FFFFFF" points="545.638,344.631 442.798,344.631 175.414,344.631 72.574,344.631 34.986,642.867 577.662,642.867 
	"/>
<path fill="#556080" d="M545.638,344.631l32.024,298.236H34.986l37.588-298.236h102.84h267.384H545.638 M573.353,313.779h-27.715
	h-102.84H175.414H72.574H45.363l-3.404,26.996L4.371,639.011L0,673.719h34.986h542.676H612l-3.671-34.143l-32.024-298.235
	L573.353,313.779L573.353,313.779z"/>
<path fill="#EBBA16" d="M140.726,601.731c-2.643,0-5.276-0.165-7.908-0.483c-2.242-0.268-4.504-0.689-6.716-1.275
	c-5.502-1.419-8.803-7.034-7.384-12.526c1.419-5.502,7.024-8.844,12.526-7.384c1.357,0.34,2.715,0.607,4.073,0.771
	c4.144,0.515,8.34,0.381,12.495-0.154c5.677-0.668,10.788,3.281,11.487,8.916c0.71,5.636-3.28,10.778-8.916,11.487
	C147.164,601.505,143.924,601.731,140.726,601.731z M188.546,589.822c-4.124,0-8.011-2.499-9.595-6.582
	c-2.046-5.307,0.597-11.261,5.882-13.297c6.088-2.355,12.217-4.967,18.244-7.806c5.173-2.417,11.271-0.195,13.678,4.937
	c2.407,5.142,0.206,11.271-4.936,13.678c-6.458,3.033-13.05,5.841-19.57,8.36C191.035,589.606,189.781,589.822,188.546,589.822z
	 M102.706,572.011c-5.214,0-9.677-3.949-10.222-9.235c-0.206-2.026-0.288-4.063-0.288-6.088c0-1.193,0.031-2.386,0.093-3.568
	c0.236-4.823,1.018-9.688,2.314-14.46c1.481-5.502,7.168-8.771,12.608-7.239c5.481,1.48,8.731,7.116,7.24,12.607
	c-0.905,3.353-1.45,6.757-1.604,10.109c-0.041,0.844-0.072,1.697-0.072,2.551c0,1.326,0.051,2.674,0.195,4
	c0.576,5.656-3.548,10.695-9.194,11.282C103.405,571.99,103.056,572.011,102.706,572.011z M243.381,561.736
	c-3.363,0-6.664-1.646-8.639-4.679c-3.095-4.771-1.738-11.138,3.023-14.233c5.502-3.568,10.963-7.404,16.249-11.384
	c4.566-3.415,10.983-2.479,14.408,2.016c3.414,4.535,2.509,10.983-2.016,14.407c-5.677,4.269-11.539,8.382-17.432,12.218
	C247.237,561.202,245.304,561.736,243.381,561.736z M292.322,524.2c-3.178,0-6.304-1.471-8.33-4.227
	c-3.342-4.587-2.334-11.024,2.263-14.367c2.149-1.553,4.34-3.085,6.592-4.535c3.877-2.52,8.032-4.905,12.341-7.075
	c5.101-2.54,11.261-0.493,13.812,4.566c2.551,5.069,0.504,11.261-4.566,13.812c-3.641,1.83-7.127,3.825-10.387,5.934
	c-1.933,1.265-3.826,2.571-5.677,3.929C296.539,523.563,294.42,524.2,292.322,524.2z M128.231,519.336
	c-3.651,0-7.188-1.943-9.05-5.379c-2.715-4.987-0.854-11.229,4.134-13.935c5.327-2.89,11.014-4.689,16.907-5.348
	c2.982-0.339,6.098-0.329,9.163,0.082c5.625,0.741,9.595,5.903,8.844,11.539c-0.741,5.615-5.77,9.574-11.539,8.844
	c-1.368-0.185-2.787-0.185-4.175-0.021c-3.25,0.35-6.407,1.357-9.39,2.973C131.563,518.935,129.887,519.336,128.231,519.336z
	 M348.658,500.29c-4.751,0-9.02-3.302-10.048-8.135c-1.183-5.563,2.355-11.024,7.908-12.207c6.613-1.419,13.729-2.592,21.165-3.518
	c5.687-0.833,10.768,3.291,11.467,8.938c0.699,5.636-3.302,10.777-8.938,11.467c-6.839,0.854-13.369,1.933-19.396,3.219
	C350.088,500.218,349.367,500.29,348.658,500.29z M409.95,493.944c-5.481,0-10.047-4.329-10.263-9.862
	c-0.227-5.677,4.175-10.469,9.852-10.695l20.496-0.843c5.656-0.515,10.489,4.124,10.747,9.811
	c0.257,5.667-4.135,10.479-9.812,10.736l-20.588,0.844C410.249,493.944,410.095,493.944,409.95,493.944z M471.438,489.389
	c-4.782,0-9.061-3.342-10.068-8.206c-1.142-5.564,2.428-11.004,7.991-12.156c5.944-1.224,10.346-2.941,13.853-5.398
	c4.494-3.507,11.333-2.932,14.788,1.532c3.486,4.494,3.044,10.685-1.439,14.171c-0.565,0.432-1.132,0.854-1.738,1.255
	c-5.595,3.949-12.639,6.798-21.309,8.587C472.827,489.316,472.117,489.389,471.438,489.389z M513.284,447.944
	c-1.008,0-2.026-0.154-3.044-0.463c-5.42-1.676-8.464-7.445-6.777-12.865c0.545-1.759,0.885-3.507,0.997-5.203l0.042-1.193
	c0-2.355-0.453-4.751-1.337-7.137c-1.975-5.327,0.729-11.241,6.067-13.215c5.285-1.965,11.25,0.729,13.215,6.067
	c1.737,4.679,2.622,9.492,2.622,14.295c0,0.863-0.03,1.717-0.082,2.57c-0.227,3.332-0.864,6.644-1.882,9.914
	C521.748,445.116,517.676,447.944,513.284,447.944z M461.247,405.708c-4.483,0-8.607-2.951-9.883-7.497
	c-1.543-5.461,1.625-11.147,7.096-12.68c8.012-2.262,16.424-2.941,24.538-1.851c5.625,0.761,9.574,5.934,8.813,11.569
	c-0.751,5.626-5.821,9.574-11.57,8.813c-5.357-0.709-10.88-0.236-16.197,1.244C463.108,405.585,462.183,405.708,461.247,405.708z"/>
<path fill="#DD352E" d="M420.039,212.698c-5.389-41.125-26.882-94.417-111.293-94.417c-84.401,0-105.905,53.292-111.293,94.417
	c-2.952,22.542-1.296,45.445,3.394,67.689c25.803,122.308,89.574,195.622,104.66,211.613c1.769,1.872,4.71,1.872,6.479,0
	c15.087-15.991,78.857-89.306,104.66-211.613C421.346,258.143,423.001,235.241,420.039,212.698z M308.746,292.307
	c-36.046,0-65.263-29.217-65.263-65.262s29.217-65.252,65.263-65.252c36.045,0,65.262,29.217,65.262,65.252
	C374.008,263.09,344.791,292.307,308.746,292.307z"/>
<g>
	<path fill="#B02721" d="M308.756,151.509c-41.66,0-75.546,33.886-75.546,75.536c0,41.661,33.886,75.546,75.546,75.546
		c41.661,0,75.547-33.886,75.547-75.546C384.292,185.395,350.406,151.509,308.756,151.509z M308.756,282.022
		c-30.307,0-54.978-24.661-54.978-54.978c0-30.317,24.661-54.968,54.978-54.968c30.317,0,54.979,24.65,54.979,54.968
		C363.734,257.361,339.063,282.022,308.756,282.022z"/>
</g>
</svg>
