<?xml version="1.0" encoding="utf-8"?>
<!-- Generator: Adobe Illustrator 16.0.0, SVG Export Plug-In . SVG Version: 6.00 Build 0)  -->
<!DOCTYPE svg PUBLIC "-//W3C//DTD SVG 1.1//EN" "http://www.w3.org/Graphics/SVG/1.1/DTD/svg11.dtd">
<svg version="1.1" id="Capa_1" xmlns="http://www.w3.org/2000/svg" xmlns:xlink="http://www.w3.org/1999/xlink" x="0px" y="0px"
	 width="792px" height="792px" viewBox="-90 0 792 792" enable-background="new -90 0 792 792" xml:space="preserve">
<rect y="153.311" fill="#556080" width="612" height="400.965"/>
<rect x="517.034" y="195.517" fill="#61B872" width="42.207" height="42.207"/>
<path fill="#FBCE9D" d="M414.957,457.348c1.709-1.16,3.472-2.227,5.149-3.43c-3.05-2.69-6.426-5.054-10.172-6.922l-49.213-31.845
	c-7.313-3.651-21.104-2.374-21.104-10.552v-22.211c1.593-1.804,13.96-9.338,15.901-12.082c7.713-10.89,15.574-22.876,19.626-35.443
	c7.26-2.237,17.23-8.938,17.23-16.904V294.26c0-2.058-1.076-4.031-2.616-5.867c-4.896-5.867-7.936-13.053-7.936-20.692v-10.836
	c0,0-1.667-63.311-73.861-63.311c-72.195,0-73.862,63.311-73.862,63.311v10.836c0,7.639-3.039,14.835-7.935,20.692
	c-1.53,1.836-2.617,3.809-2.617,5.867v23.699c0,6.247,7.914,11.733,12.82,14.91c5.919,25.778,39.938,44.328,39.938,44.328v21.652
	c0,7.893-19.394,15.163-26.327,18.951l-49.667,28.827c-3.609,1.974-6.837,4.432-9.76,7.176c1.72,1.245,3.556,2.363,5.318,3.556
	h219.085V457.348z"/>
<rect x="52.759" y="448.759" fill="#EBBA16" width="52.758" height="52.759"/>
<polygon fill="#424A60" points="327.104,607.034 327.104,554.275 284.896,554.275 284.896,607.034 232.138,607.034 232.138,638.689 
	379.862,638.689 379.862,607.034 "/>
<rect x="147.724" y="448.759" fill="#D75A4A" width="411.517" height="52.759"/>
</svg>
