<?xml version="1.0" encoding="utf-8"?>
<!-- Generator: Adobe Illustrator 16.0.0, SVG Export Plug-In . SVG Version: 6.00 Build 0)  -->
<!DOCTYPE svg PUBLIC "-//W3C//DTD SVG 1.1//EN" "http://www.w3.org/Graphics/SVG/1.1/DTD/svg11.dtd">
<svg version="1.1" id="Capa_1" xmlns="http://www.w3.org/2000/svg" xmlns:xlink="http://www.w3.org/1999/xlink" x="0px" y="0px"
	 width="792px" height="792px" viewBox="-90 0 792 792" enable-background="new -90 0 792 792" xml:space="preserve">
<path fill="#EA6248" d="M580.958,92.776c-2.408-2.107-5.586-3.066-8.797-2.687l-345.649,44.722
	c-5.564,0.725-9.723,5.453-9.723,11.061v67.089v46.964v290.289c-19.368-22.188-49.573-36.516-83.614-36.516
	c-58.504,0-105.925,42.158-105.925,94.15S74.671,702,133.175,702S239.1,659.842,239.1,607.85c0-3.702-0.301-7.337-0.77-10.938
	c0.446-1.204,0.77-2.464,0.77-3.824V269.715l323.349-41.846v210.834c-19.379-22.177-49.584-36.505-83.625-36.505
	c-58.504,0-105.925,42.158-105.925,94.15s47.421,94.15,105.925,94.15s105.925-42.158,105.925-94.15c0-1.025-0.134-2.018-0.167-3.032
	c0.022-0.302,0.167-0.558,0.167-0.859V215.181v-46.952V101.15C584.749,97.939,583.367,94.884,580.958,92.776z"/>
</svg>
