<?xml version="1.0" encoding="utf-8"?>
<!-- Generator: Adobe Illustrator 16.0.0, SVG Export Plug-In . SVG Version: 6.00 Build 0)  -->
<!DOCTYPE svg PUBLIC "-//W3C//DTD SVG 1.1//EN" "http://www.w3.org/Graphics/SVG/1.1/DTD/svg11.dtd">
<svg version="1.1" id="Layer_1" xmlns="http://www.w3.org/2000/svg" xmlns:xlink="http://www.w3.org/1999/xlink" x="0px" y="0px"
	 width="792px" height="792px" viewBox="-90 0 792 792" enable-background="new -90 0 792 792" xml:space="preserve">
<path fill="#5DACD8" d="M548.985,379.966c18.243-35.107,26.058-69.766,22.578-100.543l-1.172-10.359l-20.718,2.344l1.171,10.358
	c2.624,23.204-2.387,49.358-14.498,76.465c-16.573-25.833-38.437-51.16-64.115-74.206c-7.134-33.794-18.143-65.398-32.228-92.655
	c29.535,3.059,54.698,11.806,73.489,25.705l8.382,6.199l12.398-16.763l-8.382-6.199c-24.929-18.437-58.864-29.007-98.394-30.75
	C394.797,118.202,351.818,90,305.997,90s-88.801,28.204-121.502,79.562c-39.522,1.743-73.456,12.308-98.389,30.734l-8.384,6.197
	l12.392,16.768l8.384-6.196c18.797-13.892,43.961-22.635,73.493-25.693c-14.084,27.258-25.094,58.862-32.226,92.655
	c-25.682,23.048-47.544,48.374-64.117,74.206c-12.111-27.107-17.122-53.262-14.498-76.465l1.171-10.358l-20.718-2.344l-1.171,10.359
	c-3.481,30.776,4.334,65.434,22.576,100.543c-28.13,54.027-31.067,105.357-8.16,145.027c22.912,39.677,68.836,62.798,129.684,65.448
	c21.252,33.342,47.362,57.441,75.79,69.825l9.558,4.163l8.328-19.115l-9.557-4.163c-21.427-9.335-41.571-26.746-58.971-50.772
	c30.645-1.438,63.512-7.721,96.318-18.435c32.808,10.714,65.672,16.997,96.318,18.435c-17.399,24.025-37.543,41.438-58.972,50.772
	l-9.557,4.163l8.328,19.115l9.558-4.163c28.429-12.385,54.54-36.486,75.79-69.825c60.849-2.652,106.772-25.773,129.684-65.448
	C580.052,485.321,577.114,433.993,548.985,379.966z M525.209,379.99c-12.105,20.942-28.107,41.782-47.127,61.441
	c2.61-20.092,3.953-40.648,3.953-61.441c0-20.789-1.343-41.34-3.953-61.43C497.106,338.221,513.107,359.058,525.209,379.99z
	 M415.593,569.838c-24.17-0.015-50.213-3.454-76.757-10.097c18.692-7.783,37.164-16.897,55.182-27.299
	c18.014-10.398,35.142-21.837,51.228-34.136C437.719,524.632,427.671,548.908,415.593,569.838z M196.4,569.838
	c-12.078-20.928-22.125-45.204-29.65-71.531c16.086,12.299,33.215,23.736,51.228,34.136c18.017,10.401,36.49,19.518,55.182,27.3
	C246.615,566.385,220.576,569.825,196.4,569.838z M273.159,200.237c-18.692,7.783-37.164,16.897-55.182,27.299
	c-18.019,10.403-35.145,21.841-51.223,34.136c7.524-26.321,17.571-50.598,29.647-71.533
	C220.574,190.155,246.614,193.595,273.159,200.237z M228.402,514.386c-25.185-14.54-48.56-31.168-69.581-49.423
	c-5.299-27.349-8.014-55.906-8.014-84.973c0-29.058,2.715-57.613,8.015-84.961c21.004-18.252,44.379-34.885,69.581-49.434
	c25.192-14.545,51.282-26.474,77.594-35.55c26.311,9.075,52.401,21.004,77.594,35.55c25.2,14.548,48.572,31.179,69.581,49.434
	c5.299,27.349,8.014,55.904,8.014,84.961c0,29.067-2.715,57.625-8.014,84.974c-21.02,18.253-44.395,34.881-69.581,49.422
	c-25.192,14.545-51.28,26.475-77.594,35.55C279.685,540.859,253.596,528.931,228.402,514.386z M415.592,190.141
	c12.076,20.934,22.123,45.21,29.648,71.533c-16.079-12.296-33.206-23.734-51.224-34.137c-18.018-10.402-36.49-19.517-55.181-27.299
	C365.38,193.596,391.424,190.157,415.592,190.141z M305.997,110.85c35.132,0,68.861,20.723,96.347,58.767
	c-30.651,1.435-63.528,7.704-96.349,18.42c-32.82-10.718-65.697-16.991-96.348-18.423
	C237.136,131.573,270.865,110.85,305.997,110.85z M133.91,318.56c-2.609,20.089-3.953,40.641-3.953,61.43
	c0,20.795,1.342,41.35,3.953,61.441c-19.02-19.661-35.022-40.5-47.127-61.441C98.884,359.058,114.885,338.223,133.91,318.56z
	 M72.905,514.565c-17.564-30.415-16.478-69.995,2.728-112.839c16.58,25.853,38.447,51.191,64.131,74.239
	c7.135,33.805,18.146,65.413,32.233,92.661C125.292,563.835,90.47,544.986,72.905,514.565z M539.088,514.565
	c-17.566,30.422-52.389,49.27-99.091,54.062c14.088-27.251,25.098-58.857,32.232-92.659c25.686-23.05,47.552-48.388,64.132-74.24
	C555.564,444.572,556.65,484.15,539.088,514.565z"/>
<circle fill="#4EB79B" cx="305.992" cy="379.984" r="88.084"/>
<path fill="#40A084" d="M305.997,468.075c-48.651,0-88.084-39.435-88.084-88.084c0-48.65,39.435-88.084,88.084-88.084
	c-27.054,0-48.964,39.435-48.964,88.084C257.032,428.641,278.944,468.075,305.997,468.075z"/>
<g>
	<circle fill="#F7A872" cx="305.992" cy="659.557" r="42.443"/>
	<circle fill="#F7A872" cx="548.117" cy="240.204" r="42.443"/>
	<circle fill="#F7A872" cx="63.883" cy="240.204" r="42.443"/>
</g>
<g>
	<path fill="#E09461" d="M63.442,282.209c-7.654,0-14.825-2.045-21.002-5.638c-12.546-7.244-21.002-20.826-21.002-36.367
		c0-23.207,18.811-42.003,42.004-42.003c-10.764,0-19.483,18.797-19.483,42.003c0,15.539,3.928,29.122,9.741,36.367
		C56.564,280.165,59.894,282.209,63.442,282.209z"/>
	<path fill="#E09461" d="M547.673,282.209c-7.654,0-14.825-2.045-21.002-5.638c-12.546-7.244-21.002-20.826-21.002-36.367
		c0-23.207,18.811-42.003,42.004-42.003c-10.765,0-19.483,18.797-19.483,42.003c0,15.539,3.929,29.122,9.741,36.367
		C540.793,280.165,544.125,282.209,547.673,282.209z"/>
	<path fill="#E09461" d="M305.558,701.563c-7.653,0-14.824-2.045-21.001-5.638c-12.546-7.244-21.002-20.826-21.002-36.367
		c0-23.207,18.811-42.003,42.003-42.003c-10.764,0-19.482,18.797-19.482,42.003c0,15.539,3.928,29.122,9.741,36.367
		C298.679,699.521,302.008,701.563,305.558,701.563z"/>
</g>
</svg>
