<?xml version="1.0" encoding="iso-8859-1"?>
<!-- Generator: Adobe Illustrator 19.0.0, SVG Export Plug-In . SVG Version: 6.00 Build 0)  -->
<svg version="1.1" id="Layer_1" xmlns="http://www.w3.org/2000/svg" xmlns:xlink="http://www.w3.org/1999/xlink" x="0px" y="0px"
	 viewBox="0 0 511.996 511.996" style="enable-background:new 0 0 511.996 511.996;" xml:space="preserve">
<path style="fill:#5DACD8;" d="M459.278,242.584c15.262-29.371,21.8-58.366,18.889-84.114l-0.98-8.666l-17.333,1.961l0.98,8.666
	c2.195,19.412-1.997,41.293-12.129,63.97c-13.865-21.612-32.156-42.8-53.639-62.08c-5.968-28.272-15.178-54.712-26.961-77.515
	c24.709,2.559,45.76,9.877,61.481,21.505l7.012,5.186l10.372-14.024l-7.012-5.186c-20.855-15.424-49.245-24.267-82.315-25.726
	C330.285,23.594,294.329,0,255.995,0s-74.29,23.595-101.648,66.561c-33.064,1.458-61.453,10.297-82.312,25.712l-7.014,5.184
	l10.367,14.028l7.014-5.184c15.726-11.622,36.778-18.936,61.484-21.495c-11.783,22.804-20.993,49.244-26.96,77.515
	c-21.485,19.282-39.775,40.469-53.64,62.08c-10.132-22.678-14.324-44.559-12.129-63.97l0.98-8.666l-17.333-1.961l-0.98,8.666
	c-2.912,25.747,3.626,54.742,18.887,84.114c-23.533,45.199-25.99,88.141-6.826,121.329c19.168,33.193,57.588,52.536,108.493,54.754
	c17.779,27.893,39.623,48.055,63.405,58.415l7.996,3.483l6.967-15.992l-7.995-3.483c-17.926-7.809-34.778-22.375-49.335-42.476
	c25.637-1.202,53.134-6.459,80.579-15.422c27.447,8.963,54.941,14.22,80.579,15.422c-14.556,20.1-31.408,34.667-49.335,42.476
	l-7.995,3.483l6.967,15.992l7.996-3.483c23.783-10.361,45.628-30.524,63.405-58.415c50.906-2.219,89.326-21.562,108.493-54.754
	C485.268,330.724,482.811,287.783,459.278,242.584z M439.387,242.604c-10.127,17.52-23.514,34.954-39.426,51.401
	c2.184-16.809,3.307-34.006,3.307-51.401c0-17.392-1.123-34.585-3.307-51.392C415.877,207.66,429.263,225.092,439.387,242.604z
	 M347.683,401.43c-20.221-0.012-42.008-2.89-64.215-8.447c15.638-6.511,31.092-14.136,46.165-22.838
	c15.07-8.699,29.399-18.269,42.857-28.558C366.193,363.611,357.787,383.92,347.683,401.43z M164.307,401.43
	c-10.104-17.508-18.509-37.818-24.805-59.843c13.458,10.289,27.788,19.858,42.857,28.558c15.073,8.702,30.527,16.328,46.165,22.839
	C206.317,398.541,184.533,401.419,164.307,401.43z M228.523,92.224c-15.638,6.511-31.091,14.136-46.165,22.838
	c-15.074,8.703-29.402,18.272-42.853,28.558c6.295-22.02,14.7-42.33,24.803-59.844C184.531,83.789,206.316,86.667,228.523,92.224z
	 M191.08,355.039c-21.07-12.164-40.625-26.075-58.211-41.347c-4.433-22.88-6.704-46.771-6.704-71.088
	c0-24.31,2.271-48.199,6.705-71.078c17.572-15.27,37.127-29.185,58.211-41.356c21.076-12.168,42.902-22.148,64.915-29.741
	c22.012,7.592,43.838,17.572,64.915,29.741c21.082,12.171,40.635,26.084,58.211,41.356c4.433,22.88,6.704,46.769,6.704,71.078
	c0,24.317-2.271,48.208-6.704,71.089c-17.585,15.27-37.14,29.181-58.211,41.346c-21.076,12.168-42.901,22.148-64.915,29.741
	C233.983,377.187,212.157,367.207,191.08,355.039z M347.682,83.777c10.103,17.513,18.508,37.823,24.804,59.844
	c-13.452-10.287-27.78-19.856-42.854-28.559c-15.073-8.702-30.527-16.328-46.164-22.838
	C305.675,86.668,327.463,83.791,347.682,83.777z M255.995,17.443c29.392,0,57.609,17.337,80.604,49.164
	c-25.643,1.2-53.148,6.445-80.605,15.41c-27.457-8.967-54.962-14.215-80.604-15.413C198.387,34.78,226.604,17.443,255.995,17.443z
	 M112.028,191.212c-2.183,16.807-3.307,34-3.307,51.392c0,17.397,1.123,34.593,3.307,51.401
	c-15.912-16.448-29.299-33.882-39.426-51.401C82.726,225.092,96.112,207.662,112.028,191.212z M60.992,355.189
	c-14.694-25.445-13.785-58.557,2.282-94.4c13.871,21.628,32.165,42.826,53.652,62.108c5.969,28.281,15.181,54.724,26.966,77.52
	C104.819,396.408,75.687,380.639,60.992,355.189z M450.998,355.189c-14.696,25.451-43.828,41.219-82.899,45.228
	c11.786-22.798,20.997-49.24,26.966-77.518c21.488-19.284,39.781-40.481,53.652-62.109
	C464.782,296.633,465.691,329.744,450.998,355.189z"/>
<circle style="fill:#4EB79B;" cx="255.991" cy="242.599" r="73.691"/>
<path style="fill:#40A084;" d="M255.995,316.296c-40.701,0-73.691-32.991-73.691-73.691s32.991-73.691,73.691-73.691
	c-22.633,0-40.963,32.991-40.963,73.691S233.363,316.296,255.995,316.296z"/>
<g>
	<circle style="fill:#F7A872;" cx="255.991" cy="476.488" r="35.508"/>
	<circle style="fill:#F7A872;" cx="458.552" cy="125.66" r="35.508"/>
	<circle style="fill:#F7A872;" cx="53.444" cy="125.66" r="35.508"/>
</g>
<g>
	<path style="fill:#E09461;" d="M53.075,160.801c-6.403,0-12.402-1.711-17.57-4.717c-10.496-6.06-17.57-17.423-17.57-30.424
		c0-19.415,15.737-35.14,35.14-35.14c-9.005,0-16.299,15.726-16.299,35.14c0,13,3.286,24.363,8.149,30.424
		C47.321,159.091,50.107,160.801,53.075,160.801z"/>
	<path style="fill:#E09461;" d="M458.18,160.801c-6.403,0-12.402-1.711-17.57-4.717c-10.496-6.06-17.57-17.423-17.57-30.424
		c0-19.415,15.737-35.14,35.14-35.14c-9.005,0-16.299,15.726-16.299,35.14c0,13,3.286,24.363,8.149,30.424
		C452.425,159.091,455.212,160.801,458.18,160.801z"/>
	<path style="fill:#E09461;" d="M255.628,511.631c-6.403,0-12.402-1.711-17.57-4.717c-10.496-6.06-17.57-17.423-17.57-30.424
		c0-19.415,15.737-35.14,35.14-35.14c-9.005,0-16.299,15.726-16.299,35.14c0,13,3.286,24.363,8.149,30.424
		C249.873,509.922,252.658,511.631,255.628,511.631z"/>
</g>
<g>
</g>
<g>
</g>
<g>
</g>
<g>
</g>
<g>
</g>
<g>
</g>
<g>
</g>
<g>
</g>
<g>
</g>
<g>
</g>
<g>
</g>
<g>
</g>
<g>
</g>
<g>
</g>
<g>
</g>
</svg>
