<?xml version="1.0" encoding="iso-8859-1"?>
<!-- Generator: Adobe Illustrator 19.0.0, SVG Export Plug-In . SVG Version: 6.00 Build 0)  -->
<svg version="1.1" id="Layer_1" xmlns="http://www.w3.org/2000/svg" xmlns:xlink="http://www.w3.org/1999/xlink" x="0px" y="0px"
	 viewBox="0 0 512.001 512.001" style="enable-background:new 0 0 512.001 512.001;" xml:space="preserve">
<rect x="265.896" y="81.464" style="fill:#FFBCAB;" width="28.74" height="42.814"/>
<rect x="265.896" y="81.464" style="fill:#FF9478;" width="28.74" height="23.717"/>
<g>
	<path style="fill:#FFBCAB;" d="M310.573,124.277l52.826,58.506l51.127-33.969l2.837,4.626c6.628,10.809,3.511,24.926-7.054,31.938
		l-36.191,24.018c-8.336,5.456-19.392,4.104-26.169-3.198l-40.958-45.066L310.573,124.277z"/>
	<path style="fill:#FFBCAB;" d="M243.154,417.033l29.898-135.746l-48.276,17.967l-14.664,88.41
		c-0.238,1.437-1.481,2.491-2.938,2.491h-80.075l-8.958,29.449l113.014,6.516C236.843,426.449,241.928,422.597,243.154,417.033z"/>
</g>
<path style="fill:#9CE0B8;" d="M91.161,461.606v-71.528h37.084l-17.662,62.528c-1.921,6.573-7.947,9-14.795,9H91.161z"/>
<path style="fill:#781900;" d="M316.886,12.46C312.268,4.999,304.008,0,294.636,0h-25.08c-14.383,0-26.152,11.768-26.152,26.152
	v21.176C287.151,45.728,308.797,23.493,316.886,12.46z"/>
<path style="fill:#FFBCAB;" d="M243.404,47.327v21.384c0,14.383,11.768,26.152,26.152,26.152h25.08
	c14.383,0,26.152-11.768,26.152-26.152V26.152c0-5.01-1.432-9.702-3.9-13.691C308.797,23.493,287.151,45.728,243.404,47.327z"/>
<path style="fill:#9CE0B8;" d="M373.526,512h-71.528v-37.083l60.925,17.804c6.283,1.836,10.603,7.598,10.603,14.145V512z"/>
<path style="fill:#FFBCAB;" d="M329.36,483.575l-27.362-8.658V374.732l2.432,3.969l-57.162-97.604l50.053-14.909l39.581,94.474
	c0.692,1.652,0.987,3.445,0.859,5.232L329.36,483.575z"/>
<path style="fill:#52A2E7;" d="M318.605,316.987l-21.283-50.801l15.642-132.803c0.743-7.436-4.733-14.127-12.169-14.87
	l-43.225-4.319l-16.706,28.754l-7.487,63.715l-3.652,33.637c-16.056,16.056-17.697,41.054-4.947,58.952l-0.003,0.001l-7.75,46.721
	c11.206,0.06,29.921,0.145,41.753,0.117l7.257-32.95l17.457,29.808L318.605,316.987z"/>
<g>
	<path style="fill:#315591;" d="M237.861,168.506c0.041-0.349-3.697,31.459-3.697,31.459l69.696,10.71l3.863-32.797L237.861,168.506
		z"/>
</g>
<g style="opacity:0.46;">
	<path style="fill:#24763D;" d="M302.027,504.137v7.864h71.528v-5.135c0-0.929-0.096-1.84-0.263-2.729H302.027z"/>
</g>
<g style="opacity:0.46;">
	<path style="fill:#24763D;" d="M99.025,390.079h-7.864v71.528h5.135c0.929,0,1.841-0.096,2.729-0.263V390.079z"/>
</g>
<path style="fill:#FFBCAB;" d="M255.942,142.459l-64.63,2.087l-7.086,60.974l-5.315-0.814c-12.561-1.924-21.344-13.447-19.87-26.069
	l5.03-43.093c1.219-9.888,9.391-17.456,19.342-17.915l71.379-3.485c7.91-0.386,14.601,5.786,14.853,13.702l0,0
	C269.895,135.665,263.761,142.206,255.942,142.459z"/>
<polygon style="fill:#315591;" points="256.133,296.233 259.513,342.753 266.048,313.084 "/>
<g>
</g>
<g>
</g>
<g>
</g>
<g>
</g>
<g>
</g>
<g>
</g>
<g>
</g>
<g>
</g>
<g>
</g>
<g>
</g>
<g>
</g>
<g>
</g>
<g>
</g>
<g>
</g>
<g>
</g>
</svg>
