<?xml version="1.0" encoding="iso-8859-1"?>
<!-- Generator: Adobe Illustrator 19.0.0, SVG Export Plug-In . SVG Version: 6.00 Build 0)  -->
<svg version="1.1" id="Layer_1" xmlns="http://www.w3.org/2000/svg" xmlns:xlink="http://www.w3.org/1999/xlink" x="0px" y="0px"
	 viewBox="0 0 512 512" style="enable-background:new 0 0 512 512;" xml:space="preserve">
<path style="fill:#FFBCAB;" d="M391.359,0.087c0,51.218-31.336,49.512-31.336,136.49c0,86.349,72.073,146.584,72.073,236.414
	s-53.272,138.92-53.272,138.92H129.701c0,0-53.272-49.089-53.272-138.92s72.073-150.066,72.073-236.414
	c0-86.978-31.336-85.272-31.336-136.49C117.166,0.087,391.359,0.087,391.359,0.087z"/>
<path style="fill:#F29E91;" d="M247.992,511.913V391.751c0-4.326,3.508-7.834,7.834-7.834c4.328,0,7.834,3.508,7.834,7.834v120.162
	H247.992z"/>
<g>
	<path style="fill:#9CE0B8;" d="M0,164.258h52.83c2.552,0,4.62-2.068,4.62-4.62v-18.695c0-4.117,4.977-6.177,7.887-3.267
		l32.455,33.499c1.804,1.804,1.804,4.73,0,6.535L67.34,208.162c-2.911,2.911-7.887,0.849-7.887-3.267v-11.992
		c0-2.552-2.068-4.62-4.62-4.62H0V164.258z"/>
	<path style="fill:#9CE0B8;" d="M512,181.581h-52.83c-2.552,0-4.62,2.068-4.62,4.62v18.695c0,4.117-4.977,6.177-7.887,3.267
		l-32.455-33.5c-1.804-1.804-1.804-4.73,0-6.535l30.453-30.453c2.911-2.911,7.887-0.849,7.887,3.267v11.992
		c0,2.552,2.068,4.62,4.62,4.62h54.831v24.024H512z"/>
</g>
<g>
	<path style="fill:#F29E91;" d="M404.182,271.553L288.977,396.094c-18.613,18.613-48.791,18.613-67.403,0L104.342,271.553H404.182z"
		/>
	<path style="fill:#F29E91;" d="M256.09,204.69c-4.327,0-7.834-3.508-7.834-7.834v-16.567c0-4.326,3.508-7.834,7.834-7.834
		c4.328,0,7.834,3.508,7.834,7.834v16.567C263.924,201.182,260.417,204.69,256.09,204.69z"/>
</g>
<path style="fill:#52A2E7;" d="M404.182,271.553L288.977,385.491c-18.613,18.613-48.791,18.613-67.403,0L104.342,271.553H404.182z"
	/>
<g>
</g>
<g>
</g>
<g>
</g>
<g>
</g>
<g>
</g>
<g>
</g>
<g>
</g>
<g>
</g>
<g>
</g>
<g>
</g>
<g>
</g>
<g>
</g>
<g>
</g>
<g>
</g>
<g>
</g>
</svg>
