<?xml version="1.0" encoding="iso-8859-1"?>
<!-- Generator: Adobe Illustrator 19.0.0, SVG Export Plug-In . SVG Version: 6.00 Build 0)  -->
<svg version="1.1" id="Layer_1" xmlns="http://www.w3.org/2000/svg" xmlns:xlink="http://www.w3.org/1999/xlink" x="0px" y="0px"
	 viewBox="0 0 512 512" style="enable-background:new 0 0 512 512;" xml:space="preserve">
<g>
	<path style="fill:#314E55;" d="M101.001,79.287c0-5.473-4.433-9.911-9.911-9.911H50.285l48.131-52.787
		c2.642-2.904,3.33-7.089,1.742-10.68S95.02,0,91.09,0H27.831c-5.478,0-9.911,4.438-9.911,9.911s4.433,9.911,9.911,9.911h40.805
		L20.504,72.608c-2.642,2.904-3.33,7.089-1.742,10.68c1.587,3.591,5.139,5.909,9.069,5.909H91.09
		C96.568,89.197,101.001,84.76,101.001,79.287z"/>
	<path style="fill:#314E55;" d="M136.85,69.376h40.805l-48.132,52.787c-2.642,2.904-3.33,7.089-1.742,10.68s5.139,5.909,9.069,5.909
		h63.259c5.478,0,9.911-4.438,9.911-9.911c0-5.473-4.433-9.911-9.911-9.911h-40.805l48.131-52.787
		c2.642-2.904,3.33-7.089,1.742-10.68c-1.587-3.591-5.14-5.909-9.069-5.909H136.85c-5.478,0-9.911,4.438-9.911,9.911
		S131.372,69.376,136.85,69.376z"/>
	<path style="fill:#314E55;" d="M120.794,218.038c0-5.473-4.433-9.911-9.911-9.911H91.864l26.761-33.454
		c2.381-2.971,2.836-7.051,1.191-10.482c-1.655-3.436-5.12-5.618-8.933-5.618H71.239c-5.478,0-9.911,4.438-9.911,9.911
		c0,5.473,4.433,9.911,9.911,9.911h19.018l-26.761,33.454c-2.381,2.971-2.836,7.051-1.191,10.482
		c1.655,3.436,5.12,5.618,8.933,5.618h39.643C116.361,227.949,120.794,223.512,120.794,218.038z"/>
	<path style="fill:#314E55;" d="M402.788,122.308c-18.544-12.989-38.84-22.899-60.317-29.461c-4.113-1.258-8.556,0.271-11.014,3.794
		c-2.458,3.518-2.381,8.222,0.203,11.648c50.793,67.44,52.361,159.27,3.891,228.496c-48.48,69.231-135.296,99.166-216.054,74.491
		c-4.104-1.258-8.556,0.271-11.014,3.794c-2.458,3.518-2.381,8.222,0.203,11.648c13.502,17.929,29.761,33.609,48.325,46.612
		c37.32,26.132,80.148,38.676,122.589,38.671c67.595-0.005,134.183-31.838,175.811-91.288
		C523.169,323.936,499.564,190.072,402.788,122.308z"/>
</g>
<path style="fill:#81A4E3;" d="M439.169,409.34c-61.497,87.828-182.983,109.227-270.786,47.754
	c-8.595-6.02-16.637-12.664-24.08-19.889c79.529,12.142,160.151-21.452,207.489-89.048c47.319-67.6,51.354-154.75,12.718-225.433
	c9.33,4.525,18.321,9.809,26.916,15.824C479.248,200.041,500.667,321.521,439.169,409.34z"/>
<g>
</g>
<g>
</g>
<g>
</g>
<g>
</g>
<g>
</g>
<g>
</g>
<g>
</g>
<g>
</g>
<g>
</g>
<g>
</g>
<g>
</g>
<g>
</g>
<g>
</g>
<g>
</g>
<g>
</g>
</svg>
