<?xml version="1.0" encoding="utf-8"?>
<!-- Generator: Adobe Illustrator 16.0.0, SVG Export Plug-In . SVG Version: 6.00 Build 0)  -->
<!DOCTYPE svg PUBLIC "-//W3C//DTD SVG 1.1//EN" "http://www.w3.org/Graphics/SVG/1.1/DTD/svg11.dtd">
<svg version="1.1" id="Capa_1" xmlns="http://www.w3.org/2000/svg" xmlns:xlink="http://www.w3.org/1999/xlink" x="0px" y="0px"
	 width="600px" height="600px" viewBox="6 96 600 600" enable-background="new 6 96 600 600" xml:space="preserve">
<g>
	<path fill="#0391FD" d="M492.552,306.215v208.129c0,26.808-21.728,48.535-48.525,48.535h-207.44l-98.448,108.293V562.879H68.525
		C41.727,562.879,20,541.151,20,514.354V306.225c0-26.807,21.727-48.535,48.525-48.535h375.492
		C470.824,257.689,492.552,279.417,492.552,306.215z"/>
	<path fill="#0F71D3" d="M542.475,119.862H166.974c-26.798,0-48.525,21.728-48.525,48.535v89.292h325.578
		c26.798,0,48.525,21.728,48.525,48.535v118.826h49.923c26.797,0,48.525-21.727,48.525-48.534v-208.12
		C591,141.589,569.271,119.862,542.475,119.862z"/>
	<path fill="#FFFFFF" d="M266.12,366.13H128.293c-5.444,0-9.845-4.41-9.845-9.845c0-5.434,4.401-9.845,9.845-9.845H266.12
		c5.445,0,9.846,4.411,9.846,9.845C275.966,361.72,271.565,366.13,266.12,366.13z"/>
	<path fill="#FFFFFF" d="M394.104,425.2H128.293c-5.444,0-9.845-4.412-9.845-9.845c0-5.436,4.401-9.846,9.845-9.846h265.811
		c5.444,0,9.845,4.41,9.845,9.846C403.948,420.788,399.548,425.2,394.104,425.2z"/>
	<path fill="#FFFFFF" d="M394.104,484.269H128.293c-5.444,0-9.845-4.411-9.845-9.845c0-5.436,4.401-9.845,9.845-9.845h265.811
		c5.444,0,9.845,4.409,9.845,9.845C403.948,479.857,399.548,484.269,394.104,484.269z"/>
</g>
</svg>
