<?xml version="1.0" encoding="utf-8"?>
<!-- Generator: Adobe Illustrator 16.0.0, SVG Export Plug-In . SVG Version: 6.00 Build 0)  -->
<!DOCTYPE svg PUBLIC "-//W3C//DTD SVG 1.1//EN" "http://www.w3.org/Graphics/SVG/1.1/DTD/svg11.dtd">
<svg version="1.1" id="Capa_1" xmlns="http://www.w3.org/2000/svg" xmlns:xlink="http://www.w3.org/1999/xlink" x="0px" y="0px"
	 width="600px" height="600px" viewBox="6 96 600 600" enable-background="new 6 96 600 600" xml:space="preserve">
<g>
	<rect x="67.5" y="117.75" fill="#DD352E" width="424.188" height="565.583"/>
	<polygon fill="#FFFFFF" points="350.292,279.345 309.893,279.345 309.893,238.946 249.295,238.946 249.295,279.345 
		208.896,279.345 208.896,339.943 249.295,339.943 249.295,380.343 309.893,380.343 309.893,339.943 350.292,339.943 	"/>
	<path fill="#ED7161" d="M330.092,491.439H229.095c-5.574,0-10.099-4.516-10.099-10.1c0-5.586,4.525-10.101,10.099-10.101h100.997
		c5.575,0,10.101,4.515,10.101,10.101C340.192,486.924,335.667,491.439,330.092,491.439z"/>
	<path fill="#ED7161" d="M370.491,531.837H188.696c-5.575,0-10.099-4.514-10.099-10.099c0-5.586,4.524-10.101,10.099-10.101h181.795
		c5.575,0,10.1,4.515,10.1,10.101C380.591,527.323,376.066,531.837,370.491,531.837z"/>
	<path fill="#ED7161" d="M370.491,572.237H188.696c-5.575,0-10.099-4.515-10.099-10.101c0-5.585,4.524-10.099,10.099-10.099h181.795
		c5.575,0,10.1,4.514,10.1,10.099C380.591,567.723,376.066,572.237,370.491,572.237z"/>
	<rect x="491.688" y="117.75" fill="#61B872" width="60.599" height="100.997"/>
	<rect x="491.688" y="218.747" fill="#EBBA16" width="60.599" height="100.998"/>
	<rect x="491.688" y="319.744" fill="#DC691D" width="60.599" height="100.997"/>
	<rect x="491.688" y="420.741" fill="#C03A2B" width="60.599" height="100.997"/>
	<rect x="491.688" y="521.738" fill="#A485BE" width="60.599" height="100.997"/>
</g>
</svg>
