<?xml version="1.0" encoding="iso-8859-1"?>
<!-- Generator: Adobe Illustrator 18.0.0, SVG Export Plug-In . SVG Version: 6.00 Build 0)  -->
<!DOCTYPE svg PUBLIC "-//W3C//DTD SVG 1.1//EN" "http://www.w3.org/Graphics/SVG/1.1/DTD/svg11.dtd">
<svg version="1.1" id="Capa_1" xmlns="http://www.w3.org/2000/svg" xmlns:xlink="http://www.w3.org/1999/xlink" x="0px" y="0px"
	 viewBox="0 0 58 58" style="enable-background:new 0 0 58 58;" xml:space="preserve">
<g>
	<path style="fill:#C5411E;" d="M27.733,11.082c0.714,1.043,2.167,1.051,2.896,0.018c2.443-3.466,6.396-5.719,10.857-5.719
		c7.418,0,12.76,6.346,13.432,13.908c0,0,0.363,1.878-0.435,5.257c-1.087,4.603-3.64,8.693-7.084,11.813L29.172,52.62L11.253,36.358
		c-3.444-3.12-5.997-7.21-7.084-11.813c-0.798-3.38-0.435-5.257-0.435-5.257C4.406,11.726,9.748,5.38,17.166,5.38
		C21.62,5.38,25.366,7.625,27.733,11.082z"/>
	<path style="fill:#F7E6A1;" d="M25,38.62c-0.021,0-0.042,0-0.063-0.002c-0.385-0.024-0.722-0.269-0.865-0.626l-5.14-12.851
		l-4.024,8.66C14.743,34.154,14.389,34.38,14,34.38H1c-0.553,0-1-0.448-1-1s0.447-1,1-1h12.362l4.73-10.181
		c0.169-0.361,0.518-0.591,0.935-0.578c0.398,0.011,0.753,0.258,0.901,0.628l5.219,13.047l3.979-7.162
		c0.174-0.313,0.501-0.509,0.859-0.514c0.393,0.013,0.69,0.181,0.874,0.488l1.688,2.836l3.474-16.53
		c0.1-0.472,0.489-0.829,1.003-0.794c0.481,0.012,0.887,0.366,0.963,0.842l2.865,17.917H57c0.553,0,1,0.448,1,1s-0.447,1-1,1H40
		c-0.491,0-0.91-0.357-0.987-0.842l-2.146-13.419l-2.888,13.745c-0.085,0.403-0.408,0.713-0.814,0.781
		c-0.401,0.071-0.812-0.12-1.023-0.475l-2.11-3.545l-4.156,7.481C25.697,38.424,25.361,38.62,25,38.62z"/>
</g>
<g>
</g>
<g>
</g>
<g>
</g>
<g>
</g>
<g>
</g>
<g>
</g>
<g>
</g>
<g>
</g>
<g>
</g>
<g>
</g>
<g>
</g>
<g>
</g>
<g>
</g>
<g>
</g>
<g>
</g>
</svg>
