<?xml version="1.0" encoding="iso-8859-1"?>
<!-- Generator: Adobe Illustrator 19.0.0, SVG Export Plug-In . SVG Version: 6.00 Build 0)  -->
<svg version="1.1" id="Layer_1" xmlns="http://www.w3.org/2000/svg" xmlns:xlink="http://www.w3.org/1999/xlink" x="0px" y="0px"
	 viewBox="0 0 512 512" style="enable-background:new 0 0 512 512;" xml:space="preserve">
<circle style="fill:#386895;" cx="256" cy="256" r="256"/>
<path style="fill:#273B7A;" d="M511.921,262.32L366.933,117.334l-22.302,98.457l-35.19,25.986L172.799,117.332l-24.483,94.192
	l95.041,78.951L117.332,394.666l116.355,116.355C241.042,511.655,248.48,512,256,512C395.273,512,508.564,400.784,511.921,262.32z"
	/>
<rect x="117.329" y="172.804" style="fill:#FFFFFF;" width="277.325" height="221.867"/>
<g>
	<rect x="256.293" y="172.804" style="fill:#D0D1D3;" width="138.378" height="221.867"/>
	<rect x="134.465" y="195.784" style="fill:#D0D1D3;" width="243.071" height="175.597"/>
</g>
<rect x="256.293" y="195.784" style="fill:#A6A8AA;" width="121.242" height="175.597"/>
<rect x="117.329" y="145.067" style="fill:#C92F00;" width="277.325" height="55.458"/>
<rect x="256.293" y="145.067" style="fill:#930000;" width="138.378" height="55.458"/>
<rect x="145.067" y="117.329" style="fill:#FFEDB5;" width="27.738" height="55.458"/>
<rect x="339.196" y="117.329" style="fill:#FEE187;" width="27.738" height="55.458"/>
<g>
	<rect x="156.444" y="227.556" style="fill:#273B7A;" width="28.444" height="28.444"/>
	<rect x="213.333" y="227.556" style="fill:#273B7A;" width="28.444" height="28.444"/>
</g>
<g>
	<rect x="270.222" y="227.556" style="fill:#121149;" width="28.444" height="28.444"/>
	<rect x="327.111" y="227.556" style="fill:#121149;" width="28.444" height="28.444"/>
</g>
<g>
	<rect x="156.444" y="271.084" style="fill:#EAA22F;" width="28.444" height="28.444"/>
	<rect x="213.333" y="271.084" style="fill:#EAA22F;" width="28.444" height="28.444"/>
</g>
<g>
	<rect x="270.222" y="271.084" style="fill:#E09112;" width="28.444" height="28.444"/>
	<rect x="327.111" y="271.084" style="fill:#E09112;" width="28.444" height="28.444"/>
</g>
<g>
	<rect x="156.444" y="315.906" style="fill:#FF5419;" width="28.444" height="28.444"/>
	<rect x="213.333" y="315.906" style="fill:#FF5419;" width="28.444" height="28.444"/>
</g>
<g>
	<rect x="270.222" y="315.906" style="fill:#C92F00;" width="28.444" height="28.444"/>
	<rect x="327.111" y="315.906" style="fill:#C92F00;" width="28.444" height="28.444"/>
</g>
<g>
</g>
<g>
</g>
<g>
</g>
<g>
</g>
<g>
</g>
<g>
</g>
<g>
</g>
<g>
</g>
<g>
</g>
<g>
</g>
<g>
</g>
<g>
</g>
<g>
</g>
<g>
</g>
<g>
</g>
</svg>
